<?xml version="1.0" encoding="utf-8"?>
<!-- Generator: Adobe Illustrator 22.0.1, SVG Export Plug-In . SVG Version: 6.00 Build 0)  -->
<svg version="1.1" id="Layer_1" xmlns="http://www.w3.org/2000/svg" xmlns:xlink="http://www.w3.org/1999/xlink" x="0px" y="0px"
	 viewBox="0 0 130.3 122.7" style="enable-background:new 0 0 130.3 122.7;" xml:space="preserve">
<style type="text/css">
	.st0{fill:#FFFFFF;}
	.st1{fill:#FCFDFD;}
	.st2{fill:#F8FAFA;}
	.st3{fill:#F5F8F8;}
	.st4{fill:#F1F5F5;}
	.st5{fill:#EEF3F3;}
	.st6{fill:#EAF0F0;}
	.st7{fill:#E7EEEE;}
	.st8{fill:#E3EBEB;}
	.st9{fill:#E0E9E9;}
	.st10{fill:#DDE6E6;}
	.st11{fill:#D9E3E4;}
	.st12{fill:#D6E1E1;}
	.st13{fill:#D2DFDF;}
	.st14{fill:#CFDCDC;}
	.st15{fill:#CBDADA;}
	.st16{fill:#C8D7D8;}
	.st17{fill:#C5D4D5;}
	.st18{fill:#C1D2D3;}
	.st19{fill:#BED0D0;}
	.st20{fill:#BACDCE;}
	.st21{fill:#B7CBCB;}
	.st22{fill:#B3C8C9;}
	.st23{fill:#B0C6C6;}
	.st24{fill:#ADC3C4;}
	.st25{fill:#A9C1C1;}
	.st26{fill:#A6BEBF;}
	.st27{fill:#A2BCBC;}
	.st28{fill:#9FB9BA;}
	.st29{fill:#9BB7B7;}
	.st30{fill:#98B4B5;}
	.st31{fill:#94B2B2;}
	.st32{fill:#91AFB0;}
	.st33{fill:#D9EDEA;}
	.st34{fill:#B7D7D5;}
	.st35{fill:#E5EBEE;}
	.st36{fill:#F7941E;}
	.st37{fill:#FBB040;}
	.st38{fill:#E7FAFA;}
	.st39{fill:#DDF3F1;}
	.st40{fill:#DAE8E8;}
	.st41{fill:#8CBAB8;}
	.st42{fill:#D6ECE9;}
	.st43{fill:#F0FFFF;}
	.st44{fill:#963731;}
	.st45{fill:#C66F6B;}
	.st46{fill:#661410;}
</style>
<g>
	<g>
		<path class="st0" d="M18.4,95.7l0.6-0.6c0.2-0.2,0.2-0.6,0-0.8l0.1,0.1l0.6-0.7l0.3,0.2l0.5-0.6l6.2,5.5l19.7-3.9
			c0.6-0.1,0.3-1.9-2.1-2.7l0,0c0-0.1-4.6-1.8-8.4,1.9l-5.6,0.7l-4.9-4.4l83.2-88.3l-0.2,0c-14.6-1.1-29.7,4.4-38.6,16L18.9,84.8
			L13.5,80l0-5.7c3.1-4.3,1-8.6,0.8-8.6l0,0c-1-2.3-2.8-2.3-2.9-1.7L10,84l5.7,5.1l-0.5,0.6l2.7,2.4l-2.3-2l-0.6,0.7l2.3,2L15,90.8
			c-0.3-0.3-0.7-0.2-1,0.1l-0.3,0.4c-0.3,0.3-0.2,0.7,0.1,1l2.2,1.9l1.8,1.6C17.9,95.9,18.3,95.9,18.4,95.7z"/>
		<path class="st0" d="M2.1,100.8c1.6,1.1,3.2,2.4,4.7,3.7c1.5,1.3,2.9,2.8,4.3,4.2c0.8,0.9,2,1.4,2.8,1c0,0,0,0,0,0
			c0.8-0.4,0.7-1.6-0.2-2.6c-0.9-1-1.8-1.9-2.8-2.8l0.9-1.1l-2.2-1.9l1.9,1.7l0.6-0.7l-1.9-1.7l1.8,1.6c0.2,0.2,0.6,0.2,0.8,0
			l0.6-0.6c0.2-0.2,0.2-0.6,0-0.8l0.1,0.1l0.6-0.7l-0.1-0.1c0.2,0.2,0.6,0.2,0.8,0l0.6-0.6c0.2-0.2,0.2-0.6,0-0.8l0.1,0.1l0.6-0.7
			L14,96.3l1.8,1.6c0.2,0.2,0.6,0.2,0.8,0l0.6-0.6c0.2-0.2,0.2-0.6,0-0.8l0.1,0.1l0.6-0.7l-1.9-1.7l-2.3-2L13,92.9l2.3,2L13.1,93
			c-0.3-0.3-0.7-0.2-1,0.1l-0.3,0.4c-0.3,0.3-0.2,0.7,0.1,1l-0.1-0.1L11.1,95l0.1,0.1c-0.3-0.3-0.7-0.2-1,0.1l-0.3,0.4
			c-0.3,0.3-0.2,0.7,0.1,1l2.2,1.9l-2.3-2l-0.6,0.7l2.3,2l-2.2-1.9c-0.3-0.3-0.7-0.2-1,0.1L8,97.7c-0.3,0.3-0.2,0.7,0.1,1L8,98.6
			l-0.6,0.7L7,98.9L6,100c-0.9-0.7-1.7-1.3-2.6-2c-1.1-0.8-2.3-0.8-2.6,0.1l0,0C0.5,98.9,1.1,100.1,2.1,100.8z"/>
	</g>
	<g>
		<path class="st1" d="M18.7,96l0.6-0.6c0.2-0.2,0.2-0.6,0-0.8l0.1,0.1L20,94l0.3,0.2l0.5-0.6l6.2,5.5l19.7-3.9
			c0.6-0.1,0.3-1.9-2.1-2.7l0,0c0-0.1-4.6-1.8-8.4,1.9l-5.6,0.7l-4.9-4.4l83.2-88.3l-0.2,0c-14.6-1.1-29.7,4.4-38.6,16L19.2,85.1
			l-5.4-4.8l0-5.7c3.1-4.3,1-8.6,0.8-8.6l0,0c-1-2.3-2.8-2.3-2.9-1.7l-1.5,20l5.7,5.1L15.4,90l2.7,2.4l-2.3-2L15.2,91l2.3,2
			l-2.2-1.9c-0.3-0.3-0.7-0.2-1,0.1L14,91.6c-0.3,0.3-0.2,0.7,0.1,1l2.2,1.9L18,96C18.2,96.2,18.6,96.2,18.7,96z"/>
		<path class="st1" d="M2.4,101.1c1.6,1.1,3.2,2.4,4.7,3.7c1.5,1.3,2.9,2.8,4.3,4.2c0.8,0.9,2,1.4,2.8,1c0,0,0,0,0,0
			c0.8-0.4,0.7-1.6-0.2-2.6c-0.9-1-1.8-1.9-2.8-2.8l0.9-1.1l-2.2-1.9l1.9,1.7l0.6-0.7l-1.9-1.7l1.8,1.6c0.2,0.2,0.6,0.2,0.8,0
			l0.6-0.6c0.2-0.2,0.2-0.6,0-0.8l0.1,0.1l0.6-0.7l-0.1-0.1c0.2,0.2,0.6,0.2,0.8,0l0.6-0.6c0.2-0.2,0.2-0.6,0-0.8l0.1,0.1l0.6-0.7
			l-1.9-1.7l1.8,1.6c0.2,0.2,0.6,0.2,0.8,0l0.6-0.6c0.2-0.2,0.2-0.6,0-0.8l0.1,0.1l0.6-0.7l-1.9-1.7l-2.3-2l-0.6,0.7l2.3,2l-2.2-1.9
			c-0.3-0.3-0.7-0.2-1,0.1l-0.3,0.4c-0.3,0.3-0.2,0.7,0.1,1l-0.1-0.1l-0.6,0.7l0.1,0.1c-0.3-0.3-0.7-0.2-1,0.1l-0.3,0.4
			c-0.3,0.3-0.2,0.7,0.1,1l2.2,1.9l-2.3-2l-0.6,0.7l2.3,2l-2.2-1.9c-0.3-0.3-0.7-0.2-1,0.1L8.3,98c-0.3,0.3-0.2,0.7,0.1,1l-0.1-0.1
			l-0.6,0.7l-0.4-0.3l-1,1.1c-0.9-0.7-1.7-1.3-2.6-2c-1.1-0.8-2.3-0.8-2.6,0.1l0,0C0.8,99.2,1.4,100.4,2.4,101.1z"/>
	</g>
	<g>
		<path class="st2" d="M19,96.3l0.6-0.6c0.2-0.2,0.2-0.6,0-0.8l0.1,0.1l0.6-0.7l0.3,0.2l0.5-0.6l6.2,5.5L47,95.5
			c0.6-0.1,0.3-1.9-2.1-2.7l0,0c0-0.1-4.6-1.8-8.4,1.9l-5.6,0.7l-4.9-4.4l83.2-88.3l-0.2,0c-14.6-1.1-29.7,4.4-38.6,16L19.5,85.4
			l-5.4-4.8l0-5.7c3.1-4.3,1-8.6,0.8-8.6l0,0c-1-2.3-2.8-2.3-2.9-1.7l-1.5,20l5.7,5.1l-0.5,0.6l2.7,2.4l-2.3-2l-0.6,0.7l2.3,2
			l-2.2-1.9c-0.3-0.3-0.7-0.2-1,0.1l-0.3,0.4c-0.3,0.3-0.2,0.7,0.1,1l2.2,1.9l1.8,1.6C18.5,96.5,18.9,96.5,19,96.3z"/>
		<path class="st2" d="M2.7,101.4c1.6,1.1,3.2,2.4,4.7,3.7c1.5,1.3,2.9,2.8,4.3,4.2c0.8,0.9,2,1.4,2.8,1c0,0,0,0,0,0
			c0.8-0.4,0.7-1.6-0.2-2.6c-0.9-1-1.8-1.9-2.8-2.8l0.9-1.1l-2.2-1.9l1.9,1.7l0.6-0.7l-1.9-1.7l1.8,1.6c0.2,0.2,0.6,0.2,0.8,0
			l0.6-0.6c0.2-0.2,0.2-0.6,0-0.8l0.1,0.1l0.6-0.7l-0.1-0.1c0.2,0.2,0.6,0.2,0.8,0l0.6-0.6c0.2-0.2,0.2-0.6,0-0.8l0.1,0.1l0.6-0.7
			l-1.9-1.7l1.8,1.6c0.2,0.2,0.6,0.2,0.8,0l0.6-0.6c0.2-0.2,0.2-0.6,0-0.8l0.1,0.1l0.6-0.7l-1.9-1.7l-2.3-2l-0.6,0.7l2.3,2l-2.2-1.9
			c-0.3-0.3-0.7-0.2-1,0.1L12.4,94c-0.3,0.3-0.2,0.7,0.1,1l-0.1-0.1l-0.6,0.7l0.1,0.1c-0.3-0.3-0.7-0.2-1,0.1l-0.3,0.4
			c-0.3,0.3-0.2,0.7,0.1,1l2.2,1.9l-2.3-2l-0.6,0.7l2.3,2L10,97.9c-0.3-0.3-0.7-0.2-1,0.1l-0.3,0.4c-0.3,0.3-0.2,0.7,0.1,1l-0.1-0.1
			l-0.6,0.7l-0.4-0.3l-1,1.1c-0.9-0.7-1.7-1.3-2.6-2c-1.1-0.8-2.3-0.8-2.6,0.1l0,0C1.1,99.5,1.7,100.7,2.7,101.4z"/>
	</g>
	<g>
		<path class="st3" d="M19.4,96.6l0.6-0.6c0.2-0.2,0.2-0.6,0-0.8l0.1,0.1l0.6-0.7l0.3,0.2l0.5-0.6l6.2,5.5l19.7-3.9
			c0.6-0.1,0.3-1.9-2.1-2.7l0,0c0-0.1-4.6-1.8-8.4,1.9l-5.6,0.7l-4.9-4.4L109.5,3l-0.2,0C94.7,2,79.5,7.4,70.7,19.1L19.8,85.7
			l-5.4-4.8l0-5.7c3.1-4.3,1-8.6,0.8-8.6l0,0c-1-2.3-2.8-2.3-2.9-1.7l-1.5,20l5.7,5.1L16,90.6l2.7,2.4l-2.3-2l-0.6,0.7l2.3,2
			l-2.2-1.9c-0.3-0.3-0.7-0.2-1,0.1l-0.3,0.4c-0.3,0.3-0.2,0.7,0.1,1l2.2,1.9l1.8,1.6C18.8,96.8,19.2,96.8,19.4,96.6z"/>
		<path class="st3" d="M3,101.7c1.6,1.1,3.2,2.4,4.7,3.7c1.5,1.3,2.9,2.8,4.3,4.2c0.8,0.9,2,1.4,2.8,1c0,0,0,0,0,0
			c0.8-0.4,0.7-1.6-0.2-2.6c-0.9-1-1.8-1.9-2.8-2.8l0.9-1.1l-2.2-1.9l1.9,1.7l0.6-0.7l-1.9-1.7l1.8,1.6c0.2,0.2,0.6,0.2,0.8,0
			l0.6-0.6c0.2-0.2,0.2-0.6,0-0.8l0.1,0.1L15,101l-0.1-0.1c0.2,0.2,0.6,0.2,0.8,0l0.6-0.6c0.2-0.2,0.2-0.6,0-0.8l0.1,0.1l0.6-0.7
			l-1.9-1.7l1.8,1.6c0.2,0.2,0.6,0.2,0.8,0l0.6-0.6c0.2-0.2,0.2-0.6,0-0.8l0.1,0.1l0.6-0.7l-1.9-1.7l-2.3-2l-0.6,0.7l2.3,2L14,93.9
			c-0.3-0.3-0.7-0.2-1,0.1l-0.3,0.4c-0.3,0.3-0.2,0.7,0.1,1l-0.1-0.1L12,95.9l0.1,0.1c-0.3-0.3-0.7-0.2-1,0.1l-0.3,0.4
			c-0.3,0.3-0.2,0.7,0.1,1l2.2,1.9l-2.3-2L10.1,98l2.3,2l-2.2-1.9c-0.3-0.3-0.7-0.2-1,0.1l-0.3,0.4c-0.3,0.3-0.2,0.7,0.1,1l-0.1-0.1
			l-0.6,0.7l-0.4-0.3l-1,1.1c-0.9-0.7-1.7-1.3-2.6-2c-1.1-0.8-2.3-0.8-2.6,0.1l0,0C1.4,99.8,2,101,3,101.7z"/>
	</g>
	<g>
		<path class="st4" d="M19.7,96.9l0.6-0.6c0.2-0.2,0.2-0.6,0-0.8l0.1,0.1l0.6-0.7l0.3,0.2l0.5-0.6l6.2,5.5l19.7-3.9
			c0.6-0.1,0.3-1.9-2.1-2.7l0,0c0-0.1-4.6-1.8-8.4,1.9L31.5,96l-4.9-4.4l83.2-88.3l-0.2,0C95,2.3,79.8,7.7,71,19.4L20.1,86l-5.4-4.8
			l0-5.7c3.1-4.3,1-8.6,0.8-8.6l0,0c-1-2.3-2.8-2.3-2.9-1.7l-1.5,20l5.7,5.1l-0.5,0.6l2.7,2.4l-2.3-2l-0.6,0.7l2.3,2L16.2,92
			c-0.3-0.3-0.7-0.2-1,0.1l-0.3,0.4c-0.3,0.3-0.2,0.7,0.1,1l2.2,1.9l1.8,1.6C19.1,97.1,19.5,97.1,19.7,96.9z"/>
		<path class="st4" d="M3.3,102c1.6,1.1,3.2,2.4,4.7,3.7c1.5,1.3,2.9,2.8,4.3,4.2c0.8,0.9,2,1.4,2.8,1c0,0,0,0,0,0
			c0.8-0.4,0.7-1.6-0.2-2.6c-0.9-1-1.8-1.9-2.8-2.8l0.9-1.1l-2.2-1.9l1.9,1.7l0.6-0.7l-1.9-1.7l1.8,1.6c0.2,0.2,0.6,0.2,0.8,0
			l0.6-0.6c0.2-0.2,0.2-0.6,0-0.8l0.1,0.1l0.6-0.7l-0.1-0.1c0.2,0.2,0.6,0.2,0.8,0l0.6-0.6c0.2-0.2,0.2-0.6,0-0.8l0.1,0.1l0.6-0.7
			l-1.9-1.7l1.8,1.6c0.2,0.2,0.6,0.2,0.8,0l0.6-0.6c0.2-0.2,0.2-0.6,0-0.8l0.1,0.1l0.6-0.7l-1.9-1.7l-2.3-2l-0.6,0.7l2.3,2l-2.2-1.9
			c-0.3-0.3-0.7-0.2-1,0.1L13,94.6c-0.3,0.3-0.2,0.7,0.1,1L13,95.5l-0.6,0.7l0.1,0.1c-0.3-0.3-0.7-0.2-1,0.1l-0.3,0.4
			c-0.3,0.3-0.2,0.7,0.1,1l2.2,1.9l-2.3-2l-0.6,0.7l2.3,2l-2.2-1.9c-0.3-0.3-0.7-0.2-1,0.1l-0.3,0.4c-0.3,0.3-0.2,0.7,0.1,1
			l-0.1-0.1l-0.6,0.7l-0.4-0.3l-1,1.1c-0.9-0.7-1.7-1.3-2.6-2c-1.1-0.8-2.3-0.8-2.6,0.1l0,0C1.7,100.1,2.3,101.3,3.3,102z"/>
	</g>
	<g>
		<path class="st5" d="M20,97.2l0.6-0.6c0.2-0.2,0.2-0.6,0-0.8l0.1,0.1l0.6-0.7l0.3,0.2l0.5-0.6l6.2,5.5l19.7-3.9
			c0.6-0.1,0.3-1.9-2.1-2.7l0,0c0-0.1-4.6-1.8-8.4,1.9l-5.6,0.7L26.8,92l83.2-88.3l-0.2,0C95.3,2.6,80.1,8,71.3,19.7L20.4,86.3
			L15,81.5l0-5.7c3.1-4.3,1-8.6,0.8-8.6l0,0c-1-2.3-2.8-2.3-2.9-1.7l-1.5,20l5.7,5.1l-0.5,0.6l2.7,2.4l-2.3-2l-0.6,0.7l2.3,2
			l-2.2-1.9c-0.3-0.3-0.7-0.2-1,0.1l-0.3,0.4c-0.3,0.3-0.2,0.7,0.1,1l2.2,1.9l1.8,1.6C19.4,97.4,19.8,97.4,20,97.2z"/>
		<path class="st5" d="M3.6,102.3c1.6,1.1,3.2,2.4,4.7,3.7c1.5,1.3,2.9,2.8,4.3,4.2c0.8,0.9,2,1.4,2.8,1c0,0,0,0,0,0
			c0.8-0.4,0.7-1.6-0.2-2.6c-0.9-1-1.8-1.9-2.8-2.8l0.9-1.1l-2.2-1.9l1.9,1.7l0.6-0.7l-1.9-1.7l1.8,1.6c0.2,0.2,0.6,0.2,0.8,0
			l0.6-0.6c0.2-0.2,0.2-0.6,0-0.8l0.1,0.1l0.6-0.7l-0.1-0.1c0.2,0.2,0.6,0.2,0.8,0l0.6-0.6c0.2-0.2,0.2-0.6,0-0.8l0.1,0.1l0.6-0.7
			l-1.9-1.7l1.8,1.6c0.2,0.2,0.6,0.2,0.8,0l0.6-0.6c0.2-0.2,0.2-0.6,0-0.8l0.1,0.1l0.6-0.7l-1.9-1.7l-2.3-2l-0.6,0.7l2.3,2l-2.2-1.9
			c-0.3-0.3-0.7-0.2-1,0.1l-0.3,0.4c-0.3,0.3-0.2,0.7,0.1,1l-0.1-0.1l-0.6,0.7l0.1,0.1c-0.3-0.3-0.7-0.2-1,0.1l-0.3,0.4
			c-0.3,0.3-0.2,0.7,0.1,1l2.2,1.9l-2.3-2l-0.6,0.7l2.3,2l-2.2-1.9c-0.3-0.3-0.7-0.2-1,0.1l-0.3,0.4c-0.3,0.3-0.2,0.7,0.1,1
			l-0.1-0.1l-0.6,0.7l-0.4-0.3l-1,1.1c-0.9-0.7-1.7-1.3-2.6-2c-1.1-0.8-2.3-0.8-2.6,0.1l0,0C2,100.4,2.6,101.6,3.6,102.3z"/>
	</g>
	<g>
		<path class="st6" d="M20.3,97.5l0.6-0.6c0.2-0.2,0.2-0.6,0-0.8l0.1,0.1l0.6-0.7l0.3,0.2l0.5-0.6l6.2,5.5l19.7-3.9
			c0.6-0.1,0.3-1.9-2.1-2.7l0,0c0-0.1-4.6-1.8-8.4,1.9l-5.6,0.7l-4.9-4.4L110.4,4l-0.2,0C95.6,2.9,80.4,8.3,71.6,20L20.7,86.6
			l-5.4-4.8l0-5.7c3.1-4.3,1-8.6,0.8-8.6l0,0c-1-2.3-2.8-2.3-2.9-1.7l-1.5,20l5.7,5.1l-0.5,0.6l2.7,2.4l-2.3-2l-0.6,0.7l2.3,2
			l-2.2-1.9c-0.3-0.3-0.7-0.2-1,0.1l-0.3,0.4c-0.3,0.3-0.2,0.7,0.1,1l2.2,1.9l1.8,1.6C19.7,97.7,20.1,97.7,20.3,97.5z"/>
		<path class="st6" d="M3.9,102.6c1.6,1.1,3.2,2.4,4.7,3.7c1.5,1.3,2.9,2.8,4.3,4.2c0.8,0.9,2,1.4,2.8,1c0,0,0,0,0,0
			c0.8-0.4,0.7-1.6-0.2-2.6c-0.9-1-1.8-1.9-2.8-2.8l0.9-1.1l-2.2-1.9l1.9,1.7l0.6-0.7l-1.9-1.7l1.8,1.6c0.2,0.2,0.6,0.2,0.8,0
			l0.6-0.6c0.2-0.2,0.2-0.6,0-0.8l0.1,0.1l0.6-0.7l-0.1-0.1c0.2,0.2,0.6,0.2,0.8,0l0.6-0.6c0.2-0.2,0.2-0.6,0-0.8l0.1,0.1l0.6-0.7
			l-1.9-1.7l1.8,1.6c0.2,0.2,0.6,0.2,0.8,0l0.6-0.6c0.2-0.2,0.2-0.6,0-0.8l0.1,0.1l0.6-0.7L17.7,96l-2.3-2l-0.6,0.7l2.3,2L15,94.8
			c-0.3-0.3-0.7-0.2-1,0.1l-0.3,0.4c-0.3,0.3-0.2,0.7,0.1,1l-0.1-0.1l-0.6,0.7l0.1,0.1c-0.3-0.3-0.7-0.2-1,0.1l-0.3,0.4
			c-0.3,0.3-0.2,0.7,0.1,1l2.2,1.9l-2.3-2L11,99l2.3,2l-2.2-1.9c-0.3-0.3-0.7-0.2-1,0.1l-0.3,0.4c-0.3,0.3-0.2,0.7,0.1,1l-0.1-0.1
			l-0.6,0.7l-0.4-0.3l-1,1.1c-0.9-0.7-1.7-1.3-2.6-2c-1.1-0.8-2.3-0.8-2.6,0.1l0,0C2.3,100.7,2.9,101.9,3.9,102.6z"/>
	</g>
	<g>
		<path class="st7" d="M20.6,97.8l0.6-0.6c0.2-0.2,0.2-0.6,0-0.8l0.1,0.1l0.6-0.7l0.3,0.2l0.5-0.6l6.2,5.5L48.5,97
			c0.6-0.1,0.3-1.9-2.1-2.7l0,0c0-0.1-4.6-1.8-8.4,1.9l-5.6,0.7l-4.9-4.4l83.2-88.3l-0.2,0c-14.6-1.1-29.7,4.4-38.6,16L21,86.9
			l-5.4-4.8l0-5.7c3.1-4.3,1-8.6,0.8-8.6l0,0c-1-2.3-2.8-2.3-2.9-1.7l-1.5,20l5.7,5.1l-0.5,0.6l2.7,2.4l-2.3-2L17,92.8l2.3,2
			l-2.2-1.9c-0.3-0.3-0.7-0.2-1,0.1l-0.3,0.4c-0.3,0.3-0.2,0.7,0.1,1l2.2,1.9l1.8,1.6C20,98,20.4,98,20.6,97.8z"/>
		<path class="st7" d="M4.2,102.9c1.6,1.1,3.2,2.4,4.7,3.7c1.5,1.3,2.9,2.8,4.3,4.2c0.8,0.9,2,1.4,2.8,1c0,0,0,0,0,0
			c0.8-0.4,0.7-1.6-0.2-2.6c-0.9-1-1.8-1.9-2.8-2.8l0.9-1.1l-2.2-1.9l1.9,1.7l0.6-0.7l-1.9-1.7l1.8,1.6c0.2,0.2,0.6,0.2,0.8,0
			l0.6-0.6c0.2-0.2,0.2-0.6,0-0.8l0.1,0.1l0.6-0.7l-0.1-0.1c0.2,0.2,0.6,0.2,0.8,0l0.6-0.6c0.2-0.2,0.2-0.6,0-0.8l0.1,0.1l0.6-0.7
			l-1.9-1.7l1.8,1.6c0.2,0.2,0.6,0.2,0.8,0l0.6-0.6c0.2-0.2,0.2-0.6,0-0.8l0.1,0.1l0.6-0.7L18,96.3l-2.3-2L15.1,95l2.3,2l-2.2-1.9
			c-0.3-0.3-0.7-0.2-1,0.1l-0.3,0.4c-0.3,0.3-0.2,0.7,0.1,1l-0.1-0.1l-0.6,0.7l0.1,0.1c-0.3-0.3-0.7-0.2-1,0.1L12,97.7
			c-0.3,0.3-0.2,0.7,0.1,1l2.2,1.9l-2.3-2l-0.6,0.7l2.3,2l-2.2-1.9c-0.3-0.3-0.7-0.2-1,0.1l-0.3,0.4c-0.3,0.3-0.2,0.7,0.1,1
			l-0.1-0.1l-0.6,0.7L9.1,101l-1,1.1c-0.9-0.7-1.7-1.3-2.6-2c-1.1-0.8-2.3-0.8-2.6,0.1l0,0C2.6,101,3.2,102.2,4.2,102.9z"/>
	</g>
	<g>
		<path class="st8" d="M20.9,98.1l0.6-0.6c0.2-0.2,0.2-0.6,0-0.8l0.1,0.1l0.6-0.7l0.3,0.2l0.5-0.6l6.2,5.5l19.7-3.9
			c0.6-0.1,0.3-1.9-2.1-2.7l0,0c0-0.1-4.6-1.8-8.4,1.9l-5.6,0.7l-4.9-4.4L111,4.6l-0.2,0C96.2,3.5,81,9,72.2,20.6L21.3,87.2
			l-5.4-4.8l0-5.7c3.1-4.3,1-8.6,0.8-8.6l0,0c-1-2.3-2.8-2.3-2.9-1.7l-1.5,20l5.7,5.1l-0.5,0.6l2.7,2.4l-2.3-2l-0.6,0.7l2.3,2
			l-2.2-1.9c-0.3-0.3-0.7-0.2-1,0.1l-0.3,0.4c-0.3,0.3-0.2,0.7,0.1,1l2.2,1.9l1.8,1.6C20.3,98.3,20.7,98.3,20.9,98.1z"/>
		<path class="st8" d="M4.5,103.2c1.6,1.1,3.2,2.4,4.7,3.7c1.5,1.3,2.9,2.8,4.3,4.2c0.8,0.9,2,1.4,2.8,1c0,0,0,0,0,0
			c0.8-0.4,0.7-1.6-0.2-2.6c-0.9-1-1.8-1.9-2.8-2.8l0.9-1.1l-2.2-1.9l1.9,1.7l0.6-0.7l-1.9-1.7l1.8,1.6c0.2,0.2,0.6,0.2,0.8,0
			l0.6-0.6c0.2-0.2,0.2-0.6,0-0.8l0.1,0.1l0.6-0.7l-0.1-0.1c0.2,0.2,0.6,0.2,0.8,0l0.6-0.6c0.2-0.2,0.2-0.6,0-0.8l0.1,0.1l0.6-0.7
			l-1.9-1.7l1.8,1.6c0.2,0.2,0.6,0.2,0.8,0l0.6-0.6c0.2-0.2,0.2-0.6,0-0.8l0.1,0.1l0.6-0.7l-1.9-1.7l-2.3-2l-0.6,0.7l2.3,2l-2.2-1.9
			c-0.3-0.3-0.7-0.2-1,0.1l-0.3,0.4c-0.3,0.3-0.2,0.7,0.1,1l-0.1-0.1l-0.6,0.7l0.1,0.1c-0.3-0.3-0.7-0.2-1,0.1L12.3,98
			c-0.3,0.3-0.2,0.7,0.1,1l2.2,1.9l-2.3-2l-0.6,0.7l2.3,2l-2.2-1.9c-0.3-0.3-0.7-0.2-1,0.1l-0.3,0.4c-0.3,0.3-0.2,0.7,0.1,1
			l-0.1-0.1l-0.6,0.7l-0.4-0.3l-1,1.1c-0.9-0.7-1.7-1.3-2.6-2c-1.1-0.8-2.3-0.8-2.6,0.1l0,0C2.9,101.3,3.5,102.5,4.5,103.2z"/>
	</g>
	<g>
		<path class="st9" d="M21.2,98.4l0.6-0.6c0.2-0.2,0.2-0.6,0-0.8l0.1,0.1l0.6-0.7l0.3,0.2l0.5-0.6l6.2,5.5l19.7-3.9
			c0.6-0.1,0.3-1.9-2.1-2.7l0,0c0-0.1-4.6-1.8-8.4,1.9L33,97.5L28,93.2l83.2-88.3l-0.2,0c-14.6-1.1-29.7,4.4-38.6,16L21.6,87.5
			l-5.4-4.8l0-5.7c3.1-4.3,1-8.6,0.8-8.6l0,0c-1-2.3-2.8-2.3-2.9-1.7l-1.5,20l5.7,5.1l-0.5,0.6l2.7,2.4l-2.3-2l-0.6,0.7l2.3,2
			l-2.2-1.9c-0.3-0.3-0.7-0.2-1,0.1L16.4,94c-0.3,0.3-0.2,0.7,0.1,1l2.2,1.9l1.8,1.6C20.6,98.6,21,98.6,21.2,98.4z"/>
		<path class="st9" d="M4.8,103.5c1.6,1.1,3.2,2.4,4.7,3.7c1.5,1.3,2.9,2.8,4.3,4.2c0.8,0.9,2,1.4,2.8,1c0,0,0,0,0,0
			c0.8-0.4,0.7-1.6-0.2-2.6c-0.9-1-1.8-1.9-2.8-2.8l0.9-1.1l-2.2-1.9l1.9,1.7l0.6-0.7l-1.9-1.7l1.8,1.6c0.2,0.2,0.6,0.2,0.8,0
			l0.6-0.6c0.2-0.2,0.2-0.6,0-0.8l0.1,0.1l0.6-0.7l-0.1-0.1c0.2,0.2,0.6,0.2,0.8,0l0.6-0.6c0.2-0.2,0.2-0.6,0-0.8l0.1,0.1l0.6-0.7
			L16.7,99l1.8,1.6c0.2,0.2,0.6,0.2,0.8,0l0.6-0.6c0.2-0.2,0.2-0.6,0-0.8l0.1,0.1l0.6-0.7l-1.9-1.7l-2.3-2l-0.6,0.7l2.3,2l-2.2-1.9
			c-0.3-0.3-0.7-0.2-1,0.1l-0.3,0.4c-0.3,0.3-0.2,0.7,0.1,1L14.5,97l-0.6,0.7l0.1,0.1c-0.3-0.3-0.7-0.2-1,0.1l-0.3,0.4
			c-0.3,0.3-0.2,0.7,0.1,1l2.2,1.9l-2.3-2l-0.6,0.7l2.3,2l-2.2-1.9c-0.3-0.3-0.7-0.2-1,0.1l-0.3,0.4c-0.3,0.3-0.2,0.7,0.1,1
			l-0.1-0.1l-0.6,0.7l-0.4-0.3l-1,1.1c-0.9-0.7-1.7-1.3-2.6-2c-1.1-0.8-2.3-0.8-2.6,0.1l0,0C3.2,101.6,3.8,102.8,4.8,103.5z"/>
	</g>
	<g>
		<path class="st10" d="M21.5,98.7l0.6-0.6c0.2-0.2,0.2-0.6,0-0.8l0.1,0.1l0.6-0.7l0.3,0.2l0.5-0.6l6.2,5.5l19.7-3.9
			c0.6-0.1,0.3-1.9-2.1-2.7l0,0c0-0.1-4.6-1.8-8.4,1.9l-5.6,0.7l-4.9-4.4l83.2-88.3l-0.2,0c-14.6-1.1-29.7,4.4-38.6,16L21.9,87.8
			L16.5,83l0-5.7c3.1-4.3,1-8.6,0.8-8.6l0,0c-1-2.3-2.8-2.3-2.9-1.7L13,87l5.7,5.1l-0.5,0.6l2.7,2.4l-2.3-2l-0.6,0.7l2.3,2L18,93.8
			c-0.3-0.3-0.7-0.2-1,0.1l-0.3,0.4c-0.3,0.3-0.2,0.7,0.1,1l2.2,1.9l1.8,1.6C20.9,98.9,21.3,98.9,21.5,98.7z"/>
		<path class="st10" d="M5.1,103.8c1.6,1.1,3.2,2.4,4.7,3.7c1.5,1.3,2.9,2.8,4.3,4.2c0.8,0.9,2,1.4,2.8,1c0,0,0,0,0,0
			c0.8-0.4,0.7-1.6-0.2-2.6c-0.9-1-1.8-1.9-2.8-2.8l0.9-1.1l-2.2-1.9l1.9,1.7l0.6-0.7l-1.9-1.7l1.8,1.6c0.2,0.2,0.6,0.2,0.8,0
			l0.6-0.6c0.2-0.2,0.2-0.6,0-0.8l0.1,0.1l0.6-0.7l-0.1-0.1c0.2,0.2,0.6,0.2,0.8,0l0.6-0.6c0.2-0.2,0.2-0.6,0-0.8l0.1,0.1L19,101
			L17,99.3l1.8,1.6c0.2,0.2,0.6,0.2,0.8,0l0.6-0.6c0.2-0.2,0.2-0.6,0-0.8l0.1,0.1l0.6-0.7l-1.9-1.7l-2.3-2L16,95.9l2.3,2L16.2,96
			c-0.3-0.3-0.7-0.2-1,0.1l-0.3,0.4c-0.3,0.3-0.2,0.7,0.1,1l-0.1-0.1L14.1,98l0.1,0.1c-0.3-0.3-0.7-0.2-1,0.1l-0.3,0.4
			c-0.3,0.3-0.2,0.7,0.1,1l2.2,1.9l-2.3-2l-0.6,0.7l2.3,2l-2.2-1.9c-0.3-0.3-0.7-0.2-1,0.1l-0.3,0.4c-0.3,0.3-0.2,0.7,0.1,1
			l-0.1-0.1l-0.6,0.7L10,102L9,103c-0.9-0.7-1.7-1.3-2.6-2c-1.1-0.8-2.3-0.8-2.6,0.1l0,0C3.5,101.9,4.1,103.1,5.1,103.8z"/>
	</g>
	<g>
		<path class="st11" d="M21.8,99l0.6-0.6c0.2-0.2,0.2-0.6,0-0.8l0.1,0.1L23,97l0.3,0.2l0.5-0.6l6.2,5.5l19.7-3.9
			c0.6-0.1,0.3-1.9-2.1-2.7l0,0c0-0.1-4.6-1.8-8.4,1.9l-5.6,0.7l-4.9-4.4l83.2-88.3l-0.2,0c-14.6-1.1-29.7,4.4-38.6,16L22.2,88.1
			l-5.4-4.8l0-5.7c3.1-4.3,1-8.6,0.8-8.6l0,0c-1-2.3-2.8-2.3-2.9-1.7l-1.5,20l5.7,5.1L18.5,93l2.7,2.4l-2.3-2L18.2,94l2.3,2
			l-2.2-1.9c-0.3-0.3-0.7-0.2-1,0.1L17,94.6c-0.3,0.3-0.2,0.7,0.1,1l2.2,1.9L21,99C21.2,99.2,21.6,99.2,21.8,99z"/>
		<path class="st11" d="M5.4,104.1c1.6,1.1,3.2,2.4,4.7,3.7c1.5,1.3,2.9,2.8,4.3,4.2c0.8,0.9,2,1.4,2.8,1c0,0,0,0,0,0
			c0.8-0.4,0.7-1.6-0.2-2.6c-0.9-1-1.8-1.9-2.8-2.8l0.9-1.1l-2.2-1.9l1.9,1.7l0.6-0.7l-1.9-1.7l1.8,1.6c0.2,0.2,0.6,0.2,0.8,0
			l0.6-0.6c0.2-0.2,0.2-0.6,0-0.8l0.1,0.1l0.6-0.7l-0.1-0.1c0.2,0.2,0.6,0.2,0.8,0l0.6-0.6c0.2-0.2,0.2-0.6,0-0.8l0.1,0.1l0.6-0.7
			l-1.9-1.7l1.8,1.6c0.2,0.2,0.6,0.2,0.8,0l0.6-0.6c0.2-0.2,0.2-0.6,0-0.8l0.1,0.1l0.6-0.7l-1.9-1.7l-2.3-2l-0.6,0.7l2.3,2l-2.2-1.9
			c-0.3-0.3-0.7-0.2-1,0.1l-0.3,0.4c-0.3,0.3-0.2,0.7,0.1,1l-0.1-0.1l-0.6,0.7l0.1,0.1c-0.3-0.3-0.7-0.2-1,0.1l-0.3,0.4
			c-0.3,0.3-0.2,0.7,0.1,1l2.2,1.9l-2.3-2l-0.6,0.7l2.3,2l-2.2-1.9c-0.3-0.3-0.7-0.2-1,0.1l-0.3,0.4c-0.3,0.3-0.2,0.7,0.1,1
			l-0.1-0.1l-0.6,0.7l-0.4-0.3l-1,1.1c-0.9-0.7-1.7-1.3-2.6-2c-1.1-0.8-2.3-0.8-2.6,0.1l0,0C3.8,102.2,4.4,103.4,5.4,104.1z"/>
	</g>
	<g>
		<path class="st12" d="M22.1,99.3l0.6-0.6c0.2-0.2,0.2-0.6,0-0.8l0.1,0.1l0.6-0.7l0.3,0.2l0.5-0.6l6.2,5.5L50,98.5
			c0.6-0.1,0.3-1.9-2.1-2.7l0,0c0-0.1-4.6-1.8-8.4,1.9l-5.6,0.7l-4.9-4.4l83.2-88.3l-0.2,0c-14.6-1.1-29.7,4.4-38.6,16L22.5,88.4
			l-5.4-4.8l0-5.7c3.1-4.3,1-8.6,0.8-8.6l0,0c-1-2.3-2.8-2.3-2.9-1.7l-1.5,20l5.7,5.1l-0.5,0.6l2.7,2.4l-2.3-2l-0.6,0.7l2.3,2
			l-2.2-1.9c-0.3-0.3-0.7-0.2-1,0.1l-0.3,0.4c-0.3,0.3-0.2,0.7,0.1,1l2.2,1.9l1.8,1.6C21.5,99.5,21.9,99.5,22.1,99.3z"/>
		<path class="st12" d="M5.7,104.4c1.6,1.1,3.2,2.4,4.7,3.7c1.5,1.3,2.9,2.8,4.3,4.2c0.8,0.9,2,1.4,2.8,1c0,0,0,0,0,0
			c0.8-0.4,0.7-1.6-0.2-2.6c-0.9-1-1.8-1.9-2.8-2.8l0.9-1.1l-2.2-1.9l1.9,1.7l0.6-0.7l-1.9-1.7l1.8,1.6c0.2,0.2,0.6,0.2,0.8,0
			l0.6-0.6c0.2-0.2,0.2-0.6,0-0.8l0.1,0.1l0.6-0.7l-0.1-0.1c0.2,0.2,0.6,0.2,0.8,0l0.6-0.6c0.2-0.2,0.2-0.6,0-0.8l0.1,0.1l0.6-0.7
			l-1.9-1.7l1.8,1.6c0.2,0.2,0.6,0.2,0.8,0l0.6-0.6c0.2-0.2,0.2-0.6,0-0.8l0.1,0.1l0.6-0.7l-1.9-1.7l-2.3-2l-0.6,0.7l2.3,2l-2.2-1.9
			c-0.3-0.3-0.7-0.2-1,0.1L15.4,97c-0.3,0.3-0.2,0.7,0.1,1l-0.1-0.1l-0.6,0.7l0.1,0.1c-0.3-0.3-0.7-0.2-1,0.1l-0.3,0.4
			c-0.3,0.3-0.2,0.7,0.1,1l2.2,1.9l-2.3-2l-0.6,0.7l2.3,2l-2.2-1.9c-0.3-0.3-0.7-0.2-1,0.1l-0.3,0.4c-0.3,0.3-0.2,0.7,0.1,1
			l-0.1-0.1l-0.6,0.7l-0.4-0.3l-1,1.1c-0.9-0.7-1.7-1.3-2.6-2c-1.1-0.8-2.3-0.8-2.6,0.1l0,0C4.1,102.5,4.7,103.7,5.7,104.4z"/>
	</g>
	<g>
		<path class="st13" d="M22.4,99.6l0.6-0.6c0.2-0.2,0.2-0.6,0-0.8l0.1,0.1l0.6-0.7l0.3,0.2l0.5-0.6l6.2,5.5l19.7-3.9
			c0.6-0.1,0.3-1.9-2.1-2.7l0,0c0-0.1-4.6-1.8-8.4,1.9l-5.6,0.7l-4.9-4.4l83.2-88.3l-0.2,0c-14.6-1.1-29.7,4.4-38.6,16L22.8,88.7
			l-5.4-4.8l0-5.7c3.1-4.3,1-8.6,0.8-8.6l0,0c-1-2.3-2.8-2.3-2.9-1.7l-1.5,20l5.7,5.1l-0.5,0.6l2.7,2.4l-2.3-2l-0.6,0.7l2.3,2
			l-2.2-1.9c-0.3-0.3-0.7-0.2-1,0.1l-0.3,0.4c-0.3,0.3-0.2,0.7,0.1,1l2.2,1.9l1.8,1.6C21.8,99.8,22.2,99.8,22.4,99.6z"/>
		<path class="st13" d="M6,104.7c1.6,1.1,3.2,2.4,4.7,3.7c1.5,1.3,2.9,2.8,4.3,4.2c0.8,0.9,2,1.4,2.8,1c0,0,0,0,0,0
			c0.8-0.4,0.7-1.6-0.2-2.6c-0.9-1-1.8-1.9-2.8-2.8l0.9-1.1l-2.2-1.9l1.9,1.7l0.6-0.7l-1.9-1.7l1.8,1.6c0.2,0.2,0.6,0.2,0.8,0
			l0.6-0.6c0.2-0.2,0.2-0.6,0-0.8l0.1,0.1l0.6-0.7l-0.1-0.1c0.2,0.2,0.6,0.2,0.8,0l0.6-0.6c0.2-0.2,0.2-0.6,0-0.8l0.1,0.1l0.6-0.7
			l-1.9-1.7l1.8,1.6c0.2,0.2,0.6,0.2,0.8,0l0.6-0.6c0.2-0.2,0.2-0.6,0-0.8l0.1,0.1l0.6-0.7l-1.9-1.7l-2.3-2l-0.6,0.7l2.3,2l-2.2-1.9
			c-0.3-0.3-0.7-0.2-1,0.1l-0.3,0.4c-0.3,0.3-0.2,0.7,0.1,1l-0.1-0.1L15,98.9l0.1,0.1c-0.3-0.3-0.7-0.2-1,0.1l-0.3,0.4
			c-0.3,0.3-0.2,0.7,0.1,1l2.2,1.9l-2.3-2l-0.6,0.7l2.3,2l-2.2-1.9c-0.3-0.3-0.7-0.2-1,0.1l-0.3,0.4c-0.3,0.3-0.2,0.7,0.1,1
			l-0.1-0.1l-0.6,0.7l-0.4-0.3l-1,1.1c-0.9-0.7-1.7-1.3-2.6-2c-1.1-0.8-2.3-0.8-2.6,0.1l0,0C4.4,102.8,5,104,6,104.7z"/>
	</g>
	<g>
		<path class="st14" d="M22.7,99.9l0.6-0.6c0.2-0.2,0.2-0.6,0-0.8l0.1,0.1l0.6-0.7l0.3,0.2l0.5-0.6l6.2,5.5l19.7-3.9
			c0.6-0.1,0.3-1.9-2.1-2.7l0,0c0-0.1-4.6-1.8-8.4,1.9l-5.6,0.7l-4.9-4.4l83.2-88.3l-0.2,0C98,5.3,82.8,10.8,74,22.4L23.1,89
			l-5.4-4.8l0-5.7c3.1-4.3,1-8.6,0.8-8.6l0,0c-1-2.3-2.8-2.3-2.9-1.7l-1.5,20l5.7,5.1l-0.5,0.6l2.7,2.4l-2.3-2l-0.6,0.7l2.3,2
			L19.2,95c-0.3-0.3-0.7-0.2-1,0.1l-0.3,0.4c-0.3,0.3-0.2,0.7,0.1,1l2.2,1.9l1.8,1.6C22.1,100.1,22.5,100.1,22.7,99.9z"/>
		<path class="st14" d="M6.3,105c1.6,1.1,3.2,2.4,4.7,3.7c1.5,1.3,2.9,2.8,4.3,4.2c0.8,0.9,2,1.4,2.8,1c0,0,0,0,0,0
			c0.8-0.4,0.7-1.6-0.2-2.6c-0.9-1-1.8-1.9-2.8-2.8l0.9-1.1l-2.2-1.9l1.9,1.7l0.6-0.7l-1.9-1.7l1.8,1.6c0.2,0.2,0.6,0.2,0.8,0
			l0.6-0.6c0.2-0.2,0.2-0.6,0-0.8l0.1,0.1l0.6-0.7l-0.1-0.1c0.2,0.2,0.6,0.2,0.8,0l0.6-0.6c0.2-0.2,0.2-0.6,0-0.8l0.1,0.1l0.6-0.7
			l-1.9-1.7l1.8,1.6c0.2,0.2,0.6,0.2,0.8,0l0.6-0.6c0.2-0.2,0.2-0.6,0-0.8l0.1,0.1l0.6-0.7l-1.9-1.7l-2.3-2l-0.6,0.7l2.3,2l-2.2-1.9
			c-0.3-0.3-0.7-0.2-1,0.1L16,97.6c-0.3,0.3-0.2,0.7,0.1,1L16,98.5l-0.6,0.7l0.1,0.1c-0.3-0.3-0.7-0.2-1,0.1l-0.3,0.4
			c-0.3,0.3-0.2,0.7,0.1,1l2.2,1.9l-2.3-2l-0.6,0.7l2.3,2l-2.2-1.9c-0.3-0.3-0.7-0.2-1,0.1l-0.3,0.4c-0.3,0.3-0.2,0.7,0.1,1
			l-0.1-0.1l-0.6,0.7l-0.4-0.3l-1,1.1c-0.9-0.7-1.7-1.3-2.6-2c-1.1-0.8-2.3-0.8-2.6,0.1l0,0C4.7,103.1,5.3,104.3,6.3,105z"/>
	</g>
	<g>
		<path class="st15" d="M23,100.2l0.6-0.6c0.2-0.2,0.2-0.6,0-0.8l0.1,0.1l0.6-0.7l0.3,0.2l0.5-0.6l6.2,5.5l19.7-3.9
			c0.6-0.1,0.3-1.9-2.1-2.7l0,0c0-0.1-4.6-1.8-8.4,1.9l-5.6,0.7L29.9,95l83.2-88.3l-0.2,0c-14.6-1.1-29.7,4.4-38.6,16L23.4,89.3
			L18,84.5l0-5.7c3.1-4.3,1-8.6,0.8-8.6l0,0c-1-2.3-2.8-2.3-2.9-1.7l-1.5,20l5.7,5.1l-0.5,0.6l2.7,2.4l-2.3-2l-0.6,0.7l2.3,2
			l-2.2-1.9c-0.3-0.3-0.7-0.2-1,0.1l-0.3,0.4c-0.3,0.3-0.2,0.7,0.1,1l2.2,1.9l1.8,1.6C22.4,100.4,22.8,100.4,23,100.2z"/>
		<path class="st15" d="M6.6,105.3c1.6,1.1,3.2,2.4,4.7,3.7c1.5,1.3,2.9,2.8,4.3,4.2c0.8,0.9,2,1.4,2.8,1c0,0,0,0,0,0
			c0.8-0.4,0.7-1.6-0.2-2.6c-0.9-1-1.8-1.9-2.8-2.8l0.9-1.1l-2.2-1.9l1.9,1.7l0.6-0.7l-1.9-1.7l1.8,1.6c0.2,0.2,0.6,0.2,0.8,0
			l0.6-0.6c0.2-0.2,0.2-0.6,0-0.8l0.1,0.1l0.6-0.7l-0.1-0.1c0.2,0.2,0.6,0.2,0.8,0l0.6-0.6c0.2-0.2,0.2-0.6,0-0.8l0.1,0.1l0.6-0.7
			l-1.9-1.7l1.8,1.6c0.2,0.2,0.6,0.2,0.8,0l0.6-0.6c0.2-0.2,0.2-0.6,0-0.8l0.1,0.1l0.6-0.7l-1.9-1.7l-2.3-2l-0.6,0.7l2.3,2l-2.2-1.9
			c-0.3-0.3-0.7-0.2-1,0.1l-0.3,0.4c-0.3,0.3-0.2,0.7,0.1,1l-0.1-0.1l-0.6,0.7l0.1,0.1c-0.3-0.3-0.7-0.2-1,0.1l-0.3,0.4
			c-0.3,0.3-0.2,0.7,0.1,1l2.2,1.9l-2.3-2l-0.6,0.7l2.3,2l-2.2-1.9c-0.3-0.3-0.7-0.2-1,0.1l-0.3,0.4c-0.3,0.3-0.2,0.7,0.1,1
			l-0.1-0.1l-0.6,0.7l-0.4-0.3l-1,1.1c-0.9-0.7-1.7-1.3-2.6-2c-1.1-0.8-2.3-0.8-2.6,0.1l0,0C5,103.4,5.6,104.6,6.6,105.3z"/>
	</g>
	<g>
		<path class="st16" d="M23.3,100.5l0.6-0.6c0.2-0.2,0.2-0.6,0-0.8l0.1,0.1l0.6-0.7l0.3,0.2l0.5-0.6l6.2,5.5l19.7-3.9
			c0.6-0.1,0.3-1.9-2.1-2.7l0,0c0-0.1-4.6-1.8-8.4,1.9l-5.6,0.7l-4.9-4.4L113.4,7l-0.2,0c-14.6-1.1-29.7,4.4-38.6,16L23.7,89.6
			l-5.4-4.8l0-5.7c3.1-4.3,1-8.6,0.8-8.6l0,0c-1-2.3-2.8-2.3-2.9-1.7l-1.5,20l5.7,5.1L20,94.5l2.7,2.4l-2.3-2l-0.6,0.7l2.3,2
			l-2.2-1.9c-0.3-0.3-0.7-0.2-1,0.1l-0.3,0.4c-0.3,0.3-0.2,0.7,0.1,1l2.2,1.9l1.8,1.6C22.7,100.7,23.1,100.7,23.3,100.5z"/>
		<path class="st16" d="M6.9,105.6c1.6,1.1,3.2,2.4,4.7,3.7c1.5,1.3,2.9,2.8,4.3,4.2c0.8,0.9,2,1.4,2.8,1c0,0,0,0,0,0
			c0.8-0.4,0.7-1.6-0.2-2.6c-0.9-1-1.8-1.9-2.8-2.8l0.9-1.1l-2.2-1.9l1.9,1.7l0.6-0.7l-1.9-1.7l1.8,1.6c0.2,0.2,0.6,0.2,0.8,0
			l0.6-0.6c0.2-0.2,0.2-0.6,0-0.8l0.1,0.1l0.6-0.7l-0.1-0.1c0.2,0.2,0.6,0.2,0.8,0l0.6-0.6c0.2-0.2,0.2-0.6,0-0.8l0.1,0.1l0.6-0.7
			l-1.9-1.7l1.8,1.6c0.2,0.2,0.6,0.2,0.8,0l0.6-0.6c0.2-0.2,0.2-0.6,0-0.8l0.1,0.1l0.6-0.7L20.7,99l-2.3-2l-0.6,0.7l2.3,2L18,97.8
			c-0.3-0.3-0.7-0.2-1,0.1l-0.3,0.4c-0.3,0.3-0.2,0.7,0.1,1l-0.1-0.1l-0.6,0.7l0.1,0.1c-0.3-0.3-0.7-0.2-1,0.1l-0.3,0.4
			c-0.3,0.3-0.2,0.7,0.1,1l2.2,1.9l-2.3-2L14,102l2.3,2l-2.2-1.9c-0.3-0.3-0.7-0.2-1,0.1l-0.3,0.4c-0.3,0.3-0.2,0.7,0.1,1l-0.1-0.1
			l-0.6,0.7l-0.4-0.3l-1,1.1c-0.9-0.7-1.7-1.3-2.6-2c-1.1-0.8-2.3-0.8-2.6,0.1l0,0C5.3,103.7,5.9,104.9,6.9,105.6z"/>
	</g>
	<g>
		<path class="st17" d="M23.6,100.8l0.6-0.6c0.2-0.2,0.2-0.6,0-0.8l0.1,0.1l0.6-0.7l0.3,0.2l0.5-0.6l6.2,5.5l19.7-3.9
			c0.6-0.1,0.3-1.9-2.1-2.7l0,0c0-0.1-4.6-1.8-8.4,1.9l-5.6,0.7l-4.9-4.4l83.2-88.3l-0.2,0c-14.6-1.1-29.7,4.4-38.6,16L24,89.9
			l-5.4-4.8l0-5.7c3.1-4.3,1-8.6,0.8-8.6l0,0c-1-2.3-2.8-2.3-2.9-1.7l-1.5,20l5.7,5.1l-0.5,0.6l2.7,2.4l-2.3-2L20,95.8l2.3,2
			l-2.2-1.9c-0.3-0.3-0.7-0.2-1,0.1l-0.3,0.4c-0.3,0.3-0.2,0.7,0.1,1l2.2,1.9l1.8,1.6C23,101,23.4,101,23.6,100.8z"/>
		<path class="st17" d="M7.2,105.9c1.6,1.1,3.2,2.4,4.7,3.7c1.5,1.3,2.9,2.8,4.3,4.2c0.8,0.9,2,1.4,2.8,1c0,0,0,0,0,0
			c0.8-0.4,0.7-1.6-0.2-2.6c-0.9-1-1.8-1.9-2.8-2.8l0.9-1.1l-2.2-1.9l1.9,1.7l0.6-0.7l-1.9-1.7l1.8,1.6c0.2,0.2,0.6,0.2,0.8,0
			l0.6-0.6c0.2-0.2,0.2-0.6,0-0.8l0.1,0.1l0.6-0.7l-0.1-0.1c0.2,0.2,0.6,0.2,0.8,0l0.6-0.6c0.2-0.2,0.2-0.6,0-0.8l0.1,0.1l0.6-0.7
			l-1.9-1.7l1.8,1.6c0.2,0.2,0.6,0.2,0.8,0l0.6-0.6c0.2-0.2,0.2-0.6,0-0.8l0.1,0.1L23,101L21,99.3l-2.3-2L18.1,98l2.3,2l-2.2-1.9
			c-0.3-0.3-0.7-0.2-1,0.1l-0.3,0.4c-0.3,0.3-0.2,0.7,0.1,1l-0.1-0.1l-0.6,0.7l0.1,0.1c-0.3-0.3-0.7-0.2-1,0.1l-0.3,0.4
			c-0.3,0.3-0.2,0.7,0.1,1l2.2,1.9l-2.3-2l-0.6,0.7l2.3,2l-2.2-1.9c-0.3-0.3-0.7-0.2-1,0.1l-0.3,0.4c-0.3,0.3-0.2,0.7,0.1,1
			l-0.1-0.1l-0.6,0.7l-0.4-0.3l-1,1.1c-0.9-0.7-1.7-1.3-2.6-2c-1.1-0.8-2.3-0.8-2.6,0.1l0,0C5.6,104,6.2,105.2,7.2,105.9z"/>
	</g>
	<g>
		<path class="st18" d="M23.9,101.1l0.6-0.6c0.2-0.2,0.2-0.6,0-0.8l0.1,0.1l0.6-0.7l0.3,0.2l0.5-0.6l6.2,5.5l19.7-3.9
			c0.6-0.1,0.3-1.9-2.1-2.7l0,0c0-0.1-4.6-1.8-8.4,1.9l-5.6,0.7l-4.9-4.4L114,7.6l-0.2,0C99.2,6.5,84,12,75.2,23.6L24.3,90.2
			l-5.4-4.8l0-5.7c3.1-4.3,1-8.6,0.8-8.6l0,0c-1-2.3-2.8-2.3-2.9-1.7l-1.5,20l5.7,5.1l-0.5,0.6l2.7,2.4l-2.3-2l-0.6,0.7l2.3,2
			l-2.2-1.9c-0.3-0.3-0.7-0.2-1,0.1l-0.3,0.4c-0.3,0.3-0.2,0.7,0.1,1l2.2,1.9l1.8,1.6C23.3,101.3,23.7,101.3,23.9,101.1z"/>
		<path class="st18" d="M7.5,106.2c1.6,1.1,3.2,2.4,4.7,3.7c1.5,1.3,2.9,2.8,4.3,4.2c0.8,0.9,2,1.4,2.8,1c0,0,0,0,0,0
			c0.8-0.4,0.7-1.6-0.2-2.6c-0.9-1-1.8-1.9-2.8-2.8l0.9-1.1l-2.2-1.9l1.9,1.7l0.6-0.7l-1.9-1.7l1.8,1.6c0.2,0.2,0.6,0.2,0.8,0
			l0.6-0.6c0.2-0.2,0.2-0.6,0-0.8l0.1,0.1l0.6-0.7l-0.1-0.1c0.2,0.2,0.6,0.2,0.8,0l0.6-0.6c0.2-0.2,0.2-0.6,0-0.8l0.1,0.1l0.6-0.7
			l-1.9-1.7l1.8,1.6c0.2,0.2,0.6,0.2,0.8,0l0.6-0.6c0.2-0.2,0.2-0.6,0-0.8l0.1,0.1l0.6-0.7l-1.9-1.7l-2.3-2l-0.6,0.7l2.3,2l-2.2-1.9
			c-0.3-0.3-0.7-0.2-1,0.1l-0.3,0.4c-0.3,0.3-0.2,0.7,0.1,1l-0.1-0.1l-0.6,0.7l0.1,0.1c-0.3-0.3-0.7-0.2-1,0.1l-0.3,0.4
			c-0.3,0.3-0.2,0.7,0.1,1l2.2,1.9l-2.3-2l-0.6,0.7l2.3,2l-2.2-1.9c-0.3-0.3-0.7-0.2-1,0.1l-0.3,0.4c-0.3,0.3-0.2,0.7,0.1,1
			l-0.1-0.1l-0.6,0.7l-0.4-0.3l-1,1.1c-0.9-0.7-1.7-1.3-2.6-2c-1.1-0.8-2.3-0.8-2.6,0.1l0,0C5.9,104.4,6.5,105.5,7.5,106.2z"/>
	</g>
	<g>
		<path class="st19" d="M24.2,101.4l0.6-0.6c0.2-0.2,0.2-0.6,0-0.8l0.1,0.1l0.6-0.7l0.3,0.2l0.5-0.6l6.2,5.5l19.7-3.9
			c0.6-0.1,0.3-1.9-2.1-2.7l0,0c0-0.1-4.6-1.8-8.4,1.9l-5.6,0.7l-4.9-4.4l83.2-88.3l-0.2,0c-14.6-1.1-29.7,4.4-38.6,16L24.6,90.5
			l-5.4-4.8l0-5.7c3.1-4.3,1-8.6,0.8-8.6l0,0c-1-2.3-2.8-2.3-2.9-1.7l-1.5,20l5.7,5.1l-0.5,0.6l2.7,2.4l-2.3-2l-0.6,0.7l2.3,2
			l-2.2-1.9c-0.3-0.3-0.7-0.2-1,0.1L19.4,97c-0.3,0.3-0.2,0.7,0.1,1l2.2,1.9l1.8,1.6C23.6,101.6,24,101.6,24.2,101.4z"/>
		<path class="st19" d="M7.8,106.5c1.6,1.1,3.2,2.4,4.7,3.7c1.5,1.3,2.9,2.8,4.3,4.2c0.8,0.9,2,1.4,2.8,1c0,0,0,0,0,0
			c0.8-0.4,0.7-1.6-0.2-2.6c-0.9-1-1.8-1.9-2.8-2.8l0.9-1.1l-2.2-1.9l1.9,1.7l0.6-0.7l-1.9-1.7l1.8,1.6c0.2,0.2,0.6,0.2,0.8,0
			l0.6-0.6c0.2-0.2,0.2-0.6,0-0.8l0.1,0.1l0.6-0.7l-0.1-0.1c0.2,0.2,0.6,0.2,0.8,0l0.6-0.6c0.2-0.2,0.2-0.6,0-0.8l0.1,0.1l0.6-0.7
			l-1.9-1.7l1.8,1.6c0.2,0.2,0.6,0.2,0.8,0l0.6-0.6c0.2-0.2,0.2-0.6,0-0.8l0.1,0.1l0.6-0.7l-1.9-1.7l-2.3-2l-0.6,0.7l2.3,2l-2.2-1.9
			c-0.3-0.3-0.7-0.2-1,0.1l-0.3,0.4c-0.3,0.3-0.2,0.7,0.1,1l-0.1-0.1l-0.6,0.7l0.1,0.1c-0.3-0.3-0.7-0.2-1,0.1l-0.3,0.4
			c-0.3,0.3-0.2,0.7,0.1,1l2.2,1.9l-2.3-2l-0.6,0.7l2.3,2l-2.2-1.9c-0.3-0.3-0.7-0.2-1,0.1l-0.3,0.4c-0.3,0.3-0.2,0.7,0.1,1
			l-0.1-0.1l-0.6,0.7l-0.4-0.3l-1,1.1c-0.9-0.7-1.7-1.3-2.6-2c-1.1-0.8-2.3-0.8-2.6,0.1l0,0C6.2,104.7,6.8,105.8,7.8,106.5z"/>
	</g>
	<g>
		<path class="st20" d="M24.5,101.7l0.6-0.6c0.2-0.2,0.2-0.6,0-0.8l0.1,0.1l0.6-0.7L26,100l0.5-0.6l6.2,5.5l19.7-3.9
			c0.6-0.1,0.3-1.9-2.1-2.7l0,0c0-0.1-4.6-1.8-8.4,1.9l-5.6,0.7l-4.9-4.4l83.2-88.3l-0.2,0c-14.6-1.1-29.7,4.4-38.6,16L24.9,90.8
			L19.5,86l0-5.7c3.1-4.3,1-8.6,0.8-8.6l0,0c-1-2.3-2.8-2.3-2.9-1.7L16,90l5.7,5.1l-0.5,0.6l2.7,2.4l-2.3-2l-0.6,0.7l2.3,2l-2.2-1.9
			c-0.3-0.3-0.7-0.2-1,0.1l-0.3,0.4c-0.3,0.3-0.2,0.7,0.1,1l2.2,1.9l1.8,1.6C23.9,101.9,24.3,101.9,24.5,101.7z"/>
		<path class="st20" d="M8.1,106.8c1.6,1.1,3.2,2.4,4.7,3.7c1.5,1.3,2.9,2.8,4.3,4.2c0.8,0.9,2,1.4,2.8,1c0,0,0,0,0,0
			c0.8-0.4,0.7-1.6-0.2-2.6c-0.9-1-1.8-1.9-2.8-2.8l0.9-1.1l-2.2-1.9l1.9,1.7l0.6-0.7l-1.9-1.7l1.8,1.6c0.2,0.2,0.6,0.2,0.8,0
			l0.6-0.6c0.2-0.2,0.2-0.6,0-0.8l0.1,0.1l0.6-0.7l-0.1-0.1c0.2,0.2,0.6,0.2,0.8,0l0.6-0.6c0.2-0.2,0.2-0.6,0-0.8l0.1,0.1L22,104
			l-1.9-1.7l1.8,1.6c0.2,0.2,0.6,0.2,0.8,0l0.6-0.6c0.2-0.2,0.2-0.6,0-0.8l0.1,0.1l0.6-0.7l-1.9-1.7l-2.3-2L19,98.9l2.3,2L19.2,99
			c-0.3-0.3-0.7-0.2-1,0.1l-0.3,0.4c-0.3,0.3-0.2,0.7,0.1,1l-0.1-0.1l-0.6,0.7l0.1,0.1c-0.3-0.3-0.7-0.2-1,0.1l-0.3,0.4
			c-0.3,0.3-0.2,0.7,0.1,1l2.2,1.9l-2.3-2l-0.6,0.7l2.3,2l-2.2-1.9c-0.3-0.3-0.7-0.2-1,0.1l-0.3,0.4c-0.3,0.3-0.2,0.7,0.1,1
			l-0.1-0.1l-0.6,0.7L13,105l-1,1.1c-0.9-0.7-1.7-1.3-2.6-2c-1.1-0.8-2.3-0.8-2.6,0.1l0,0C6.5,105,7.1,106.1,8.1,106.8z"/>
	</g>
	<g>
		<path class="st21" d="M24.8,102l0.6-0.6c0.2-0.2,0.2-0.6,0-0.8l0.1,0.1l0.6-0.7l0.3,0.2l0.5-0.6l6.2,5.5l19.7-3.9
			c0.6-0.1,0.3-1.9-2.1-2.7l0,0c0-0.1-4.6-1.8-8.4,1.9l-5.6,0.7l-4.9-4.4l83.2-88.3l-0.2,0c-14.6-1.1-29.7,4.4-38.6,16L25.2,91.1
			l-5.4-4.8l0-5.7c3.1-4.3,1-8.6,0.8-8.6l0,0c-1-2.3-2.8-2.3-2.9-1.7l-1.5,20l5.7,5.1L21.5,96l2.7,2.4l-2.3-2L21.2,97l2.3,2
			l-2.2-1.9c-0.3-0.3-0.7-0.2-1,0.1L20,97.6c-0.3,0.3-0.2,0.7,0.1,1l2.2,1.9L24,102C24.2,102.2,24.6,102.2,24.8,102z"/>
		<path class="st21" d="M8.4,107.1c1.6,1.1,3.2,2.4,4.7,3.7c1.5,1.3,2.9,2.8,4.3,4.2c0.8,0.9,2,1.4,2.8,1c0,0,0,0,0,0
			c0.8-0.4,0.7-1.6-0.2-2.6c-0.9-1-1.8-1.9-2.8-2.8l0.9-1.1l-2.2-1.9l1.9,1.7l0.6-0.7l-1.9-1.7l1.8,1.6c0.2,0.2,0.6,0.2,0.8,0
			l0.6-0.6c0.2-0.2,0.2-0.6,0-0.8l0.1,0.1l0.6-0.7l-0.1-0.1c0.2,0.2,0.6,0.2,0.8,0l0.6-0.6c0.2-0.2,0.2-0.6,0-0.8l0.1,0.1l0.6-0.7
			l-1.9-1.7l1.8,1.6c0.2,0.2,0.6,0.2,0.8,0l0.6-0.6c0.2-0.2,0.2-0.6,0-0.8l0.1,0.1l0.6-0.7l-1.9-1.7l-2.3-2l-0.6,0.7l2.3,2l-2.2-1.9
			c-0.3-0.3-0.7-0.2-1,0.1l-0.3,0.4c-0.3,0.3-0.2,0.7,0.1,1l-0.1-0.1l-0.6,0.7l0.1,0.1c-0.3-0.3-0.7-0.2-1,0.1l-0.3,0.4
			c-0.3,0.3-0.2,0.7,0.1,1l2.2,1.9l-2.3-2l-0.6,0.7l2.3,2l-2.2-1.9c-0.3-0.3-0.7-0.2-1,0.1l-0.3,0.4c-0.3,0.3-0.2,0.7,0.1,1
			l-0.1-0.1l-0.6,0.7l-0.4-0.3l-1,1.1c-0.9-0.7-1.7-1.3-2.6-2c-1.1-0.8-2.3-0.8-2.6,0.1l0,0C6.8,105.3,7.4,106.4,8.4,107.1z"/>
	</g>
	<g>
		<path class="st22" d="M25.1,102.3l0.6-0.6c0.2-0.2,0.2-0.6,0-0.8l0.1,0.1l0.6-0.7l0.3,0.2l0.5-0.6l6.2,5.5l19.7-3.9
			c0.6-0.1,0.3-1.9-2.1-2.7l0,0c0-0.1-4.6-1.8-8.4,1.9l-5.6,0.7L32,97.1l83.2-88.3l-0.2,0c-14.6-1.1-29.7,4.4-38.6,16L25.5,91.4
			l-5.4-4.8l0-5.7c3.1-4.3,1-8.6,0.8-8.6l0,0c-1-2.3-2.8-2.3-2.9-1.7l-1.5,20l5.7,5.1l-0.5,0.6l2.7,2.4l-2.3-2l-0.6,0.7l2.3,2
			l-2.2-1.9c-0.3-0.3-0.7-0.2-1,0.1l-0.3,0.4c-0.3,0.3-0.2,0.7,0.1,1l2.2,1.9l1.8,1.6C24.5,102.5,24.9,102.5,25.1,102.3z"/>
		<path class="st22" d="M8.7,107.4c1.6,1.1,3.2,2.4,4.7,3.7c1.5,1.3,2.9,2.8,4.3,4.2c0.8,0.9,2,1.4,2.8,1c0,0,0,0,0,0
			c0.8-0.4,0.7-1.6-0.2-2.6c-0.9-1-1.8-1.9-2.8-2.8l0.9-1.1l-2.2-1.9l1.9,1.7l0.6-0.7l-1.9-1.7l1.8,1.6c0.2,0.2,0.6,0.2,0.8,0
			l0.6-0.6c0.2-0.2,0.2-0.6,0-0.8l0.1,0.1l0.6-0.7l-0.1-0.1c0.2,0.2,0.6,0.2,0.8,0l0.6-0.6c0.2-0.2,0.2-0.6,0-0.8l0.1,0.1l0.6-0.7
			l-1.9-1.7l1.8,1.6c0.2,0.2,0.6,0.2,0.8,0l0.6-0.6c0.2-0.2,0.2-0.6,0-0.8l0.1,0.1l0.6-0.7l-1.9-1.7l-2.3-2l-0.6,0.7l2.3,2l-2.2-1.9
			c-0.3-0.3-0.7-0.2-1,0.1l-0.3,0.4c-0.3,0.3-0.2,0.7,0.1,1l-0.1-0.1l-0.6,0.7l0.1,0.1c-0.3-0.3-0.7-0.2-1,0.1l-0.3,0.4
			c-0.3,0.3-0.2,0.7,0.1,1l2.2,1.9l-2.3-2l-0.6,0.7l2.3,2l-2.2-1.9c-0.3-0.3-0.7-0.2-1,0.1l-0.3,0.4c-0.3,0.3-0.2,0.7,0.1,1
			l-0.1-0.1l-0.6,0.7l-0.4-0.3l-1,1.1c-0.9-0.7-1.7-1.3-2.6-2c-1.1-0.8-2.3-0.8-2.6,0.1l0,0C7.1,105.6,7.7,106.7,8.7,107.4z"/>
	</g>
	<g>
		<path class="st23" d="M25.4,102.6l0.6-0.6c0.2-0.2,0.2-0.6,0-0.8l0.1,0.1l0.6-0.7l0.3,0.2l0.5-0.6l6.2,5.5l19.7-3.9
			c0.6-0.1,0.3-1.9-2.1-2.7l0,0c0-0.1-4.6-1.8-8.4,1.9l-5.6,0.7l-4.9-4.4l83.2-88.3l-0.2,0c-14.6-1.1-29.7,4.4-38.6,16L25.8,91.7
			l-5.4-4.8l0-5.7c3.1-4.3,1-8.6,0.8-8.6l0,0c-1-2.3-2.8-2.3-2.9-1.7l-1.5,20l5.7,5.1l-0.5,0.6l2.7,2.4l-2.3-2l-0.6,0.7l2.3,2
			L22,97.8c-0.3-0.3-0.7-0.2-1,0.1l-0.3,0.4c-0.3,0.3-0.2,0.7,0.1,1l2.2,1.9l1.8,1.6C24.8,102.8,25.2,102.8,25.4,102.6z"/>
		<path class="st23" d="M9,107.7c1.6,1.1,3.2,2.4,4.7,3.7c1.5,1.3,2.9,2.8,4.3,4.2c0.8,0.9,2,1.4,2.8,1c0,0,0,0,0,0
			c0.8-0.4,0.7-1.6-0.2-2.6c-0.9-1-1.8-1.9-2.8-2.8l0.9-1.1l-2.2-1.9l1.9,1.7l0.6-0.7l-1.9-1.7l1.8,1.6c0.2,0.2,0.6,0.2,0.8,0
			l0.6-0.6c0.2-0.2,0.2-0.6,0-0.8l0.1,0.1l0.6-0.7l-0.1-0.1c0.2,0.2,0.6,0.2,0.8,0l0.6-0.6c0.2-0.2,0.2-0.6,0-0.8l0.1,0.1l0.6-0.7
			l-1.9-1.7l1.8,1.6c0.2,0.2,0.6,0.2,0.8,0l0.6-0.6c0.2-0.2,0.2-0.6,0-0.8l0.1,0.1l0.6-0.7l-1.9-1.7l-2.3-2l-0.6,0.7l2.3,2l-2.2-1.9
			c-0.3-0.3-0.7-0.2-1,0.1l-0.3,0.4c-0.3,0.3-0.2,0.7,0.1,1l-0.1-0.1l-0.6,0.7l0.1,0.1c-0.3-0.3-0.7-0.2-1,0.1l-0.3,0.4
			c-0.3,0.3-0.2,0.7,0.1,1l2.2,1.9l-2.3-2l-0.6,0.7l2.3,2l-2.2-1.9c-0.3-0.3-0.7-0.2-1,0.1l-0.3,0.4c-0.3,0.3-0.2,0.7,0.1,1
			l-0.1-0.1l-0.6,0.7l-0.4-0.3l-1,1.1c-0.9-0.7-1.7-1.3-2.6-2c-1.1-0.8-2.3-0.8-2.6,0.1l0,0C7.4,105.9,8,107,9,107.7z"/>
	</g>
	<g>
		<path class="st24" d="M25.7,102.9l0.6-0.6c0.2-0.2,0.2-0.6,0-0.8l0.1,0.1l0.6-0.7l0.3,0.2l0.5-0.6l6.2,5.5l19.7-3.9
			c0.6-0.1,0.3-1.9-2.1-2.7l0,0c0-0.1-4.6-1.8-8.4,1.9l-5.6,0.7l-4.9-4.4l83.2-88.3l-0.2,0C101,8.3,85.8,13.8,77,25.4L26.1,92
			l-5.4-4.8l0-5.7c3.1-4.3,1-8.6,0.8-8.6l0,0c-1-2.3-2.8-2.3-2.9-1.7l-1.5,20l5.7,5.1l-0.5,0.6l2.7,2.4l-2.3-2l-0.6,0.7l2.3,2
			l-2.2-1.9c-0.3-0.3-0.7-0.2-1,0.1l-0.3,0.4c-0.3,0.3-0.2,0.7,0.1,1l2.2,1.9l1.8,1.6C25.1,103.1,25.5,103.1,25.7,102.9z"/>
		<path class="st24" d="M9.3,108c1.6,1.1,3.2,2.4,4.7,3.7c1.5,1.3,2.9,2.8,4.3,4.2c0.8,0.9,2,1.4,2.8,1c0,0,0,0,0,0
			c0.8-0.4,0.7-1.6-0.2-2.6c-0.9-1-1.8-1.9-2.8-2.8l0.9-1.1l-2.2-1.9l1.9,1.7l0.6-0.7l-1.9-1.7l1.8,1.6c0.2,0.2,0.6,0.2,0.8,0
			l0.6-0.6c0.2-0.2,0.2-0.6,0-0.8l0.1,0.1l0.6-0.7l-0.1-0.1c0.2,0.2,0.6,0.2,0.8,0l0.6-0.6c0.2-0.2,0.2-0.6,0-0.8l0.1,0.1l0.6-0.7
			l-1.9-1.7l1.8,1.6c0.2,0.2,0.6,0.2,0.8,0l0.6-0.6c0.2-0.2,0.2-0.6,0-0.8l0.1,0.1l0.6-0.7l-1.9-1.7l-2.3-2l-0.6,0.7l2.3,2l-2.2-1.9
			c-0.3-0.3-0.7-0.2-1,0.1l-0.3,0.4c-0.3,0.3-0.2,0.7,0.1,1l-0.1-0.1l-0.6,0.7l0.1,0.1c-0.3-0.3-0.7-0.2-1,0.1l-0.3,0.4
			c-0.3,0.3-0.2,0.7,0.1,1l2.2,1.9l-2.3-2l-0.6,0.7l2.3,2l-2.2-1.9c-0.3-0.3-0.7-0.2-1,0.1l-0.3,0.4c-0.3,0.3-0.2,0.7,0.1,1
			l-0.1-0.1l-0.6,0.7l-0.4-0.3l-1,1.1c-0.9-0.7-1.7-1.3-2.6-2c-1.1-0.8-2.3-0.8-2.6,0.1l0,0C7.7,106.2,8.3,107.3,9.3,108z"/>
	</g>
	<g>
		<path class="st25" d="M26,103.2l0.6-0.6c0.2-0.2,0.2-0.6,0-0.8l0.1,0.1l0.6-0.7l0.3,0.2l0.5-0.6l6.2,5.5l19.7-3.9
			c0.6-0.1,0.3-1.9-2.1-2.7l0,0c0-0.1-4.6-1.8-8.4,1.9l-5.6,0.7L32.9,98l83.2-88.3l-0.2,0c-14.6-1.1-29.7,4.4-38.6,16L26.4,92.3
			L21,87.5l0-5.7c3.1-4.3,1-8.6,0.8-8.6l0,0c-1-2.3-2.8-2.3-2.9-1.7l-1.5,20l5.7,5.1l-0.5,0.6l2.7,2.4l-2.3-2l-0.6,0.7l2.3,2
			l-2.2-1.9c-0.3-0.3-0.7-0.2-1,0.1l-0.3,0.4c-0.3,0.3-0.2,0.7,0.1,1l2.2,1.9l1.8,1.6C25.4,103.4,25.8,103.4,26,103.2z"/>
		<path class="st25" d="M9.6,108.3c1.6,1.1,3.2,2.4,4.7,3.7c1.5,1.3,2.9,2.8,4.3,4.2c0.8,0.9,2,1.4,2.8,1c0,0,0,0,0,0
			c0.8-0.4,0.7-1.6-0.2-2.6c-0.9-1-1.8-1.9-2.8-2.8l0.9-1.1l-2.2-1.9l1.9,1.7l0.6-0.7l-1.9-1.7l1.8,1.6c0.2,0.2,0.6,0.2,0.8,0
			l0.6-0.6c0.2-0.2,0.2-0.6,0-0.8l0.1,0.1l0.6-0.7l-0.1-0.1c0.2,0.2,0.6,0.2,0.8,0l0.6-0.6c0.2-0.2,0.2-0.6,0-0.8l0.1,0.1l0.6-0.7
			l-1.9-1.7l1.8,1.6c0.2,0.2,0.6,0.2,0.8,0l0.6-0.6c0.2-0.2,0.2-0.6,0-0.8l0.1,0.1l0.6-0.7l-1.9-1.7l-2.3-2l-0.6,0.7l2.3,2l-2.2-1.9
			c-0.3-0.3-0.7-0.2-1,0.1l-0.3,0.4c-0.3,0.3-0.2,0.7,0.1,1l-0.1-0.1l-0.6,0.7l0.1,0.1c-0.3-0.3-0.7-0.2-1,0.1l-0.3,0.4
			c-0.3,0.3-0.2,0.7,0.1,1l2.2,1.9l-2.3-2l-0.6,0.7l2.3,2l-2.2-1.9c-0.3-0.3-0.7-0.2-1,0.1l-0.3,0.4c-0.3,0.3-0.2,0.7,0.1,1
			l-0.1-0.1l-0.6,0.7l-0.4-0.3l-1,1.1c-0.9-0.7-1.7-1.3-2.6-2c-1.1-0.8-2.3-0.8-2.6,0.1l0,0C8,106.5,8.6,107.6,9.6,108.3z"/>
	</g>
	<g>
		<path class="st26" d="M26.3,103.5l0.6-0.6c0.2-0.2,0.2-0.6,0-0.8l0.1,0.1l0.6-0.7l0.3,0.2l0.5-0.6l6.2,5.5l19.7-3.9
			c0.6-0.1,0.3-1.9-2.1-2.7l0,0c0-0.1-4.6-1.8-8.4,1.9l-5.6,0.7l-4.9-4.4L116.4,10l-0.2,0c-14.6-1.1-29.7,4.4-38.6,16L26.7,92.6
			l-5.4-4.8l0-5.7c3.1-4.3,1-8.6,0.8-8.6l0,0c-1-2.3-2.8-2.3-2.9-1.7l-1.5,20l5.7,5.1L23,97.5l2.7,2.4l-2.3-2l-0.6,0.7l2.3,2
			l-2.2-1.9c-0.3-0.3-0.7-0.2-1,0.1l-0.3,0.4c-0.3,0.3-0.2,0.7,0.1,1l2.2,1.9l1.8,1.6C25.7,103.7,26.1,103.7,26.3,103.5z"/>
		<path class="st26" d="M9.9,108.6c1.6,1.1,3.2,2.4,4.7,3.7c1.5,1.3,2.9,2.8,4.3,4.2c0.8,0.9,2,1.4,2.8,1c0,0,0,0,0,0
			c0.8-0.4,0.7-1.6-0.2-2.6c-0.9-1-1.8-1.9-2.8-2.8l0.9-1.1l-2.2-1.9l1.9,1.7l0.6-0.7l-1.9-1.7l1.8,1.6c0.2,0.2,0.6,0.2,0.8,0
			l0.6-0.6c0.2-0.2,0.2-0.6,0-0.8l0.1,0.1l0.6-0.7l-0.1-0.1c0.2,0.2,0.6,0.2,0.8,0l0.6-0.6c0.2-0.2,0.2-0.6,0-0.8l0.1,0.1l0.6-0.7
			l-1.9-1.7l1.8,1.6c0.2,0.2,0.6,0.2,0.8,0l0.6-0.6c0.2-0.2,0.2-0.6,0-0.8l0.1,0.1l0.6-0.7l-1.9-1.7l-2.3-2l-0.6,0.7l2.3,2l-2.2-1.9
			c-0.3-0.3-0.7-0.2-1,0.1l-0.3,0.4c-0.3,0.3-0.2,0.7,0.1,1l-0.1-0.1l-0.6,0.7l0.1,0.1c-0.3-0.3-0.7-0.2-1,0.1l-0.3,0.4
			c-0.3,0.3-0.2,0.7,0.1,1l2.2,1.9l-2.3-2l-0.6,0.7l2.3,2l-2.2-1.9c-0.3-0.3-0.7-0.2-1,0.1l-0.3,0.4c-0.3,0.3-0.2,0.7,0.1,1
			l-0.1-0.1l-0.6,0.7l-0.4-0.3l-1,1.1c-0.9-0.7-1.7-1.3-2.6-2c-1.1-0.8-2.3-0.8-2.6,0.1l0,0C8.3,106.8,8.9,107.9,9.9,108.6z"/>
	</g>
	<g>
		<path class="st27" d="M26.6,103.8l0.6-0.6c0.2-0.2,0.2-0.6,0-0.8l0.1,0.1l0.6-0.7l0.3,0.2l0.5-0.6l6.2,5.5l19.7-3.9
			c0.6-0.1,0.3-1.9-2.1-2.7l0,0c0-0.1-4.6-1.8-8.4,1.9l-5.6,0.7l-4.9-4.4l83.2-88.3l-0.2,0c-14.6-1.1-29.7,4.4-38.6,16L27,92.9
			l-5.4-4.8l0-5.7c3.1-4.3,1-8.6,0.8-8.6l0,0c-1-2.3-2.8-2.3-2.9-1.7l-1.5,20l5.7,5.1l-0.5,0.6l2.7,2.4l-2.3-2L23,98.8l2.3,2
			L23.2,99c-0.3-0.3-0.7-0.2-1,0.1l-0.3,0.4c-0.3,0.3-0.2,0.7,0.1,1l2.2,1.9l1.8,1.6C26,104.1,26.4,104,26.6,103.8z"/>
		<path class="st27" d="M10.2,108.9c1.6,1.1,3.2,2.4,4.7,3.7c1.5,1.3,2.9,2.8,4.3,4.2c0.8,0.9,2,1.4,2.8,1c0,0,0,0,0,0
			c0.8-0.4,0.7-1.6-0.2-2.6c-0.9-1-1.8-1.9-2.8-2.8l0.9-1.1l-2.2-1.9l1.9,1.7l0.6-0.7l-1.9-1.7l1.8,1.6c0.2,0.2,0.6,0.2,0.8,0
			l0.6-0.6c0.2-0.2,0.2-0.6,0-0.8l0.1,0.1l0.6-0.7l-0.1-0.1c0.2,0.2,0.6,0.2,0.8,0l0.6-0.6c0.2-0.2,0.2-0.6,0-0.8l0.1,0.1l0.6-0.7
			l-1.9-1.7l1.8,1.6c0.2,0.2,0.6,0.2,0.8,0l0.6-0.6c0.2-0.2,0.2-0.6,0-0.8l0.1,0.1L26,104l-1.9-1.7l-2.3-2l-0.6,0.7l2.3,2l-2.2-1.9
			c-0.3-0.3-0.7-0.2-1,0.1l-0.3,0.4c-0.3,0.3-0.2,0.7,0.1,1l-0.1-0.1l-0.6,0.7l0.1,0.1c-0.3-0.3-0.7-0.2-1,0.1l-0.3,0.4
			c-0.3,0.3-0.2,0.7,0.1,1l2.2,1.9l-2.3-2l-0.6,0.7l2.3,2l-2.2-1.9c-0.3-0.3-0.7-0.2-1,0.1l-0.3,0.4c-0.3,0.3-0.2,0.7,0.1,1
			l-0.1-0.1l-0.6,0.7l-0.4-0.3l-1,1.1c-0.9-0.7-1.7-1.3-2.6-2c-1.1-0.8-2.3-0.8-2.6,0.1l0,0C8.6,107.1,9.2,108.2,10.2,108.9z"/>
	</g>
	<g>
		<path class="st28" d="M26.9,104.1l0.6-0.6c0.2-0.2,0.2-0.6,0-0.8l0.1,0.1l0.6-0.7l0.3,0.2l0.5-0.6l6.2,5.5l19.7-3.9
			c0.6-0.1,0.3-1.9-2.1-2.7l0,0c0-0.1-4.6-1.8-8.4,1.9l-5.6,0.7l-4.9-4.4L117,10.6l-0.2,0c-14.6-1.1-29.7,4.4-38.6,16L27.3,93.2
			l-5.4-4.8l0-5.7c3.1-4.3,1-8.6,0.8-8.6l0,0c-1-2.3-2.8-2.3-2.9-1.7l-1.5,20l5.7,5.1l-0.5,0.6l2.7,2.4l-2.3-2l-0.6,0.7l2.3,2
			l-2.2-1.9c-0.3-0.3-0.7-0.2-1,0.1l-0.3,0.4c-0.3,0.3-0.2,0.7,0.1,1l2.2,1.9l1.8,1.6C26.3,104.4,26.7,104.3,26.9,104.1z"/>
		<path class="st28" d="M10.5,109.2c1.6,1.1,3.2,2.4,4.7,3.7c1.5,1.3,2.9,2.8,4.3,4.2c0.8,0.9,2,1.4,2.8,1c0,0,0,0,0,0
			c0.8-0.4,0.7-1.6-0.2-2.6c-0.9-1-1.8-1.9-2.8-2.8l0.9-1.1l-2.2-1.9l1.9,1.7l0.6-0.7l-1.9-1.7l1.8,1.6c0.2,0.2,0.6,0.2,0.8,0
			l0.6-0.6c0.2-0.2,0.2-0.6,0-0.8l0.1,0.1l0.6-0.7l-0.1-0.1c0.2,0.2,0.6,0.2,0.8,0l0.6-0.6c0.2-0.2,0.2-0.6,0-0.8l0.1,0.1l0.6-0.7
			l-1.9-1.7l1.8,1.6c0.2,0.2,0.6,0.2,0.8,0l0.6-0.6c0.2-0.2,0.2-0.6,0-0.8l0.1,0.1l0.6-0.7l-1.9-1.7l-2.3-2l-0.6,0.7l2.3,2l-2.2-1.9
			c-0.3-0.3-0.7-0.2-1,0.1l-0.3,0.4c-0.3,0.3-0.2,0.7,0.1,1l-0.1-0.1l-0.6,0.7l0.1,0.1c-0.3-0.3-0.7-0.2-1,0.1l-0.3,0.4
			c-0.3,0.3-0.2,0.7,0.1,1l2.2,1.9l-2.3-2l-0.6,0.7l2.3,2l-2.2-1.9c-0.3-0.3-0.7-0.2-1,0.1l-0.3,0.4c-0.3,0.3-0.2,0.7,0.1,1
			l-0.1-0.1l-0.6,0.7l-0.4-0.3l-1,1.1c-0.9-0.7-1.7-1.3-2.6-2c-1.1-0.8-2.3-0.8-2.6,0.1l0,0C8.9,107.4,9.5,108.5,10.5,109.2z"/>
	</g>
	<g>
		<path class="st29" d="M27.2,104.4l0.6-0.6c0.2-0.2,0.2-0.6,0-0.8l0.1,0.1l0.6-0.7l0.3,0.2l0.5-0.6l6.2,5.5l19.7-3.9
			c0.6-0.1,0.3-1.9-2.1-2.7l0,0c0-0.1-4.6-1.8-8.4,1.9l-5.6,0.7l-4.9-4.4l83.2-88.3l-0.2,0c-14.6-1.1-29.7,4.4-38.6,16L27.6,93.5
			l-5.4-4.8l0-5.7c3.1-4.3,1-8.6,0.8-8.6l0,0c-1-2.3-2.8-2.3-2.9-1.7l-1.5,20l5.7,5.1l-0.5,0.6l2.7,2.4l-2.3-2l-0.6,0.7l2.3,2
			l-2.2-1.9c-0.3-0.3-0.7-0.2-1,0.1l-0.3,0.4c-0.3,0.3-0.2,0.7,0.1,1l2.2,1.9l1.8,1.6C26.6,104.7,27,104.6,27.2,104.4z"/>
		<path class="st29" d="M10.8,109.5c1.6,1.1,3.2,2.4,4.7,3.7c1.5,1.3,2.9,2.8,4.3,4.2c0.8,0.9,2,1.4,2.8,1c0,0,0,0,0,0
			c0.8-0.4,0.7-1.6-0.2-2.6c-0.9-1-1.8-1.9-2.8-2.8l0.9-1.1l-2.2-1.9l1.9,1.7l0.6-0.7l-1.9-1.7l1.8,1.6c0.2,0.2,0.6,0.2,0.8,0
			l0.6-0.6c0.2-0.2,0.2-0.6,0-0.8l0.1,0.1l0.6-0.7l-0.1-0.1c0.2,0.2,0.6,0.2,0.8,0l0.6-0.6c0.2-0.2,0.2-0.6,0-0.8l0.1,0.1l0.6-0.7
			l-1.9-1.7l1.8,1.6c0.2,0.2,0.6,0.2,0.8,0l0.6-0.6c0.2-0.2,0.2-0.6,0-0.8l0.1,0.1l0.6-0.7l-1.9-1.7l-2.3-2l-0.6,0.7l2.3,2l-2.2-1.9
			c-0.3-0.3-0.7-0.2-1,0.1l-0.3,0.4c-0.3,0.3-0.2,0.7,0.1,1l-0.1-0.1l-0.6,0.7l0.1,0.1c-0.3-0.3-0.7-0.2-1,0.1l-0.3,0.4
			c-0.3,0.3-0.2,0.7,0.1,1l2.2,1.9l-2.3-2l-0.6,0.7l2.3,2l-2.2-1.9c-0.3-0.3-0.7-0.2-1,0.1l-0.3,0.4c-0.3,0.3-0.2,0.7,0.1,1
			l-0.1-0.1l-0.6,0.7l-0.4-0.3l-1,1.1c-0.9-0.7-1.7-1.3-2.6-2c-1.1-0.8-2.3-0.8-2.6,0.1l0,0C9.2,107.7,9.8,108.8,10.8,109.5z"/>
	</g>
	<g>
		<path class="st30" d="M27.5,104.7l0.6-0.6c0.2-0.2,0.2-0.6,0-0.8l0.1,0.1l0.6-0.7L29,103l0.5-0.6l6.2,5.5l19.7-3.9
			c0.6-0.1,0.3-1.9-2.1-2.7l0,0c0-0.1-4.6-1.8-8.4,1.9l-5.6,0.7l-4.9-4.4l83.2-88.3l-0.2,0c-14.6-1.1-29.7,4.4-38.6,16L27.9,93.8
			L22.5,89l0-5.7c3.1-4.3,1-8.6,0.8-8.6l0,0c-1-2.3-2.8-2.3-2.9-1.7L19,93l5.7,5.1l-0.5,0.6l2.7,2.4l-2.3-2l-0.6,0.7l2.3,2l-2.2-1.9
			c-0.3-0.3-0.7-0.2-1,0.1l-0.3,0.4c-0.3,0.3-0.2,0.7,0.1,1l2.2,1.9l1.8,1.6C26.9,105,27.3,104.9,27.5,104.7z"/>
		<path class="st30" d="M11.1,109.8c1.6,1.1,3.2,2.4,4.7,3.7c1.5,1.3,2.9,2.8,4.3,4.2c0.8,0.9,2,1.4,2.8,1c0,0,0,0,0,0
			c0.8-0.4,0.7-1.6-0.2-2.6c-0.9-1-1.8-1.9-2.8-2.8l0.9-1.1l-2.2-1.9l1.9,1.7l0.6-0.7l-1.9-1.7l1.8,1.6c0.2,0.2,0.6,0.2,0.8,0
			l0.6-0.6c0.2-0.2,0.2-0.6,0-0.8l0.1,0.1l0.6-0.7l-0.1-0.1c0.2,0.2,0.6,0.2,0.8,0l0.6-0.6c0.2-0.2,0.2-0.6,0-0.8l0.1,0.1L25,107
			l-1.9-1.7l1.8,1.6c0.2,0.2,0.6,0.2,0.8,0l0.6-0.6c0.2-0.2,0.2-0.6,0-0.8l0.1,0.1l0.6-0.7l-1.9-1.7l-2.3-2l-0.6,0.7l2.3,2l-2.2-1.9
			c-0.3-0.3-0.7-0.2-1,0.1l-0.3,0.4c-0.3,0.3-0.2,0.7,0.1,1l-0.1-0.1l-0.6,0.7l0.1,0.1c-0.3-0.3-0.7-0.2-1,0.1l-0.3,0.4
			c-0.3,0.3-0.2,0.7,0.1,1l2.2,1.9l-2.3-2l-0.6,0.7l2.3,2l-2.2-1.9c-0.3-0.3-0.7-0.2-1,0.1l-0.3,0.4c-0.3,0.3-0.2,0.7,0.1,1
			l-0.1-0.1l-0.6,0.7L16,108l-1,1.1c-0.9-0.7-1.7-1.3-2.6-2c-1.1-0.8-2.3-0.8-2.6,0.1l0,0C9.5,108,10.1,109.1,11.1,109.8z"/>
	</g>
	<g>
		<path class="st31" d="M27.8,105l0.6-0.6c0.2-0.2,0.2-0.6,0-0.8l0.1,0.1l0.6-0.7l0.3,0.2l0.5-0.6l6.2,5.5l19.7-3.9
			c0.6-0.1,0.3-1.9-2.1-2.7l0,0c0-0.1-4.6-1.8-8.4,1.9l-5.6,0.7l-4.9-4.4l83.2-88.3l-0.2,0c-14.6-1.1-29.7,4.4-38.6,16L28.2,94.1
			l-5.4-4.8l0-5.7c3.1-4.3,1-8.6,0.8-8.6l0,0c-1-2.3-2.8-2.3-2.9-1.7l-1.5,20l5.7,5.1L24.5,99l2.7,2.4l-2.3-2l-0.6,0.7l2.3,2
			l-2.2-1.9c-0.3-0.3-0.7-0.2-1,0.1l-0.3,0.4c-0.3,0.3-0.2,0.7,0.1,1l2.2,1.9l1.8,1.6C27.2,105.3,27.6,105.2,27.8,105z"/>
		<path class="st31" d="M11.4,110.1c1.6,1.1,3.2,2.4,4.7,3.7c1.5,1.3,2.9,2.8,4.3,4.2c0.8,0.9,2,1.4,2.8,1c0,0,0,0,0,0
			c0.8-0.4,0.7-1.6-0.2-2.6c-0.9-1-1.8-1.9-2.8-2.8l0.9-1.1l-2.2-1.9l1.9,1.7l0.6-0.7l-1.9-1.7l1.8,1.6c0.2,0.2,0.6,0.2,0.8,0
			l0.6-0.6c0.2-0.2,0.2-0.6,0-0.8l0.1,0.1l0.6-0.7l-0.1-0.1c0.2,0.2,0.6,0.2,0.8,0l0.6-0.6c0.2-0.2,0.2-0.6,0-0.8l0.1,0.1l0.6-0.7
			l-1.9-1.7l1.8,1.6c0.2,0.2,0.6,0.2,0.8,0l0.6-0.6c0.2-0.2,0.2-0.6,0-0.8l0.1,0.1l0.6-0.7l-1.9-1.7l-2.3-2l-0.6,0.7l2.3,2l-2.2-1.9
			c-0.3-0.3-0.7-0.2-1,0.1l-0.3,0.4c-0.3,0.3-0.2,0.7,0.1,1l-0.1-0.1l-0.6,0.7l0.1,0.1c-0.3-0.3-0.7-0.2-1,0.1l-0.3,0.4
			c-0.3,0.3-0.2,0.7,0.1,1l2.2,1.9l-2.3-2l-0.6,0.7l2.3,2l-2.2-1.9c-0.3-0.3-0.7-0.2-1,0.1l-0.3,0.4c-0.3,0.3-0.2,0.7,0.1,1
			l-0.1-0.1l-0.6,0.7l-0.4-0.3l-1,1.1c-0.9-0.7-1.7-1.3-2.6-2c-1.1-0.8-2.3-0.8-2.6,0.1l0,0C9.8,108.3,10.4,109.4,11.4,110.1z"/>
	</g>
	<g>
		<path class="st32" d="M28.1,105.3l0.6-0.6c0.2-0.2,0.2-0.6,0-0.8l0.1,0.1l0.6-0.7l0.3,0.2l0.5-0.6l6.2,5.5l19.7-3.9
			c0.6-0.1,0.3-1.9-2.1-2.7l0,0c0-0.1-4.6-1.8-8.4,1.9l-5.6,0.7l-4.9-4.4l83.2-88.3l-0.2,0c-14.6-1.1-29.7,4.4-38.6,16L28.5,94.4
			l-5.4-4.8l0-5.7c3.1-4.3,1-8.6,0.8-8.6l0,0c-1-2.3-2.8-2.3-2.9-1.7l-1.5,20l5.7,5.1l-0.5,0.6l2.7,2.4l-2.3-2l-0.6,0.7l2.3,2
			l-2.2-1.9c-0.3-0.3-0.7-0.2-1,0.1l-0.3,0.4c-0.3,0.3-0.2,0.7,0.1,1l2.2,1.9l1.8,1.6C27.5,105.6,27.9,105.5,28.1,105.3z"/>
		<path class="st32" d="M11.7,110.4c1.6,1.1,3.2,2.4,4.7,3.7c1.5,1.3,2.9,2.8,4.3,4.2c0.8,0.9,2,1.4,2.8,1c0,0,0,0,0,0
			c0.8-0.4,0.7-1.6-0.2-2.6c-0.9-1-1.8-1.9-2.8-2.8l0.9-1.1l-2.2-1.9l1.9,1.7l0.6-0.7l-1.9-1.7l1.8,1.6c0.2,0.2,0.6,0.2,0.8,0
			l0.6-0.6c0.2-0.2,0.2-0.6,0-0.8l0.1,0.1l0.6-0.7l-0.1-0.1c0.2,0.2,0.6,0.2,0.8,0l0.6-0.6c0.2-0.2,0.2-0.6,0-0.8l0.1,0.1l0.6-0.7
			l-1.9-1.7l1.8,1.6c0.2,0.2,0.6,0.2,0.8,0l0.6-0.6c0.2-0.2,0.2-0.6,0-0.8l0.1,0.1l0.6-0.7l-1.9-1.7l-2.3-2l-0.6,0.7l2.3,2l-2.2-1.9
			c-0.3-0.3-0.7-0.2-1,0.1l-0.3,0.4c-0.3,0.3-0.2,0.7,0.1,1l-0.1-0.1l-0.6,0.7l0.1,0.1c-0.3-0.3-0.7-0.2-1,0.1l-0.3,0.4
			c-0.3,0.3-0.2,0.7,0.1,1l2.2,1.9l-2.3-2l-0.6,0.7l2.3,2l-2.2-1.9c-0.3-0.3-0.7-0.2-1,0.1l-0.3,0.4c-0.3,0.3-0.2,0.7,0.1,1
			l-0.1-0.1l-0.6,0.7l-0.4-0.3l-1,1.1c-0.9-0.7-1.7-1.3-2.6-2c-1.1-0.8-2.3-0.8-2.6,0.1l0,0C10.1,108.6,10.7,109.7,11.7,110.4z"/>
	</g>
</g>
<g>
	<g>
		<path class="st0" d="M119.5,116.9c-1-1-2.5-1.3-3.8-0.7c-0.4,0.2-0.7,0.4-1.1,0.7l0,0c0.3-0.3,0.7-0.5,1.1-0.7
			c-3.7-6.6-8.3-12.6-14.1-17.3l2.2-2.2l4.5-10.7l-2.1-1.2h-1.1l-6.3,8L24.3,20.4l-11.6-5.6l5.6,11.6l9.1,9.4l4.4,4.5l8.1,8.3
			l8.3,8.5L90.6,101l-8,6v1.4l8.8-6.6l0,0l-8.8,6.6l1.2,2.1l10.7-4.5l2.1-2.1c4.8,5.8,10.8,10.4,17.3,14.1c-0.5,1.2-0.3,2.7,0.7,3.7
			c1.3,1.3,3.5,1.3,4.8,0C120.9,120.4,120.9,118.3,119.5,116.9z"/>
		<path class="st1" d="M119.8,116.6c-1-1-2.5-1.3-3.8-0.7c-0.4,0.2-0.7,0.4-1.1,0.7l0,0c0.3-0.3,0.7-0.5,1.1-0.7
			c-3.7-6.6-8.3-12.6-14.1-17.3l2.2-2.2l4.5-10.7l-2.1-1.2h-1.1l-6.3,8L24.6,20.1L13,14.6l5.6,11.6l9.1,9.4l4.4,4.5l8.1,8.3l8.3,8.5
			l42.5,43.8l-8,6v1.4l8.8-6.6l0,0l-8.8,6.6l1.2,2.1l10.7-4.5l2.1-2.1c4.8,5.8,10.8,10.4,17.3,14.1c-0.5,1.2-0.3,2.7,0.7,3.7
			c1.3,1.3,3.5,1.3,4.8,0C121.2,120.1,121.2,118,119.8,116.6z"/>
		<path class="st2" d="M120.1,116.3c-1-1-2.5-1.3-3.8-0.7c-0.4,0.2-0.7,0.4-1.1,0.7l0,0c0.3-0.3,0.7-0.5,1.1-0.7
			c-3.7-6.6-8.3-12.6-14.1-17.3l2.2-2.2l4.5-10.7l-2.1-1.2h-1.1l-6.3,8L24.9,19.8l-11.6-5.6l5.6,11.6l9.1,9.4l4.4,4.5l8.1,8.3
			l8.3,8.5l42.5,43.8l-8,6v1.4l8.8-6.6l0,0l-8.8,6.6l1.2,2.1l10.7-4.5l2.1-2.1c4.8,5.8,10.8,10.4,17.3,14.1
			c-0.5,1.2-0.3,2.7,0.7,3.7c1.3,1.3,3.5,1.3,4.8,0C121.5,119.8,121.5,117.7,120.1,116.3z"/>
		<path class="st3" d="M120.4,116c-1-1-2.5-1.3-3.8-0.7c-0.4,0.2-0.7,0.4-1.1,0.7l0,0c0.3-0.3,0.7-0.5,1.1-0.7
			c-3.7-6.6-8.3-12.6-14.1-17.3l2.2-2.2l4.5-10.7l-2.1-1.2H106l-6.3,8L25.2,19.5L13.6,14l5.6,11.6l9.1,9.4l4.4,4.5l8.1,8.3l8.3,8.5
			l42.5,43.8l-8,6v1.4l8.8-6.6l0,0l-8.8,6.6l1.2,2.1l10.7-4.5l2.1-2.1c4.8,5.8,10.8,10.4,17.3,14.1c-0.5,1.2-0.3,2.7,0.7,3.7
			c1.3,1.3,3.5,1.3,4.8,0C121.8,119.5,121.8,117.4,120.4,116z"/>
		<path class="st4" d="M120.7,115.7c-1-1-2.5-1.3-3.8-0.7c-0.4,0.2-0.7,0.4-1.1,0.7l0,0c0.3-0.3,0.7-0.5,1.1-0.7
			c-3.7-6.6-8.3-12.6-14.1-17.3l2.2-2.2l4.5-10.7l-2.1-1.2h-1.1l-6.3,8L25.5,19.2l-11.6-5.6l5.6,11.6l9.1,9.4l4.4,4.5l8.1,8.3
			l8.3,8.5l42.5,43.8l-8,6v1.4l8.8-6.6l0,0l-8.8,6.6l1.2,2.1l10.7-4.5l2.1-2.1c4.8,5.8,10.8,10.4,17.3,14.1
			c-0.5,1.2-0.3,2.7,0.7,3.7c1.3,1.3,3.5,1.3,4.8,0C122.1,119.2,122.1,117.1,120.7,115.7z"/>
		<path class="st5" d="M121,115.4c-1-1-2.5-1.3-3.8-0.7c-0.4,0.2-0.7,0.4-1.1,0.7l0,0c0.3-0.3,0.7-0.5,1.1-0.7
			c-3.7-6.6-8.3-12.6-14.1-17.3l2.2-2.2l4.5-10.7l-2.1-1.2h-1.1l-6.3,8L25.8,18.9l-11.6-5.6L19.7,25l9.1,9.4l4.4,4.5l8.1,8.3
			l8.3,8.5l42.5,43.8l-8,6v1.4l8.8-6.6l0,0l-8.8,6.6l1.2,2.1l10.7-4.5l2.1-2.1c4.8,5.8,10.8,10.4,17.3,14.1
			c-0.5,1.2-0.3,2.7,0.7,3.7c1.3,1.3,3.5,1.3,4.8,0C122.4,118.9,122.4,116.8,121,115.4z"/>
		<path class="st6" d="M121.4,115.1c-1-1-2.5-1.3-3.8-0.7c-0.4,0.2-0.7,0.4-1.1,0.7l0,0c0.3-0.3,0.7-0.5,1.1-0.7
			c-3.7-6.6-8.3-12.6-14.1-17.3l2.2-2.2l4.5-10.7l-2.1-1.2h-1.1l-6.3,8L26.1,18.6L14.5,13L20,24.7l9.1,9.4l4.4,4.5l8.1,8.3l8.3,8.5
			l42.5,43.8l-8,6v1.4l8.8-6.6l0,0l-8.8,6.6l1.2,2.1l10.7-4.5l2.1-2.1c4.8,5.8,10.8,10.4,17.3,14.1c-0.5,1.2-0.3,2.7,0.7,3.7
			c1.3,1.3,3.5,1.3,4.8,0C122.7,118.6,122.7,116.5,121.4,115.1z"/>
		<path class="st7" d="M121.7,114.8c-1-1-2.5-1.3-3.8-0.7c-0.4,0.2-0.7,0.4-1.1,0.7l0,0c0.3-0.3,0.7-0.5,1.1-0.7
			c-3.7-6.6-8.3-12.6-14.1-17.3l2.2-2.2l4.5-10.7l-2.1-1.2h-1.1l-6.3,8L26.4,18.3l-11.6-5.6l5.6,11.6l9.1,9.4l4.4,4.5l8.1,8.3
			l8.3,8.5l42.5,43.8l-8,6v1.4l8.8-6.6l0,0l-8.8,6.6l1.2,2.1l10.7-4.5l2.1-2.1c4.8,5.8,10.8,10.4,17.3,14.1
			c-0.5,1.2-0.3,2.7,0.7,3.7c1.3,1.3,3.5,1.3,4.8,0C123,118.3,123,116.2,121.7,114.8z"/>
		<path class="st8" d="M122,114.5c-1-1-2.5-1.3-3.8-0.7c-0.4,0.2-0.7,0.4-1.1,0.7l0,0c0.3-0.3,0.7-0.5,1.1-0.7
			c-3.7-6.6-8.3-12.6-14.1-17.3l2.2-2.2l4.5-10.7l-2.1-1.2h-1.1l-6.3,8L26.7,18l-11.6-5.6l5.6,11.6l9.1,9.4l4.4,4.5l8.1,8.3l8.3,8.5
			L93,98.6l-8,6v1.4l8.8-6.6l0,0L85,106l1.2,2.1l10.7-4.5l2.1-2.1c4.8,5.8,10.8,10.4,17.3,14.1c-0.5,1.2-0.3,2.7,0.7,3.7
			c1.3,1.3,3.5,1.3,4.8,0C123.3,118,123.3,115.9,122,114.5z"/>
		<path class="st9" d="M122.3,114.2c-1-1-2.5-1.3-3.8-0.7c-0.4,0.2-0.7,0.4-1.1,0.7l0,0c0.3-0.3,0.7-0.5,1.1-0.7
			c-3.7-6.6-8.3-12.6-14.1-17.3l2.2-2.2l4.5-10.7l-2.1-1.2h-1.1l-6.3,8L27,17.7l-11.6-5.6l5.6,11.6l9.1,9.4l4.4,4.5l8.1,8.3l8.3,8.5
			l42.5,43.8l-8,6v1.4l8.8-6.6l0,0l-8.8,6.6l1.2,2.1l10.7-4.5l2.1-2.1c4.8,5.8,10.8,10.4,17.3,14.1c-0.5,1.2-0.3,2.7,0.7,3.7
			c1.3,1.3,3.5,1.3,4.8,0C123.6,117.7,123.6,115.6,122.3,114.2z"/>
		<path class="st10" d="M122.6,113.9c-1-1-2.5-1.3-3.8-0.7c-0.4,0.2-0.7,0.4-1.1,0.7l0,0c0.3-0.3,0.7-0.5,1.1-0.7
			c-3.7-6.6-8.3-12.6-14.1-17.3l2.2-2.2l4.5-10.7l-2.1-1.2h-1.1l-6.3,8L27.3,17.4l-11.6-5.6l5.6,11.6l9.1,9.4l4.4,4.5l8.1,8.3
			l8.3,8.5L93.6,98l-8,6v1.4l8.8-6.6l0,0l-8.8,6.6l1.2,2.1l10.7-4.5l2.1-2.1c4.8,5.8,10.8,10.4,17.3,14.1c-0.5,1.2-0.3,2.7,0.7,3.7
			c1.3,1.3,3.5,1.3,4.8,0C123.9,117.4,123.9,115.2,122.6,113.9z"/>
		<path class="st11" d="M122.9,113.6c-1-1-2.5-1.3-3.8-0.7c-0.4,0.2-0.7,0.4-1.1,0.7l0,0c0.3-0.3,0.7-0.5,1.1-0.7
			c-3.7-6.6-8.3-12.6-14.1-17.3l2.2-2.2l4.5-10.7l-2.1-1.2h-1.1l-6.3,8L27.6,17.1L16,11.5l5.6,11.6l9.1,9.4l4.4,4.5l8.1,8.3l8.3,8.5
			l42.5,43.8l-8,6v1.4l8.8-6.6l0,0l-8.8,6.6l1.2,2.1l10.7-4.5l2.1-2.1c4.8,5.8,10.8,10.4,17.3,14.1c-0.5,1.2-0.3,2.7,0.7,3.7
			c1.3,1.3,3.5,1.3,4.8,0C124.2,117.1,124.2,114.9,122.9,113.6z"/>
		<path class="st12" d="M123.2,113.3c-1-1-2.5-1.3-3.8-0.7c-0.4,0.2-0.7,0.4-1.1,0.7l0,0c0.3-0.3,0.7-0.5,1.1-0.7
			c-3.7-6.6-8.3-12.6-14.1-17.3l2.2-2.2l4.5-10.7l-2.1-1.2h-1.1l-6.3,8L27.9,16.8l-11.6-5.6l5.6,11.6l9.1,9.4l4.4,4.5l8.1,8.3
			l8.3,8.5l42.5,43.8l-8,6v1.4l8.8-6.6l0,0l-8.8,6.6l1.2,2.1l10.7-4.5l2.1-2.1c4.8,5.8,10.8,10.4,17.3,14.1
			c-0.5,1.2-0.3,2.7,0.7,3.7c1.3,1.3,3.5,1.3,4.8,0C124.5,116.8,124.5,114.6,123.2,113.3z"/>
		<path class="st13" d="M123.5,113c-1-1-2.5-1.3-3.8-0.7c-0.4,0.2-0.7,0.4-1.1,0.7l0,0c0.3-0.3,0.7-0.5,1.1-0.7
			c-3.7-6.6-8.3-12.6-14.1-17.3l2.2-2.2l4.5-10.7l-2.1-1.2H109l-6.3,8L28.2,16.5l-11.6-5.6l5.6,11.6l9.1,9.4l4.4,4.5l8.1,8.3
			l8.3,8.5l42.5,43.8l-8,6v1.4l8.8-6.6l0,0l-8.8,6.6l1.2,2.1l10.7-4.5l2.1-2.1c4.8,5.8,10.8,10.4,17.3,14.1
			c-0.5,1.2-0.3,2.7,0.7,3.7c1.3,1.3,3.5,1.3,4.8,0C124.8,116.5,124.8,114.3,123.5,113z"/>
		<path class="st14" d="M123.8,112.7c-1-1-2.5-1.3-3.8-0.7c-0.4,0.2-0.7,0.4-1.1,0.7l0,0c0.3-0.3,0.7-0.5,1.1-0.7
			c-3.7-6.6-8.3-12.6-14.1-17.3l2.2-2.2l4.5-10.7l-2.1-1.2h-1.1l-6.3,8L28.5,16.2l-11.6-5.6l5.6,11.6l9.1,9.4l4.4,4.5l8.1,8.3
			l8.3,8.5l42.5,43.8l-8,6v1.4l8.8-6.6l0,0l-8.8,6.6l1.2,2.1l10.7-4.5l2.1-2.1c4.8,5.8,10.8,10.4,17.3,14.1
			c-0.5,1.2-0.3,2.7,0.7,3.7c1.3,1.3,3.5,1.3,4.8,0C125.1,116.2,125.1,114,123.8,112.7z"/>
		<path class="st15" d="M124.1,112.4c-1-1-2.5-1.3-3.8-0.7c-0.4,0.2-0.7,0.4-1.1,0.7l0,0c0.3-0.3,0.7-0.5,1.1-0.7
			c-3.7-6.6-8.3-12.6-14.1-17.3l2.2-2.2l4.5-10.7l-2.1-1.2h-1.1l-6.3,8L28.8,15.9l-11.6-5.6l5.6,11.6l9.1,9.4l4.4,4.5l8.1,8.3
			l8.3,8.5l42.5,43.8l-8,6v1.4l8.8-6.6l0,0l-8.8,6.6l1.2,2.1l10.7-4.5l2.1-2.1c4.8,5.8,10.8,10.4,17.3,14.1
			c-0.5,1.2-0.3,2.7,0.7,3.7c1.3,1.3,3.5,1.3,4.8,0C125.4,115.9,125.4,113.7,124.1,112.4z"/>
		<path class="st16" d="M124.4,112.1c-1-1-2.5-1.3-3.8-0.7c-0.4,0.2-0.7,0.4-1.1,0.7l0,0c0.3-0.3,0.7-0.5,1.1-0.7
			c-3.7-6.6-8.3-12.6-14.1-17.3l2.2-2.2l4.5-10.7l-2.1-1.2h-1.1l-6.3,8L29.1,15.6L17.5,10L23,21.6l9.1,9.4l4.4,4.5l8.1,8.3l8.3,8.5
			l42.5,43.8l-8,6v1.4l8.8-6.6l0,0l-8.8,6.6l1.2,2.1l10.7-4.5l2.1-2.1c4.8,5.8,10.8,10.4,17.3,14.1c-0.5,1.2-0.3,2.7,0.7,3.7
			c1.3,1.3,3.5,1.3,4.8,0C125.7,115.6,125.7,113.4,124.4,112.1z"/>
		<path class="st17" d="M124.7,111.8c-1-1-2.5-1.3-3.8-0.7c-0.4,0.2-0.7,0.4-1.1,0.7l0,0c0.3-0.3,0.7-0.5,1.1-0.7
			c-3.7-6.6-8.3-12.6-14.1-17.3l2.2-2.2l4.5-10.7l-2.1-1.2h-1.1l-6.3,8L29.4,15.3L17.8,9.7l5.6,11.6l9.1,9.4l4.4,4.5l8.1,8.3
			l8.3,8.5l42.5,43.8l-8,6v1.4l8.8-6.6l0,0l-8.8,6.6l1.2,2.1l10.7-4.5l2.1-2.1c4.8,5.8,10.8,10.4,17.3,14.1
			c-0.5,1.2-0.3,2.7,0.7,3.7c1.3,1.3,3.5,1.3,4.8,0C126,115.3,126,113.1,124.7,111.8z"/>
		<path class="st18" d="M125,111.5c-1-1-2.5-1.3-3.8-0.7c-0.4,0.2-0.7,0.4-1.1,0.7l0,0c0.3-0.3,0.7-0.5,1.1-0.7
			c-3.7-6.6-8.3-12.6-14.1-17.3l2.2-2.2l4.5-10.7l-2.1-1.2h-1.1l-6.3,8L29.7,15L18.1,9.4L23.6,21l9.1,9.4l4.4,4.5l8.1,8.3l8.3,8.5
			L96,95.6l-8,6v1.4l8.8-6.6l0,0L88,103l1.2,2.1l10.7-4.5l2.1-2.1c4.8,5.8,10.8,10.4,17.3,14.1c-0.5,1.2-0.3,2.7,0.7,3.7
			c1.3,1.3,3.5,1.3,4.8,0C126.3,115,126.3,112.8,125,111.5z"/>
		<path class="st19" d="M125.3,111.2c-1-1-2.5-1.3-3.8-0.7c-0.4,0.2-0.7,0.4-1.1,0.7l0,0c0.3-0.3,0.7-0.5,1.1-0.7
			c-3.7-6.6-8.3-12.6-14.1-17.3l2.2-2.2l4.5-10.7l-2.1-1.2h-1.1l-6.3,8L30,14.7L18.4,9.1l5.6,11.6l9.1,9.4l4.4,4.5l8.1,8.3l8.3,8.5
			l42.5,43.8l-8,6v1.4l8.8-6.6l0,0l-8.8,6.6l1.2,2.1l10.7-4.5l2.1-2.1c4.8,5.8,10.8,10.4,17.3,14.1c-0.5,1.2-0.3,2.7,0.7,3.7
			c1.3,1.3,3.5,1.3,4.8,0C126.6,114.7,126.6,112.5,125.3,111.2z"/>
		<path class="st20" d="M125.6,110.9c-1-1-2.5-1.3-3.8-0.7c-0.4,0.2-0.7,0.4-1.1,0.7l0,0c0.3-0.3,0.7-0.5,1.1-0.7
			c-3.7-6.6-8.3-12.6-14.1-17.3l2.2-2.2l4.5-10.7l-2.1-1.2h-1.1l-6.3,8L30.3,14.4L18.7,8.8l5.6,11.6l9.1,9.4l4.4,4.5l8.1,8.3
			l8.3,8.5L96.6,95l-8,6v1.4l8.8-6.6l0,0l-8.8,6.6l1.2,2.1l10.7-4.5l2.1-2.1c4.8,5.8,10.8,10.4,17.3,14.1c-0.5,1.2-0.3,2.7,0.7,3.7
			c1.3,1.3,3.5,1.3,4.8,0C126.9,114.4,126.9,112.2,125.6,110.9z"/>
		<path class="st21" d="M125.9,110.6c-1-1-2.5-1.3-3.8-0.7c-0.4,0.2-0.7,0.4-1.1,0.7l0,0c0.3-0.3,0.7-0.5,1.1-0.7
			c-3.7-6.6-8.3-12.6-14.1-17.3l2.2-2.2l4.5-10.7l-2.1-1.2h-1.1l-6.3,8L30.6,14.1L19,8.5l5.6,11.6l9.1,9.4L38,34l8.1,8.3l8.3,8.5
			l42.5,43.8l-8,6v1.4l8.8-6.6l0,0l-8.8,6.6l1.2,2.1l10.7-4.5l2.1-2.1c4.8,5.8,10.8,10.4,17.3,14.1c-0.5,1.2-0.3,2.7,0.7,3.7
			c1.3,1.3,3.5,1.3,4.8,0C127.2,114.1,127.2,111.9,125.9,110.6z"/>
		<path class="st22" d="M126.2,110.3c-1-1-2.5-1.3-3.8-0.7c-0.4,0.2-0.7,0.4-1.1,0.7l0,0c0.3-0.3,0.7-0.5,1.1-0.7
			c-3.7-6.6-8.3-12.6-14.1-17.3l2.2-2.2l4.5-10.7l-2.1-1.2h-1.1l-6.3,8L30.9,13.8L19.3,8.2l5.6,11.6l9.1,9.4l4.4,4.5l8.1,8.3
			l8.3,8.5l42.5,43.8l-8,6v1.4l8.8-6.6l0,0l-8.8,6.6l1.2,2.1l10.7-4.5l2.1-2.1c4.8,5.8,10.8,10.4,17.3,14.1
			c-0.5,1.2-0.3,2.7,0.7,3.7c1.3,1.3,3.5,1.3,4.8,0C127.5,113.8,127.5,111.6,126.2,110.3z"/>
		<path class="st23" d="M126.5,110c-1-1-2.5-1.3-3.8-0.7c-0.4,0.2-0.7,0.4-1.1,0.7l0,0c0.3-0.3,0.7-0.5,1.1-0.7
			c-3.7-6.6-8.3-12.6-14.1-17.3l2.2-2.2l4.5-10.7l-2.1-1.2H112l-6.3,8L31.2,13.5L19.6,7.9l5.6,11.6l9.1,9.4l4.4,4.5l8.1,8.3l8.3,8.5
			l42.5,43.8l-8,6v1.4l8.8-6.6l0,0l-8.8,6.6l1.2,2.1l10.7-4.5l2.1-2.1c4.8,5.8,10.8,10.4,17.3,14.1c-0.5,1.2-0.3,2.7,0.7,3.7
			c1.3,1.3,3.5,1.3,4.8,0C127.8,113.5,127.8,111.3,126.5,110z"/>
		<path class="st24" d="M126.8,109.7c-1-1-2.5-1.3-3.8-0.7c-0.4,0.2-0.7,0.4-1.1,0.7l0,0c0.3-0.3,0.7-0.5,1.1-0.7
			c-3.7-6.6-8.3-12.6-14.1-17.3l2.2-2.2l4.5-10.7l-2.1-1.2h-1.1l-6.3,8L31.5,13.2L19.9,7.6l5.6,11.6l9.1,9.4l4.4,4.5l8.1,8.3
			l8.3,8.5l42.5,43.8l-8,6v1.4l8.8-6.6l0,0l-8.8,6.6l1.2,2.1l10.7-4.5l2.1-2.1c4.8,5.8,10.8,10.4,17.3,14.1
			c-0.5,1.2-0.3,2.7,0.7,3.7c1.3,1.3,3.5,1.3,4.8,0C128.1,113.2,128.1,111,126.8,109.7z"/>
		<path class="st25" d="M127.1,109.4c-1-1-2.5-1.3-3.8-0.7c-0.4,0.2-0.7,0.4-1.1,0.7l0,0c0.3-0.3,0.7-0.5,1.1-0.7
			c-3.7-6.6-8.3-12.6-14.1-17.3l2.2-2.2l4.5-10.7l-2.1-1.2h-1.1l-6.3,8L31.8,12.9L20.2,7.3l5.6,11.6l9.1,9.4l4.4,4.5l8.1,8.3
			l8.3,8.5l42.5,43.8l-8,6v1.4l8.8-6.6l0,0l-8.8,6.6l1.2,2.1l10.7-4.5l2.1-2.1c4.8,5.8,10.8,10.4,17.3,14.1
			c-0.5,1.2-0.3,2.7,0.7,3.7c1.3,1.3,3.5,1.3,4.8,0C128.4,112.9,128.4,110.7,127.1,109.4z"/>
		<path class="st26" d="M127.4,109.1c-1-1-2.5-1.3-3.8-0.7c-0.4,0.2-0.7,0.4-1.1,0.7l0,0c0.3-0.3,0.7-0.5,1.1-0.7
			c-3.7-6.6-8.3-12.6-14.1-17.3l2.2-2.2l4.5-10.7l-2.1-1.2h-1.1l-6.3,8L32.1,12.6L20.5,7L26,18.6l9.1,9.4l4.4,4.5l8.1,8.3l8.3,8.5
			l42.5,43.8l-8,6v1.4l8.8-6.6l0,0l-8.8,6.6l1.2,2.1l10.7-4.5l2.1-2.1c4.8,5.8,10.8,10.4,17.3,14.1c-0.5,1.2-0.3,2.7,0.7,3.7
			c1.3,1.3,3.5,1.3,4.8,0C128.7,112.6,128.7,110.4,127.4,109.1z"/>
		<path class="st27" d="M127.7,108.8c-1-1-2.5-1.3-3.8-0.7c-0.4,0.2-0.7,0.4-1.1,0.7l0,0c0.3-0.3,0.7-0.5,1.1-0.7
			c-3.7-6.6-8.3-12.6-14.1-17.3l2.2-2.2l4.5-10.7l-2.1-1.2h-1.1l-6.3,8L32.4,12.3L20.8,6.7l5.6,11.6l9.1,9.4l4.4,4.5l8.1,8.3
			l8.3,8.5l42.5,43.8l-8,6v1.4l8.8-6.6l0,0l-8.8,6.6l1.2,2.1l10.7-4.5l2.1-2.1c4.8,5.8,10.8,10.4,17.3,14.1
			c-0.5,1.2-0.3,2.7,0.7,3.7c1.3,1.3,3.5,1.3,4.8,0C129,112.3,129,110.1,127.7,108.8z"/>
		<path class="st28" d="M128,108.5c-1-1-2.5-1.3-3.8-0.7c-0.4,0.2-0.7,0.4-1.1,0.7l0,0c0.3-0.3,0.7-0.5,1.1-0.7
			c-3.7-6.6-8.3-12.6-14.1-17.3l2.2-2.2l4.5-10.7l-2.1-1.2h-1.1l-6.3,8L32.7,12L21.1,6.4L26.6,18l9.1,9.4l4.4,4.5l8.1,8.3l8.3,8.5
			L99,92.6l-8,6v1.4l8.8-6.6l0,0l-8.8,6.6l1.2,2.1l10.7-4.5l2.1-2.1c4.8,5.8,10.8,10.4,17.3,14.1c-0.5,1.2-0.3,2.7,0.7,3.7
			c1.3,1.3,3.5,1.3,4.8,0C129.3,112,129.3,109.8,128,108.5z"/>
		<path class="st29" d="M128.3,108.2c-1-1-2.5-1.3-3.8-0.7c-0.4,0.2-0.7,0.4-1.1,0.7l0,0c0.3-0.3,0.7-0.5,1.1-0.7
			c-3.7-6.6-8.3-12.6-14.1-17.3l2.2-2.2l4.5-10.7l-2.1-1.2h-1.1l-6.3,8L33,11.7L21.4,6.1l5.6,11.6l9.1,9.4l4.4,4.5l8.1,8.3l8.3,8.5
			l42.5,43.8l-8,6v1.4l8.8-6.6l0,0l-8.8,6.6l1.2,2.1l10.7-4.5l2.1-2.1c4.8,5.8,10.8,10.4,17.3,14.1c-0.5,1.2-0.3,2.7,0.7,3.7
			c1.3,1.3,3.5,1.3,4.8,0C129.6,111.7,129.6,109.5,128.3,108.2z"/>
		<path class="st30" d="M128.6,107.9c-1-1-2.5-1.3-3.8-0.7c-0.4,0.2-0.7,0.4-1.1,0.7l0,0c0.3-0.3,0.7-0.5,1.1-0.7
			c-3.7-6.6-8.3-12.6-14.1-17.3l2.2-2.2l4.5-10.7l-2.1-1.2h-1.1l-6.3,8L33.3,11.4L21.7,5.8l5.6,11.6l9.1,9.4l4.4,4.5l8.1,8.3
			l8.3,8.5L99.6,92l-8,6v1.4l8.8-6.6l0,0l-8.8,6.6l1.2,2.1l10.7-4.5l2.1-2.1c4.8,5.8,10.8,10.4,17.3,14.1c-0.5,1.2-0.3,2.7,0.7,3.7
			c1.3,1.3,3.5,1.3,4.8,0C129.9,111.4,129.9,109.2,128.6,107.9z"/>
		<path class="st31" d="M128.9,107.6c-1-1-2.5-1.3-3.8-0.7c-0.4,0.2-0.7,0.4-1.1,0.7l0,0c0.3-0.3,0.7-0.5,1.1-0.7
			c-3.7-6.6-8.3-12.6-14.1-17.3l2.2-2.2l4.5-10.7l-2.1-1.2h-1.1l-6.3,8L33.6,11.1L22,5.5l5.6,11.6l9.1,9.4L41,31l8.1,8.3l8.3,8.5
			l42.5,43.8l-8,6v1.4l8.8-6.6l0,0L92,99.1l1.2,2.1l10.7-4.5l2.1-2.1c4.8,5.8,10.8,10.4,17.3,14.1c-0.5,1.2-0.3,2.7,0.7,3.7
			c1.3,1.3,3.5,1.3,4.8,0C130.2,111.1,130.2,108.9,128.9,107.6z"/>
		<path class="st32" d="M129.2,107.3c-1-1-2.5-1.3-3.8-0.7c-0.4,0.2-0.7,0.4-1.1,0.7l0,0c0.3-0.3,0.7-0.5,1.1-0.7
			c-3.7-6.6-8.3-12.6-14.1-17.3l2.2-2.2l4.5-10.7l-2.1-1.2h-1.1l-6.3,8L33.9,10.8L22.3,5.2l5.6,11.6l9.1,9.4l4.4,4.5l8.1,8.3
			l8.3,8.5l42.5,43.8l-8,6v1.4l8.8-6.6l0,0l-8.8,6.6l1.2,2.1l10.7-4.5l2.1-2.1c4.8,5.8,10.8,10.4,17.3,14.1
			c-0.5,1.2-0.3,2.7,0.7,3.7c1.3,1.3,3.5,1.3,4.8,0C130.5,110.8,130.5,108.6,129.2,107.3z"/>
	</g>
	<g>
		<g>
			<g>
				<polygon class="st33" points="33.7,16.6 37,26.2 41.3,30.7 38,20.9 				"/>
				<polygon class="st34" points="22.3,5.2 27.8,16.8 37,26.2 33.7,16.6 				"/>
				<polygon class="st33" points="54.1,37 45.9,28.9 49.4,39.1 57.7,47.6 				"/>
				<polygon class="st34" points="38,20.9 41.3,30.7 49.4,39.1 45.9,28.9 				"/>
				<polygon class="st34" points="102.6,93.8 106.8,89.7 54.1,37 57.7,47.6 				"/>
			</g>
			<g>
				<polygon class="st35" points="110.9,85.6 33.9,10.8 22.3,5.2 106.8,89.7 				"/>
			</g>
			<g>
				<path class="st36" d="M108.8,91.8l-2.5,2.5c4.8,5.8,10.8,10.4,17.3,14.1c0.2-0.4,0.4-0.8,0.7-1.1L108.8,91.8z"/>
				<path class="st37" d="M124.4,107.3c0.3-0.3,0.7-0.5,1.1-0.7c-3.7-6.6-8.3-12.6-14.1-17.3l-2.5,2.5L124.4,107.3z"/>
				<path class="st38" d="M108.5,86.5c-1.4-1.4-3.6-1.4-4.9,0c-1.4,1.4-1.4,3.6,0,4.9L108.5,86.5z"/>
				<polygon class="st35" points="105.9,88.8 105.8,88.8 105.9,88.8 				"/>
				<polygon class="st39" points="105.9,88.8 108.8,91.8 111.3,89.3 113.5,87.1 118,76.4 115.9,75.2 107.5,86.5 105.8,88.8 
					105.9,88.8 				"/>
				<polygon class="st34" points="104.2,96.4 106.3,94.3 108.8,91.8 105.9,88.8 105.9,88.8 105.8,88.8 103.5,90.5 92.3,98.8 
					93.5,101 				"/>
			</g>
		</g>
		<g>
			<path class="st34" d="M127.8,110.8L127.8,110.8c-0.6,0.6-1.6,0.6-2.2,0c-0.4-0.4-0.6-1.1-0.3-1.7c0.1-0.2,0.2-0.4,0.3-0.5
				l-1.3-1.3l0,0c-0.3,0.3-0.6,0.7-0.7,1.1c-0.5,1.2-0.3,2.7,0.7,3.7c1.3,1.3,3.5,1.3,4.8,0L127.8,110.8z"/>
			<path class="st39" d="M126.2,108.3c0.6-0.3,1.2-0.1,1.7,0.3c0.6,0.6,0.6,1.6,0,2.2l1.3,1.3c1.3-1.3,1.3-3.5,0-4.8
				c-1-1-2.5-1.3-3.8-0.7c-0.4,0.2-0.7,0.4-1.1,0.7l1.3,1.3C125.8,108.5,126,108.4,126.2,108.3z"/>
			<path class="st36" d="M125.4,109.1c-0.2,0.6-0.1,1.2,0.3,1.7c0.6,0.6,1.6,0.6,2.2,0v0l-2.2-2.2
				C125.5,108.8,125.4,108.9,125.4,109.1z"/>
			<path class="st37" d="M127.8,108.6c-0.4-0.4-1.1-0.6-1.7-0.3c-0.2,0.1-0.3,0.2-0.5,0.3l2.2,2.2
				C128.4,110.2,128.4,109.2,127.8,108.6z"/>
		</g>
		<g>
			<path class="st34" d="M100.9,83.1L27.5,9.7c-0.2-0.2-0.5-0.2-0.7,0l74.1,74.1C101.1,83.6,101.1,83.3,100.9,83.1z"/>
			<path class="st40" d="M100.9,83.8L26.8,9.7l0,0c-0.1,0.1-0.1,0.2-0.1,0.4c0,0.1,0,0.3,0.1,0.3l73.4,73.4
				C100.4,84,100.7,84,100.9,83.8L100.9,83.8z"/>
		</g>
		<polygon class="st41" points="114.8,75.2 115.9,75.2 105.8,88.8 92.3,98.8 92.3,97.4 104.9,87.8 		"/>
	</g>
</g>
<g>
	<path class="st32" d="M11.7,110.4c1.6,1.1,3.2,2.4,4.7,3.7c1.5,1.3,2.9,2.8,4.3,4.2c0.8,0.9,2,1.4,2.8,1c0,0,0,0,0,0
		c0.8-0.4,0.7-1.6-0.2-2.6c-0.9-1-1.8-1.9-2.8-2.8l0.9-1.1l-2.2-1.9l1.9,1.7l0.6-0.7l-1.9-1.7l1.8,1.6c0.2,0.2,0.6,0.2,0.8,0
		l0.6-0.6c0.2-0.2,0.2-0.6,0-0.8l0.1,0.1l0.6-0.7l-0.1-0.1c0.2,0.2,0.6,0.2,0.8,0l0.6-0.6c0.2-0.2,0.2-0.6,0-0.8l0.1,0.1l0.6-0.7
		l-1.9-1.7l1.8,1.6c0.2,0.2,0.6,0.2,0.8,0l0.6-0.6c0.2-0.2,0.2-0.6,0-0.8l0.1,0.1l0.6-0.7l-1.9-1.7l-2.3-2l-0.6,0.7l2.3,2l-2.2-1.9
		c-0.3-0.3-0.7-0.2-1,0.1l-0.3,0.4c-0.3,0.3-0.2,0.7,0.1,1l-0.1-0.1l-0.6,0.7l0.1,0.1c-0.3-0.3-0.7-0.2-1,0.1l-0.3,0.4
		c-0.3,0.3-0.2,0.7,0.1,1l2.2,1.9l-2.3-2l-0.6,0.7l2.3,2l-2.2-1.9c-0.3-0.3-0.7-0.2-1,0.1l-0.3,0.4c-0.3,0.3-0.2,0.7,0.1,1l-0.1-0.1
		l-0.6,0.7l-0.4-0.3l-1,1.1c-0.9-0.7-1.7-1.3-2.6-2c-1.1-0.8-2.3-0.8-2.6,0.1l0,0C10.1,108.6,10.7,109.7,11.7,110.4z"/>
	<g>
		<path class="st0" d="M118.2,11.8l-0.2,0c-14.6-1.1-29.7,4.4-38.6,16L28.2,94.9l6.4,5.6L118.2,11.8z"/>
		<path class="st42" d="M118.2,11.8l-0.2,0c-14.6-1.1-28.7,5.3-37.6,16.9L29.2,95.8l5.4,4.8L118.2,11.8z"/>
		<g>
			<path class="st32" d="M31.6,98.9l72.3-80.3c0.4-0.4,1-0.5,1.4-0.1l-73.6,81.8C31.3,100,31.3,99.3,31.6,98.9z"/>
			<path class="st43" d="M105.3,18.5c0.2,0.2,0.3,0.4,0.3,0.7c0,0.3-0.1,0.5-0.3,0.7l-72.3,80.3c-0.4,0.4-1,0.5-1.4,0.1L105.3,18.5z
				"/>
		</g>
		<g>
			<path class="st44" d="M23,106.7l1.8,1.6c0.2,0.2,0.2,0.5,0,0.8l-0.6,0.6c-0.2,0.2-0.5,0.2-0.8,0l-1.8-1.6L23,106.7z"/>
			<polygon class="st44" points="28,101 30.1,103 29.6,103.6 27.4,101.7 			"/>
			<path class="st44" d="M24.9,104.5l1.8,1.6c0.2,0.2,0.2,0.5,0,0.8l-0.6,0.6c-0.2,0.2-0.5,0.2-0.8,0l-1.8-1.6L24.9,104.5z"/>
			<path class="st44" d="M26.8,102.4l1.8,1.6c0.2,0.2,0.2,0.5,0,0.8l-0.6,0.6c-0.2,0.2-0.5,0.2-0.8,0l-1.8-1.6L26.8,102.4z"/>
			<path class="st44" d="M21.1,108.8l1.8,1.6c0.2,0.2,0.2,0.5,0,0.8l-0.6,0.6c-0.2,0.2-0.5,0.2-0.8,0l-1.8-1.6L21.1,108.8z"/>
			<path class="st44" d="M18.4,111.9l0.9-1l2.2,1.9l-0.9,1.1C19.8,113.2,19.1,112.6,18.4,111.9z"/>
			<path class="st45" d="M25.6,103.8l-2.2-1.9c-0.3-0.3-0.3-0.7-0.1-1l0.3-0.4c0.3-0.3,0.7-0.3,1-0.1l2.2,1.9L25.6,103.8z"/>
			<path class="st45" d="M21.8,108.1l-2.2-1.9c-0.3-0.3-0.3-0.7-0.1-1l0.3-0.4c0.3-0.3,0.7-0.3,1-0.1l2.2,1.9L21.8,108.1z"/>
			<path class="st45" d="M18.4,111.9c-0.9-0.8-1.8-1.6-2.7-2.3l1-1.1l2.7,2.4L18.4,111.9z"/>
			
				<rect x="26" y="98.4" transform="matrix(0.6627 -0.7489 0.7489 0.6627 -66.1175 53.5451)" class="st45" width="0.8" height="3.6"/>
			<path class="st45" d="M19.9,110.2l-2.2-1.9c-0.3-0.3-0.3-0.7-0.1-1L18,107c0.3-0.3,0.7-0.3,1-0.1l2.2,1.9L19.9,110.2z"/>
			<path class="st45" d="M23.7,105.9l-2.2-1.9c-0.3-0.3-0.3-0.7-0.1-1l0.3-0.4c0.3-0.3,0.7-0.3,1-0.1l2.2,1.9L23.7,105.9z"/>
			<polygon class="st46" points="19.9,110.2 21.8,111.9 21.2,112.6 19.3,110.9 			"/>
			<polygon class="st44" points="19.3,110.9 17,108.9 17.6,108.2 19.9,110.2 			"/>
			<polygon class="st46" points="21.8,108.1 23.7,109.8 23.1,110.5 21.1,108.8 			"/>
			<polygon class="st44" points="21.1,108.8 18.9,106.8 19.5,106.1 21.8,108.1 			"/>
			<polygon class="st46" points="23.7,105.9 25.6,107.6 25,108.3 23,106.7 			"/>
			<polygon class="st44" points="23,106.7 20.8,104.6 21.4,103.9 23.7,105.9 			"/>
			<polygon class="st46" points="25.6,103.8 27.5,105.5 26.8,106.2 24.9,104.5 			"/>
			<polygon class="st44" points="24.9,104.5 22.6,102.5 23.3,101.8 25.6,103.8 			"/>
			<polygon class="st46" points="27.4,101.7 29.4,103.3 28.7,104.1 26.8,102.4 			"/>
			<polygon class="st44" points="26.8,102.4 24.5,100.3 25.2,99.6 27.4,101.7 			"/>
		</g>
		<g>
			<path class="st37" d="M11.7,110.4c-1-0.7-1.6-1.9-1.3-2.6l0,0c0.3-0.9,1.5-0.9,2.6-0.1c0.9,0.6,1.8,1.3,2.6,2
				c0.9,0.7,1.9,1.5,2.7,2.3l-2,2.2C14.9,112.8,13.3,111.6,11.7,110.4z"/>
			<path class="st36" d="M23.5,119.4C23.5,119.4,23.5,119.4,23.5,119.4c-0.7,0.4-2-0.1-2.8-1c-1.3-1.5-2.8-2.9-4.3-4.2l2-2.2
				c0.7,0.6,1.4,1.3,2.1,2c1,0.9,1.9,1.9,2.8,2.8C24.2,117.8,24.3,119,23.5,119.4z"/>
			<path class="st36" d="M56,104.6l-19.7,3.9L28,101l3.5-4l8.4,7.4l5.6-0.7c3.9-3.7,8.4-2,8.4-1.9l0,0
				C56.3,102.6,56.6,104.4,56,104.6z"/>
			<path class="st37" d="M19.6,93.6l1.5-20c0-0.6,1.9-0.5,2.9,1.7l0,0c0.1,0,2.3,4.3-0.8,8.6l0,5.7l8.4,7.4l-3.5,4L19.6,93.6z"/>
		</g>
	</g>
</g>
</svg>
