<?xml version="1.0" encoding="utf-8"?>
<!-- Generator: Adobe Illustrator 22.0.1, SVG Export Plug-In . SVG Version: 6.00 Build 0)  -->
<svg version="1.1" id="Layer_1" xmlns="http://www.w3.org/2000/svg" xmlns:xlink="http://www.w3.org/1999/xlink" x="0px" y="0px"
	 viewBox="0 0 237.1 486.8" style="enable-background:new 0 0 237.1 486.8;" xml:space="preserve">
<style type="text/css">
	.st0{fill:url(#SVGID_1_);}
	.st1{fill:url(#SVGID_2_);}
	.st2{fill:#5A5A5A;}
	.st3{fill:url(#SVGID_3_);}
	.st4{fill:url(#SVGID_4_);}
	.st5{filter:url(#Adobe_OpacityMaskFilter);}
	.st6{filter:url(#Adobe_OpacityMaskFilter_1_);}
	.st7{mask:url(#SVGID_5_);fill:url(#SVGID_6_);}
	.st8{fill:url(#SVGID_7_);}
	.st9{fill:url(#SVGID_8_);}
	.st10{filter:url(#Adobe_OpacityMaskFilter_2_);}
	.st11{filter:url(#Adobe_OpacityMaskFilter_3_);}
	.st12{mask:url(#SVGID_9_);fill:url(#SVGID_10_);}
	.st13{fill:url(#SVGID_11_);}
	.st14{fill:#2F2E31;}
	.st15{fill:#0B0E0D;}
	.st16{fill:#0D1623;}
	.st17{fill:#9FB2DB;}
	.st18{fill:#212455;}
	.st19{fill:#4B5596;}
	.st20{fill:#6D81CA;}
	.st21{fill:#AAAAAA;}
	.st22{fill:url(#SVGID_12_);}
	.st23{fill:none;stroke:#000000;stroke-width:0.25;stroke-miterlimit:10;}
	.st24{fill:#384449;}
</style>
<g>
	<linearGradient id="SVGID_1_" gradientUnits="userSpaceOnUse" x1="117.2384" y1="19.3096" x2="117.2384" y2="214.7813">
		<stop  offset="0" style="stop-color:#000002"/>
		<stop  offset="1" style="stop-color:#212121"/>
	</linearGradient>
	<path class="st0" d="M24.6,484.4c-12.6,0-22.9-10.3-22.9-22.9v-435C1.7,13.9,12,3.7,24.6,3.7h185.2c12.6,0,22.9,10.3,22.9,22.9v435
		c0,12.6-10.3,22.9-22.9,22.9H24.6z"/>
	<g>
		
			<image style="overflow:visible;" width="1198" height="2238" xlink:href="7E1BDFB7.png"  transform="matrix(0.24 0 0 0.24 -26.4359 -24.5074)">
		</image>
	</g>
	<g>
		<linearGradient id="SVGID_2_" gradientUnits="userSpaceOnUse" x1="117.9044" y1="17.871" x2="117.9044" y2="12.9702">
			<stop  offset="0" style="stop-color:#545253"/>
			<stop  offset="1" style="stop-color:#333031"/>
		</linearGradient>
		<path class="st1" d="M159.3,13H76.5c-1.4,0-2.5,1.1-2.5,2.5c0,1.4,1.1,2.5,2.5,2.5h82.8c1.4,0,2.5-1.1,2.5-2.5
			C161.8,14.1,160.7,13,159.3,13z M159.3,17.2H76.5c-1,0-1.8-0.8-1.8-1.8c0-1,0.8-1.8,1.8-1.8h82.8c1,0,1.8,0.8,1.8,1.8
			C161.1,16.4,160.3,17.2,159.3,17.2z"/>
		<g>
			<rect x="76.7" y="14" class="st2" width="0.2" height="2.8"/>
			<rect x="75.7" y="14.5" class="st2" width="0.2" height="1.9"/>
			<rect x="77.6" y="14" class="st2" width="0.2" height="2.8"/>
			<rect x="78.5" y="14" class="st2" width="0.2" height="2.8"/>
			<rect x="79.4" y="14" class="st2" width="0.2" height="2.8"/>
			<rect x="80.3" y="14" class="st2" width="0.2" height="2.8"/>
			<rect x="81.2" y="14" class="st2" width="0.2" height="2.8"/>
			<rect x="82.1" y="14" class="st2" width="0.2" height="2.8"/>
			<rect x="83" y="14" class="st2" width="0.2" height="2.8"/>
			<rect x="83.9" y="14" class="st2" width="0.2" height="2.8"/>
			<rect x="84.8" y="14" class="st2" width="0.2" height="2.8"/>
			<rect x="85.7" y="14" class="st2" width="0.2" height="2.8"/>
			<rect x="86.6" y="14" class="st2" width="0.2" height="2.8"/>
			<rect x="87.5" y="14" class="st2" width="0.2" height="2.8"/>
			<rect x="88.4" y="14" class="st2" width="0.2" height="2.8"/>
			<rect x="89.3" y="14" class="st2" width="0.2" height="2.8"/>
			<rect x="90.2" y="14" class="st2" width="0.2" height="2.8"/>
			<rect x="91.1" y="14" class="st2" width="0.2" height="2.8"/>
			<rect x="92" y="14" class="st2" width="0.2" height="2.8"/>
			<rect x="92.9" y="14" class="st2" width="0.2" height="2.8"/>
			<rect x="93.8" y="14" class="st2" width="0.2" height="2.8"/>
			<rect x="94.7" y="14" class="st2" width="0.2" height="2.8"/>
			<rect x="95.6" y="14" class="st2" width="0.2" height="2.8"/>
			<rect x="96.5" y="14" class="st2" width="0.2" height="2.8"/>
			<rect x="97.4" y="14" class="st2" width="0.2" height="2.8"/>
			<rect x="98.3" y="14" class="st2" width="0.2" height="2.8"/>
			<rect x="99.2" y="14" class="st2" width="0.2" height="2.8"/>
			<rect x="100.1" y="14" class="st2" width="0.2" height="2.8"/>
			<rect x="101" y="14" class="st2" width="0.2" height="2.8"/>
			<rect x="101.9" y="14" class="st2" width="0.2" height="2.8"/>
			<rect x="102.8" y="14" class="st2" width="0.2" height="2.8"/>
			<rect x="103.7" y="14" class="st2" width="0.2" height="2.8"/>
			<rect x="104.6" y="14" class="st2" width="0.2" height="2.8"/>
			<rect x="105.5" y="14" class="st2" width="0.2" height="2.8"/>
			<rect x="106.4" y="14" class="st2" width="0.2" height="2.8"/>
			<rect x="107.3" y="14" class="st2" width="0.2" height="2.8"/>
			<rect x="108.2" y="14" class="st2" width="0.2" height="2.8"/>
			<rect x="109.1" y="14" class="st2" width="0.2" height="2.8"/>
			<rect x="110" y="14" class="st2" width="0.2" height="2.8"/>
			<rect x="110.9" y="14" class="st2" width="0.2" height="2.8"/>
			<rect x="111.8" y="14" class="st2" width="0.2" height="2.8"/>
			<rect x="112.7" y="14" class="st2" width="0.2" height="2.8"/>
			<rect x="113.6" y="14" class="st2" width="0.2" height="2.8"/>
			<rect x="114.5" y="14" class="st2" width="0.2" height="2.8"/>
			<rect x="115.4" y="14" class="st2" width="0.2" height="2.8"/>
			<rect x="116.3" y="14" class="st2" width="0.2" height="2.8"/>
			<rect x="117.2" y="14" class="st2" width="0.2" height="2.8"/>
			<rect x="118.1" y="14" class="st2" width="0.2" height="2.8"/>
			<rect x="119" y="14" class="st2" width="0.2" height="2.8"/>
			<rect x="119.9" y="14" class="st2" width="0.2" height="2.8"/>
			<rect x="120.8" y="14" class="st2" width="0.2" height="2.8"/>
			<rect x="121.7" y="14" class="st2" width="0.2" height="2.8"/>
			<rect x="122.6" y="14" class="st2" width="0.2" height="2.8"/>
			<rect x="123.5" y="14" class="st2" width="0.2" height="2.8"/>
			<rect x="124.4" y="14" class="st2" width="0.2" height="2.8"/>
			<rect x="125.3" y="14" class="st2" width="0.2" height="2.8"/>
			<rect x="126.2" y="14" class="st2" width="0.2" height="2.8"/>
			<rect x="127.1" y="14" class="st2" width="0.2" height="2.8"/>
			<rect x="128" y="14" class="st2" width="0.2" height="2.8"/>
			<rect x="128.9" y="14" class="st2" width="0.2" height="2.8"/>
			<rect x="129.8" y="14" class="st2" width="0.2" height="2.8"/>
			<rect x="130.7" y="14" class="st2" width="0.2" height="2.8"/>
			<rect x="131.6" y="14" class="st2" width="0.2" height="2.8"/>
			<rect x="132.5" y="14" class="st2" width="0.2" height="2.8"/>
			<rect x="133.4" y="14" class="st2" width="0.2" height="2.8"/>
			<rect x="134.3" y="14" class="st2" width="0.2" height="2.8"/>
			<rect x="135.2" y="14" class="st2" width="0.2" height="2.8"/>
			<rect x="136.1" y="14" class="st2" width="0.2" height="2.8"/>
			<rect x="137" y="14" class="st2" width="0.2" height="2.8"/>
			<rect x="137.9" y="14" class="st2" width="0.2" height="2.8"/>
			<rect x="138.8" y="14" class="st2" width="0.2" height="2.8"/>
			<rect x="139.7" y="14" class="st2" width="0.2" height="2.8"/>
			<rect x="140.6" y="14" class="st2" width="0.2" height="2.8"/>
			<rect x="141.5" y="14" class="st2" width="0.2" height="2.8"/>
			<rect x="142.4" y="14" class="st2" width="0.2" height="2.8"/>
			<rect x="143.3" y="14" class="st2" width="0.2" height="2.8"/>
			<rect x="144.2" y="14" class="st2" width="0.2" height="2.8"/>
			<rect x="145.1" y="14" class="st2" width="0.2" height="2.8"/>
			<rect x="146" y="14" class="st2" width="0.2" height="2.8"/>
			<rect x="146.9" y="14" class="st2" width="0.2" height="2.8"/>
			<rect x="147.8" y="14" class="st2" width="0.2" height="2.8"/>
			<rect x="148.7" y="14" class="st2" width="0.2" height="2.8"/>
			<rect x="149.6" y="14" class="st2" width="0.2" height="2.8"/>
			<rect x="150.5" y="14" class="st2" width="0.2" height="2.8"/>
			<rect x="151.4" y="14" class="st2" width="0.2" height="2.8"/>
			<rect x="152.3" y="14" class="st2" width="0.2" height="2.8"/>
			<rect x="153.2" y="14" class="st2" width="0.2" height="2.8"/>
			<rect x="154.1" y="14" class="st2" width="0.2" height="2.8"/>
			<rect x="155" y="14" class="st2" width="0.2" height="2.8"/>
			<rect x="155.9" y="14" class="st2" width="0.2" height="2.8"/>
			<rect x="156.8" y="14" class="st2" width="0.2" height="2.8"/>
			<rect x="159.6" y="14.5" class="st2" width="0.2" height="1.9"/>
			<rect x="156.8" y="14" class="st2" width="0.2" height="2.8"/>
			<rect x="157.7" y="14" class="st2" width="0.2" height="2.8"/>
			<rect x="158.6" y="14" class="st2" width="0.2" height="2.8"/>
		</g>
	</g>
	<g>
		<linearGradient id="SVGID_3_" gradientUnits="userSpaceOnUse" x1="116.3282" y1="476.2055" x2="116.3282" y2="471.3051">
			<stop  offset="0" style="stop-color:#545253"/>
			<stop  offset="1" style="stop-color:#333031"/>
		</linearGradient>
		<path class="st3" d="M157.7,471.3H74.9c-1.4,0-2.5,1.1-2.5,2.5c0,1.4,1.1,2.4,2.5,2.4h82.8c1.4,0,2.5-1.1,2.5-2.4
			C160.2,472.4,159.1,471.3,157.7,471.3z M157.7,475.5H74.9c-1,0-1.8-0.8-1.8-1.8c0-1,0.8-1.8,1.8-1.8h82.8c1,0,1.8,0.8,1.8,1.8
			C159.5,474.7,158.7,475.5,157.7,475.5z"/>
		<g>
			<rect x="75.1" y="472.4" class="st2" width="0.2" height="2.8"/>
			<rect x="74.2" y="472.8" class="st2" width="0.2" height="1.9"/>
			<rect x="76" y="472.4" class="st2" width="0.2" height="2.8"/>
			<rect x="76.9" y="472.4" class="st2" width="0.2" height="2.8"/>
			<rect x="77.8" y="472.4" class="st2" width="0.2" height="2.8"/>
			<rect x="78.7" y="472.4" class="st2" width="0.2" height="2.8"/>
			<rect x="79.6" y="472.4" class="st2" width="0.2" height="2.8"/>
			<rect x="80.5" y="472.4" class="st2" width="0.2" height="2.8"/>
			<rect x="81.4" y="472.4" class="st2" width="0.2" height="2.8"/>
			<rect x="82.3" y="472.4" class="st2" width="0.2" height="2.8"/>
			<rect x="83.2" y="472.4" class="st2" width="0.2" height="2.8"/>
			<rect x="84.1" y="472.4" class="st2" width="0.2" height="2.8"/>
			<rect x="85" y="472.4" class="st2" width="0.2" height="2.8"/>
			<rect x="85.9" y="472.4" class="st2" width="0.2" height="2.8"/>
			<rect x="86.8" y="472.4" class="st2" width="0.2" height="2.8"/>
			<rect x="87.7" y="472.4" class="st2" width="0.2" height="2.8"/>
			<rect x="88.6" y="472.4" class="st2" width="0.2" height="2.8"/>
			<rect x="89.5" y="472.4" class="st2" width="0.2" height="2.8"/>
			<rect x="90.4" y="472.4" class="st2" width="0.2" height="2.8"/>
			<rect x="91.3" y="472.4" class="st2" width="0.2" height="2.8"/>
			<rect x="92.2" y="472.4" class="st2" width="0.2" height="2.8"/>
			<rect x="93.1" y="472.4" class="st2" width="0.2" height="2.8"/>
			<rect x="94" y="472.4" class="st2" width="0.2" height="2.8"/>
			<rect x="94.9" y="472.4" class="st2" width="0.2" height="2.8"/>
			<rect x="95.8" y="472.4" class="st2" width="0.2" height="2.8"/>
			<rect x="96.7" y="472.4" class="st2" width="0.2" height="2.8"/>
			<rect x="97.6" y="472.4" class="st2" width="0.2" height="2.8"/>
			<rect x="98.5" y="472.4" class="st2" width="0.2" height="2.8"/>
			<rect x="99.4" y="472.4" class="st2" width="0.2" height="2.8"/>
			<rect x="100.3" y="472.4" class="st2" width="0.2" height="2.8"/>
			<rect x="101.2" y="472.4" class="st2" width="0.2" height="2.8"/>
			<rect x="102.1" y="472.4" class="st2" width="0.2" height="2.8"/>
			<rect x="103" y="472.4" class="st2" width="0.2" height="2.8"/>
			<rect x="103.9" y="472.4" class="st2" width="0.2" height="2.8"/>
			<rect x="104.9" y="472.4" class="st2" width="0.2" height="2.8"/>
			<rect x="105.7" y="472.4" class="st2" width="0.2" height="2.8"/>
			<rect x="106.7" y="472.4" class="st2" width="0.2" height="2.8"/>
			<rect x="107.6" y="472.4" class="st2" width="0.2" height="2.8"/>
			<rect x="108.5" y="472.4" class="st2" width="0.2" height="2.8"/>
			<rect x="109.4" y="472.4" class="st2" width="0.2" height="2.8"/>
			<rect x="110.3" y="472.4" class="st2" width="0.2" height="2.8"/>
			<rect x="111.2" y="472.4" class="st2" width="0.2" height="2.8"/>
			<rect x="112.1" y="472.4" class="st2" width="0.2" height="2.8"/>
			<rect x="113" y="472.4" class="st2" width="0.2" height="2.8"/>
			<rect x="113.9" y="472.4" class="st2" width="0.2" height="2.8"/>
			<rect x="114.8" y="472.4" class="st2" width="0.2" height="2.8"/>
			<rect x="115.7" y="472.4" class="st2" width="0.2" height="2.8"/>
			<rect x="116.6" y="472.4" class="st2" width="0.2" height="2.8"/>
			<rect x="117.5" y="472.4" class="st2" width="0.2" height="2.8"/>
			<rect x="118.4" y="472.4" class="st2" width="0.2" height="2.8"/>
			<rect x="119.3" y="472.4" class="st2" width="0.2" height="2.8"/>
			<rect x="120.2" y="472.4" class="st2" width="0.2" height="2.8"/>
			<rect x="121.1" y="472.4" class="st2" width="0.2" height="2.8"/>
			<rect x="122" y="472.4" class="st2" width="0.2" height="2.8"/>
			<rect x="122.9" y="472.4" class="st2" width="0.2" height="2.8"/>
			<rect x="123.8" y="472.4" class="st2" width="0.2" height="2.8"/>
			<rect x="124.7" y="472.4" class="st2" width="0.2" height="2.8"/>
			<rect x="125.6" y="472.4" class="st2" width="0.2" height="2.8"/>
			<rect x="126.5" y="472.4" class="st2" width="0.2" height="2.8"/>
			<rect x="127.4" y="472.4" class="st2" width="0.2" height="2.8"/>
			<rect x="128.3" y="472.4" class="st2" width="0.2" height="2.8"/>
			<rect x="129.2" y="472.4" class="st2" width="0.2" height="2.8"/>
			<rect x="130.1" y="472.4" class="st2" width="0.2" height="2.8"/>
			<rect x="131" y="472.4" class="st2" width="0.2" height="2.8"/>
			<rect x="131.9" y="472.4" class="st2" width="0.2" height="2.8"/>
			<rect x="132.8" y="472.4" class="st2" width="0.2" height="2.8"/>
			<rect x="133.7" y="472.4" class="st2" width="0.2" height="2.8"/>
			<rect x="134.6" y="472.4" class="st2" width="0.2" height="2.8"/>
			<rect x="135.5" y="472.4" class="st2" width="0.2" height="2.8"/>
			<rect x="136.4" y="472.4" class="st2" width="0.2" height="2.8"/>
			<rect x="137.3" y="472.4" class="st2" width="0.2" height="2.8"/>
			<rect x="138.2" y="472.4" class="st2" width="0.2" height="2.8"/>
			<rect x="139.1" y="472.4" class="st2" width="0.2" height="2.8"/>
			<rect x="140" y="472.4" class="st2" width="0.2" height="2.8"/>
			<rect x="140.9" y="472.4" class="st2" width="0.2" height="2.8"/>
			<rect x="141.8" y="472.4" class="st2" width="0.2" height="2.8"/>
			<rect x="142.7" y="472.4" class="st2" width="0.2" height="2.8"/>
			<rect x="143.6" y="472.4" class="st2" width="0.2" height="2.8"/>
			<rect x="144.5" y="472.4" class="st2" width="0.2" height="2.8"/>
			<rect x="145.4" y="472.4" class="st2" width="0.2" height="2.8"/>
			<rect x="146.3" y="472.4" class="st2" width="0.2" height="2.8"/>
			<rect x="147.2" y="472.4" class="st2" width="0.2" height="2.8"/>
			<rect x="148.1" y="472.4" class="st2" width="0.2" height="2.8"/>
			<rect x="149" y="472.4" class="st2" width="0.2" height="2.8"/>
			<rect x="149.9" y="472.4" class="st2" width="0.2" height="2.8"/>
			<rect x="150.8" y="472.4" class="st2" width="0.2" height="2.8"/>
			<rect x="151.7" y="472.4" class="st2" width="0.2" height="2.8"/>
			<rect x="152.6" y="472.4" class="st2" width="0.2" height="2.8"/>
			<rect x="153.5" y="472.4" class="st2" width="0.2" height="2.8"/>
			<rect x="154.4" y="472.4" class="st2" width="0.2" height="2.8"/>
			<rect x="155.3" y="472.4" class="st2" width="0.2" height="2.8"/>
			<rect x="158.1" y="472.8" class="st2" width="0.2" height="1.9"/>
			<rect x="155.3" y="472.4" class="st2" width="0.2" height="2.8"/>
			<rect x="156.2" y="472.4" class="st2" width="0.2" height="2.8"/>
			<rect x="157.1" y="472.4" class="st2" width="0.2" height="2.8"/>
		</g>
	</g>
	<g>
		<linearGradient id="SVGID_4_" gradientUnits="userSpaceOnUse" x1="235.4806" y1="150.6591" x2="235.4806" y2="117.8559">
			<stop  offset="0" style="stop-color:#8E8C8F"/>
			<stop  offset="3.763440e-02" style="stop-color:#241F23"/>
			<stop  offset="7.526880e-02" style="stop-color:#C8C5C8"/>
			<stop  offset="0.9194" style="stop-color:#C8C5C8"/>
			<stop  offset="0.9624" style="stop-color:#241F23"/>
			<stop  offset="1" style="stop-color:#8E8C8F"/>
		</linearGradient>
		<path class="st4" d="M236.6,148.5c0,1.2-1,2.2-2.2,2.2l0,0c0-4,0-29.4,0-32.8l0,0c1.2,0,2.2,1,2.2,2.2V148.5z"/>
		<g>
			<defs>
				<filter id="Adobe_OpacityMaskFilter" filterUnits="userSpaceOnUse" x="234.4" y="119.6" width="1.1" height="29.1">
					<feFlood  style="flood-color:white;flood-opacity:1" result="back"/>
					<feBlend  in="SourceGraphic" in2="back" mode="normal"/>
				</filter>
			</defs>
			<mask maskUnits="userSpaceOnUse" x="234.4" y="119.6" width="1.1" height="29.1" id="SVGID_5_">
				<g class="st5">
					<defs>
						<filter id="Adobe_OpacityMaskFilter_1_" filterUnits="userSpaceOnUse" x="234.4" y="119.6" width="1.1" height="29.1">
							<feFlood  style="flood-color:white;flood-opacity:1" result="back"/>
							<feBlend  in="SourceGraphic" in2="back" mode="normal"/>
						</filter>
					</defs>
					<mask maskUnits="userSpaceOnUse" x="234.4" y="119.6" width="1.1" height="29.1" id="SVGID_5_">
						<g class="st6">
						</g>
					</mask>
					<linearGradient id="SVGID_6_" gradientUnits="userSpaceOnUse" x1="234.9425" y1="148.6806" x2="234.9425" y2="119.5595">
						<stop  offset="0" style="stop-color:#000000"/>
						<stop  offset="5.376340e-02" style="stop-color:#FFFFFF"/>
						<stop  offset="0.9462" style="stop-color:#FFFFFF"/>
						<stop  offset="1" style="stop-color:#000000"/>
					</linearGradient>
					<rect x="234.4" y="119.6" class="st7" width="1.1" height="29.1"/>
				</g>
			</mask>
			<linearGradient id="SVGID_7_" gradientUnits="userSpaceOnUse" x1="234.9425" y1="148.6806" x2="234.9425" y2="119.5595">
				<stop  offset="0" style="stop-color:#8E8E90"/>
				<stop  offset="5.376340e-02" style="stop-color:#8E8E90"/>
				<stop  offset="0.9462" style="stop-color:#8E8E90"/>
				<stop  offset="1" style="stop-color:#8E8E90"/>
			</linearGradient>
			<rect x="234.4" y="119.6" class="st8" width="1.1" height="29.1"/>
		</g>
	</g>
	<g>
		<linearGradient id="SVGID_8_" gradientUnits="userSpaceOnUse" x1="235.4806" y1="247.3793" x2="235.4806" y2="185.6958">
			<stop  offset="0" style="stop-color:#8E8C8F"/>
			<stop  offset="1.612900e-02" style="stop-color:#241F23"/>
			<stop  offset="4.838710e-02" style="stop-color:#C8C5C8"/>
			<stop  offset="0.9409" style="stop-color:#C8C5C8"/>
			<stop  offset="0.9731" style="stop-color:#241F23"/>
			<stop  offset="1" style="stop-color:#8E8C8F"/>
		</linearGradient>
		<path class="st9" d="M236.6,245.2c0,1.2-1,2.2-2.2,2.2l0,0c0-4,0-58.3,0-61.7l0,0c1.2,0,2.2,1,2.2,2.2V245.2z"/>
		<g>
			<defs>
				<filter id="Adobe_OpacityMaskFilter_2_" filterUnits="userSpaceOnUse" x="234.4" y="187.4" width="1.1" height="58">
					<feFlood  style="flood-color:white;flood-opacity:1" result="back"/>
					<feBlend  in="SourceGraphic" in2="back" mode="normal"/>
				</filter>
			</defs>
			<mask maskUnits="userSpaceOnUse" x="234.4" y="187.4" width="1.1" height="58" id="SVGID_9_">
				<g class="st10">
					<defs>
						<filter id="Adobe_OpacityMaskFilter_3_" filterUnits="userSpaceOnUse" x="234.4" y="187.4" width="1.1" height="58">
							<feFlood  style="flood-color:white;flood-opacity:1" result="back"/>
							<feBlend  in="SourceGraphic" in2="back" mode="normal"/>
						</filter>
					</defs>
					<mask maskUnits="userSpaceOnUse" x="234.4" y="187.4" width="1.1" height="58" id="SVGID_9_">
						<g class="st11">
						</g>
					</mask>
					<linearGradient id="SVGID_10_" gradientUnits="userSpaceOnUse" x1="234.9425" y1="245.4008" x2="234.9425" y2="187.3994">
						<stop  offset="0" style="stop-color:#000000"/>
						<stop  offset="5.376340e-02" style="stop-color:#FFFFFF"/>
						<stop  offset="0.9462" style="stop-color:#FFFFFF"/>
						<stop  offset="1" style="stop-color:#000000"/>
					</linearGradient>
					<rect x="234.4" y="187.4" class="st12" width="1.1" height="58"/>
				</g>
			</mask>
			<linearGradient id="SVGID_11_" gradientUnits="userSpaceOnUse" x1="234.9425" y1="245.4008" x2="234.9425" y2="187.3994">
				<stop  offset="0" style="stop-color:#8E8E90"/>
				<stop  offset="5.376340e-02" style="stop-color:#8E8E90"/>
				<stop  offset="0.9462" style="stop-color:#8E8E90"/>
				<stop  offset="1" style="stop-color:#8E8E90"/>
			</linearGradient>
			<rect x="234.4" y="187.4" class="st13" width="1.1" height="58"/>
		</g>
	</g>
	<g>
		<path class="st14" d="M35.1,28c-2.5,0-4.5-2-4.5-4.5c0-2.5,2-4.5,4.5-4.5c2.5,0,4.5,2,4.5,4.5C39.6,26,37.6,28,35.1,28z"/>
		<path class="st15" d="M35.1,26.2c-1.5,0-2.7-1.2-2.7-2.7c0-1.5,1.2-2.7,2.7-2.7c1.5,0,2.7,1.2,2.7,2.7
			C37.9,25,36.6,26.2,35.1,26.2z"/>
		<path class="st16" d="M35.1,25.8c-1.3,0-2.3-1-2.3-2.3c0-1.3,1-2.3,2.3-2.3c1.3,0,2.3,1,2.3,2.3C37.4,24.7,36.4,25.8,35.1,25.8z"
			/>
		<path class="st17" d="M35.6,23.4c-0.3,0-0.5-0.2-0.5-0.5c0-0.3,0.2-0.5,0.5-0.5c0.3,0,0.5,0.2,0.5,0.5
			C36.1,23.2,35.8,23.4,35.6,23.4z"/>
		<path class="st18" d="M34.5,25.7c0.5-0.2,0.9-0.7,0.9-1.3c0-0.8-0.6-1.4-1.4-1.4c-0.5,0-0.9,0.2-1.1,0.6
			C32.9,24.5,33.5,25.4,34.5,25.7z"/>
		<path class="st19" d="M34,25.4c0.5,0,1-0.5,1-1c0-0.6-0.5-1-1-1c-0.5,0-0.9,0.3-1,0.8C33.1,24.7,33.5,25.2,34,25.4z"/>
		<path class="st20" d="M33.7,23.8c-0.3,0-0.6,0.2-0.8,0.5c0.2,0.5,0.5,0.8,0.9,1.1c0.4-0.1,0.7-0.4,0.7-0.8
			C34.5,24.1,34.2,23.8,33.7,23.8z"/>
	</g>
	<path class="st21" d="M29.4,9.9h176.2c7,0,13.2,2,17.1,5c-3.7-3.5-10.4-5.9-17.9-5.9H30.2c-7.6,0-14.2,2.4-17.9,5.9
		C16.2,11.9,22.4,9.9,29.4,9.9z"/>
	<linearGradient id="SVGID_12_" gradientUnits="userSpaceOnUse" x1="7.289640e-02" y1="244.048" x2="234.4039" y2="244.048">
		<stop  offset="0" style="stop-color:#8E8C8F"/>
		<stop  offset="1.612900e-02" style="stop-color:#241F23"/>
		<stop  offset="4.838710e-02" style="stop-color:#C8C5C8"/>
		<stop  offset="0.9409" style="stop-color:#C8C5C8"/>
		<stop  offset="0.9731" style="stop-color:#241F23"/>
		<stop  offset="1" style="stop-color:#8E8C8F"/>
	</linearGradient>
	<path class="st22" d="M209.8,2H24.6C11.1,2,0.1,13,0.1,26.6v435c0,13.5,11,24.6,24.6,24.6h185.2c13.5,0,24.6-11,24.6-24.6v-435
		C234.4,13,223.4,2,209.8,2z M232.2,461.5c0,12.3-10,22.3-22.3,22.3H24.6c-12.3,0-22.3-10-22.3-22.3v-435c0-12.3,10-22.3,22.3-22.3
		h185.2c12.3,0,22.3,10,22.3,22.3V461.5z"/>
	<path class="st23" d="M24.6,484.4c-12.6,0-22.9-10.3-22.9-22.9v-435C1.7,13.9,12,3.7,24.6,3.7h185.2c12.6,0,22.9,10.3,22.9,22.9
		v435c0,12.6-10.3,22.9-22.9,22.9H24.6z"/>
	<path class="st24" d="M223.6,445.7c0,6.8-5.5,12.3-12.3,12.3H23.2c-6.8,0-12.3-5.5-12.3-12.3V46.1c0-6.8,5.5-12.3,12.3-12.3h188.1
		c6.8,0,12.3,5.5,12.3,12.3V445.7z"/>
</g>
</svg>
