<svg xmlns="http://www.w3.org/2000/svg" width="1920" height="1080"><path d="M918,407L1155,380L1129,260Z" fill="#603ace" stroke="#603ace" stroke-width="1.51"/><path d="M1129,260L884,164L918,407Z" fill="#5936ca" stroke="#5936ca" stroke-width="1.51"/><path d="M918,407L1068,621L1155,380Z" fill="#6138d6" stroke="#6138d6" stroke-width="1.51"/><path d="M1129,260L931,32L884,164Z" fill="#5737c2" stroke="#5737c2" stroke-width="1.51"/><path d="M1155,380L1262,137L1129,260Z" fill="#653ec7" stroke="#653ec7" stroke-width="1.51"/><path d="M1416,395L1262,137L1155,380Z" fill="#6b42c9" stroke="#6b42c9" stroke-width="1.51"/><path d="M1262,137L931,32L1129,260Z" fill="#5e3cc0" stroke="#5e3cc0" stroke-width="1.51"/><path d="M1403,642L1416,395L1155,380Z" fill="#7144d5" stroke="#7144d5" stroke-width="1.51"/><path d="M642,12L629,247L884,164Z" fill="#5336b6" stroke="#5336b6" stroke-width="1.51"/><path d="M884,164L629,247L918,407Z" fill="#5636c3" stroke="#5636c3" stroke-width="1.51"/><path d="M918,407L890,760L1068,621Z" fill="#6339dc" stroke="#6339dc" stroke-width="1.51"/><path d="M629,247L598,316L918,407Z" fill="#5636c2" stroke="#5636c2" stroke-width="1.51"/><path d="M705,775L890,760L918,407Z" fill="#663cd5" stroke="#663cd5" stroke-width="1.51"/><path d="M1068,621L1403,642L1155,380Z" fill="#6d40da" stroke="#6d40da" stroke-width="1.51"/><path d="M1262,137L1111,-119L931,32Z" fill="#5c3bb8" stroke="#5c3bb8" stroke-width="1.51"/><path d="M931,32L642,12L884,164Z" fill="#5336b6" stroke="#5336b6" stroke-width="1.51"/><path d="M1218,-123L1111,-119L1262,137Z" fill="#613fb4" stroke="#613fb4" stroke-width="1.51"/><path d="M890,760L1024,815L1068,621Z" fill="#7042da" stroke="#7042da" stroke-width="1.51"/><path d="M1235,934L1403,642L1068,621Z" fill="#7e4cd8" stroke="#7e4cd8" stroke-width="1.51"/><path d="M1416,395L1494,170L1262,137Z" fill="#6f46c4" stroke="#6f46c4" stroke-width="1.51"/><path d="M1532,458L1494,170L1416,395Z" fill="#764acb" stroke="#764acb" stroke-width="1.51"/><path d="M1360,-161L1218,-123L1262,137Z" fill="#6541b2" stroke="#6541b2" stroke-width="1.51"/><path d="M967,-240L642,12L931,32Z" fill="#5236af" stroke="#5236af" stroke-width="1.51"/><path d="M433,217L458,372L598,316Z" fill="#5336b7" stroke="#5336b7" stroke-width="1.51"/><path d="M1403,642L1532,458L1416,395Z" fill="#7848d5" stroke="#7848d5" stroke-width="1.51"/><path d="M598,316L555,574L918,407Z" fill="#5836c8" stroke="#5836c8" stroke-width="1.51"/><path d="M458,372L555,574L598,316Z" fill="#5636c1" stroke="#5636c1" stroke-width="1.51"/><path d="M890,760L912,965L1024,815Z" fill="#7847d8" stroke="#7847d8" stroke-width="1.51"/><path d="M555,574L705,775L918,407Z" fill="#5e38d1" stroke="#5e38d1" stroke-width="1.51"/><path d="M433,217L598,316L629,247Z" fill="#5336b7" stroke="#5336b7" stroke-width="1.51"/><path d="M1812,81L1577,71L1494,170Z" fill="#774fba" stroke="#774fba" stroke-width="1.51"/><path d="M1403,642L1569,549L1532,458Z" fill="#7d4bd8" stroke="#7d4bd8" stroke-width="1.51"/><path d="M1111,-119L967,-240L931,32Z" fill="#5637b1" stroke="#5637b1" stroke-width="1.51"/><path d="M1218,-123L967,-240L1111,-119Z" fill="#5a3aad" stroke="#5a3aad" stroke-width="1.51"/><path d="M1218,-123L943,-326L967,-240Z" fill="#5738a9" stroke="#5738a9" stroke-width="1.51"/><path d="M1494,170L1360,-161L1262,137Z" fill="#6a45b8" stroke="#6a45b8" stroke-width="1.51"/><path d="M1494,170L1577,71L1360,-161Z" fill="#6f49b6" stroke="#6f49b6" stroke-width="1.51"/><path d="M1812,81L1494,170L1879,427Z" fill="#7e53c1" stroke="#7e53c1" stroke-width="1.51"/><path d="M642,12L433,217L629,247Z" fill="#5136b1" stroke="#5136b1" stroke-width="1.51"/><path d="M1585,940L1751,577L1569,549Z" fill="#8d59d5" stroke="#8d59d5" stroke-width="1.51"/><path d="M1024,815L1235,934L1068,621Z" fill="#7b4ad8" stroke="#7b4ad8" stroke-width="1.51"/><path d="M1145,1103L1235,934L1024,815Z" fill="#8854d6" stroke="#8854d6" stroke-width="1.51"/><path d="M705,775L912,965L890,760Z" fill="#7547d3" stroke="#7547d3" stroke-width="1.51"/><path d="M458,372L444,647L555,574Z" fill="#5736c6" stroke="#5736c6" stroke-width="1.51"/><path d="M555,574L444,647L705,775Z" fill="#633dc9" stroke="#633dc9" stroke-width="1.51"/><path d="M561,1063L930,1035L912,965Z" fill="#8251d0" stroke="#8251d0" stroke-width="1.51"/><path d="M230,513L444,647L458,372Z" fill="#5536c0" stroke="#5536c0" stroke-width="1.51"/><path d="M967,-240L597,-192L642,12Z" fill="#5035a5" stroke="#5035a5" stroke-width="1.51"/><path d="M642,12L334,-67L433,217Z" fill="#4e36a6" stroke="#4e36a6" stroke-width="1.51"/><path d="M1360,-161L943,-326L1218,-123Z" fill="#5e3daa" stroke="#5e3daa" stroke-width="1.51"/><path d="M943,-326L597,-192L967,-240Z" fill="#5035a3" stroke="#5035a3" stroke-width="1.51"/><path d="M912,965L930,1035L1024,815Z" fill="#7f4dd8" stroke="#7f4dd8" stroke-width="1.51"/><path d="M561,1063L912,965L705,775Z" fill="#7b4ccd" stroke="#7b4ccd" stroke-width="1.51"/><path d="M1569,549L1751,577L1532,458Z" fill="#814fd6" stroke="#814fd6" stroke-width="1.51"/><path d="M1585,940L1569,549L1403,642Z" fill="#8955d6" stroke="#8955d6" stroke-width="1.51"/><path d="M930,1035L1145,1103L1024,815Z" fill="#8652d6" stroke="#8652d6" stroke-width="1.51"/><path d="M1235,934L1585,940L1403,642Z" fill="#8d58d5" stroke="#8d58d5" stroke-width="1.51"/><path d="M1360,-161L1793,-365L943,-326Z" fill="#6643a3" stroke="#6643a3" stroke-width="1.51"/><path d="M1577,71L1570,-204L1360,-161Z" fill="#6e49ae" stroke="#6e49ae" stroke-width="1.51"/><path d="M1828,23L1570,-204L1577,71Z" fill="#7650b1" stroke="#7650b1" stroke-width="1.51"/><path d="M187,218L230,513L458,372Z" fill="#5236b3" stroke="#5236b3" stroke-width="1.51"/><path d="M597,-192L334,-67L642,12Z" fill="#4d35a0" stroke="#4d35a0" stroke-width="1.51"/><path d="M444,647L402,860L705,775Z" fill="#6a42c5" stroke="#6a42c5" stroke-width="1.51"/><path d="M263,798L402,860L444,647Z" fill="#6943bf" stroke="#6943bf" stroke-width="1.51"/><path d="M1580,1144L1585,940L1235,934Z" fill="#9a64d3" stroke="#9a64d3" stroke-width="1.51"/><path d="M187,218L458,372L433,217Z" fill="#5036af" stroke="#5036af" stroke-width="1.51"/><path d="M1879,427L1494,170L1532,458Z" fill="#7e50ca" stroke="#7e50ca" stroke-width="1.51"/><path d="M1145,1103L1217,1160L1235,934Z" fill="#925dd4" stroke="#925dd4" stroke-width="1.51"/><path d="M960,1432L1217,1160L1145,1103Z" fill="#9862d3" stroke="#9862d3" stroke-width="1.51"/><path d="M960,1432L1145,1103L930,1035Z" fill="#925dd4" stroke="#925dd4" stroke-width="1.51"/><path d="M1751,577L1879,427L1532,458Z" fill="#8553d3" stroke="#8553d3" stroke-width="1.51"/><path d="M1982,744L1879,427L1751,577Z" fill="#8f5bd4" stroke="#8f5bd4" stroke-width="1.51"/><path d="M334,-67L187,218L433,217Z" fill="#4d36a4" stroke="#4d36a4" stroke-width="1.51"/><path d="M402,860L561,1063L705,775Z" fill="#764ac6" stroke="#764ac6" stroke-width="1.51"/><path d="M1812,81L1828,23L1577,71Z" fill="#7a53b6" stroke="#7a53b6" stroke-width="1.51"/><path d="M2108,35L1828,23L1812,81Z" fill="#8159b4" stroke="#8159b4" stroke-width="1.51"/><path d="M230,513L263,798L444,647Z" fill="#5e3cbe" stroke="#5e3cbe" stroke-width="1.51"/><path d="M402,860L309,1126L561,1063Z" fill="#7b51be" stroke="#7b51be" stroke-width="1.51"/><path d="M118,571L263,798L230,513Z" fill="#5b3bb9" stroke="#5b3bb9" stroke-width="1.51"/><path d="M597,-192L423,-327L334,-67Z" fill="#4b3596" stroke="#4b3596" stroke-width="1.51"/><path d="M334,-67L91,67L187,218Z" fill="#4b369c" stroke="#4b369c" stroke-width="1.51"/><path d="M943,-326L423,-327L597,-192Z" fill="#4e349a" stroke="#4e349a" stroke-width="1.51"/><path d="M1973,333L1970,300L1879,427Z" fill="#8a5ac8" stroke="#8a5ac8" stroke-width="1.51"/><path d="M1879,427L1970,300L1812,81Z" fill="#8658c3" stroke="#8658c3" stroke-width="1.51"/><path d="M187,218L118,571L230,513Z" fill="#5236b3" stroke="#5236b3" stroke-width="1.51"/><path d="M2216,449L1973,333L1879,427Z" fill="#8f5ecb" stroke="#8f5ecb" stroke-width="1.51"/><path d="M1585,940L1891,775L1751,577Z" fill="#9661d4" stroke="#9661d4" stroke-width="1.51"/><path d="M1813,965L1891,775L1585,940Z" fill="#9f69d2" stroke="#9f69d2" stroke-width="1.51"/><path d="M1388,1252L1580,1144L1235,934Z" fill="#9d67d2" stroke="#9d67d2" stroke-width="1.51"/><path d="M1444,1348L1388,1252L960,1432Z" fill="#a46fd0" stroke="#a46fd0" stroke-width="1.51"/><path d="M1217,1160L1388,1252L1235,934Z" fill="#9863d3" stroke="#9863d3" stroke-width="1.51"/><path d="M187,218L-134,320L118,571Z" fill="#5036a9" stroke="#5036a9" stroke-width="1.51"/><path d="M171,-189L91,67L334,-67Z" fill="#4a3693" stroke="#4a3693" stroke-width="1.51"/><path d="M1727,1092L1813,965L1585,940Z" fill="#a36dd1" stroke="#a36dd1" stroke-width="1.51"/><path d="M423,-327L171,-189L334,-67Z" fill="#493590" stroke="#493590" stroke-width="1.51"/><path d="M1580,1144L1727,1092L1585,940Z" fill="#a36dd1" stroke="#a36dd1" stroke-width="1.51"/><path d="M1720,1311L1727,1092L1580,1144Z" fill="#ac76cf" stroke="#ac76cf" stroke-width="1.51"/><path d="M1891,775L1982,744L1751,577Z" fill="#9761d3" stroke="#9761d3" stroke-width="1.51"/><path d="M1997,1047L1982,744L1891,775Z" fill="#a46dd1" stroke="#a46dd1" stroke-width="1.51"/><path d="M1997,1047L1891,775L1813,965Z" fill="#a570d0" stroke="#a570d0" stroke-width="1.51"/><path d="M1570,-204L1793,-365L1360,-161Z" fill="#6f4ba4" stroke="#6f4ba4" stroke-width="1.51"/><path d="M943,-326L16,-377L423,-327Z" fill="#4a348d" stroke="#4a348d" stroke-width="1.51"/><path d="M1828,23L1793,-365L1570,-204Z" fill="#7651a7" stroke="#7651a7" stroke-width="1.51"/><path d="M2014,-354L1793,-365L1828,23Z" fill="#7a56a2" stroke="#7a56a2" stroke-width="1.51"/><path d="M561,1063L692,1342L930,1035Z" fill="#8858ca" stroke="#8858ca" stroke-width="1.51"/><path d="M367,1247L692,1342L561,1063Z" fill="#895cc2" stroke="#895cc2" stroke-width="1.51"/><path d="M692,1342L792,1373L930,1035Z" fill="#905ecd" stroke="#905ecd" stroke-width="1.51"/><path d="M114,1173L309,1126L263,798Z" fill="#7951b6" stroke="#7951b6" stroke-width="1.51"/><path d="M263,798L309,1126L402,860Z" fill="#734cbb" stroke="#734cbb" stroke-width="1.51"/><path d="M960,1432L1388,1252L1217,1160Z" fill="#9e68d2" stroke="#9e68d2" stroke-width="1.51"/><path d="M1388,1252L1444,1348L1580,1144Z" fill="#a771d0" stroke="#a771d0" stroke-width="1.51"/><path d="M792,1373L960,1432L930,1035Z" fill="#935fd1" stroke="#935fd1" stroke-width="1.51"/><path d="M199,1433L960,1432L792,1373Z" fill="#9666c4" stroke="#9666c4" stroke-width="1.51"/><path d="M-191,-57L-73,183L91,67Z" fill="#493591" stroke="#493591" stroke-width="1.51"/><path d="M91,67L-73,183L187,218Z" fill="#4c369c" stroke="#4c369c" stroke-width="1.51"/><path d="M118,571L-17,745L263,798Z" fill="#613fb5" stroke="#613fb5" stroke-width="1.51"/><path d="M1970,300L2108,35L1812,81Z" fill="#845bba" stroke="#845bba" stroke-width="1.51"/><path d="M2190,78L2108,35L1970,300Z" fill="#895fb9" stroke="#895fb9" stroke-width="1.51"/><path d="M2190,78L1970,300L2321,269Z" fill="#8f62bd" stroke="#8f62bd" stroke-width="1.51"/><path d="M692,1342L199,1433L792,1373Z" fill="#9364c0" stroke="#9364c0" stroke-width="1.51"/><path d="M309,1126L367,1247L561,1063Z" fill="#8257bc" stroke="#8257bc" stroke-width="1.51"/><path d="M-134,320L-17,745L118,571Z" fill="#5436b1" stroke="#5436b1" stroke-width="1.51"/><path d="M309,1126L114,1173L367,1247Z" fill="#8259b6" stroke="#8259b6" stroke-width="1.51"/><path d="M-73,183L-134,320L187,218Z" fill="#4d359e" stroke="#4d359e" stroke-width="1.51"/><path d="M-17,745L-42,819L263,798Z" fill="#6743b2" stroke="#6743b2" stroke-width="1.51"/><path d="M-359,702L-42,819L-17,745Z" fill="#6340a9" stroke="#6340a9" stroke-width="1.51"/><path d="M1444,1348L1720,1311L1580,1144Z" fill="#ac77ce" stroke="#ac77ce" stroke-width="1.51"/><path d="M1727,1092L1997,1047L1813,965Z" fill="#aa74cf" stroke="#aa74cf" stroke-width="1.51"/><path d="M2133,1326L1720,1311L1444,1348Z" fill="#b681cc" stroke="#b681cc" stroke-width="1.51"/><path d="M2173,-219L2014,-354L1828,23Z" fill="#7f5aa4" stroke="#7f5aa4" stroke-width="1.51"/><path d="M2216,449L1970,300L1973,333Z" fill="#8f5fc8" stroke="#8f5fc8" stroke-width="1.51"/><path d="M1982,744L2216,449L1879,427Z" fill="#935ed4" stroke="#935ed4" stroke-width="1.51"/><path d="M2276,679L2216,449L1982,744Z" fill="#9e67d2" stroke="#9e67d2" stroke-width="1.51"/><path d="M2051,1244L1997,1047L1727,1092Z" fill="#b17cce" stroke="#b17cce" stroke-width="1.51"/><path d="M2173,-219L1828,23L2108,35Z" fill="#835cad" stroke="#835cad" stroke-width="1.51"/><path d="M-134,320L-359,702L-17,745Z" fill="#5638aa" stroke="#5638aa" stroke-width="1.51"/><path d="M-73,183L-197,209L-134,320Z" fill="#4c3599" stroke="#4c3599" stroke-width="1.51"/><path d="M-191,-57L-197,209L-73,183Z" fill="#493590" stroke="#493590" stroke-width="1.51"/><path d="M-42,819L114,1173L263,798Z" fill="#704bb2" stroke="#704bb2" stroke-width="1.51"/><path d="M367,1247L199,1433L692,1342Z" fill="#8d62ba" stroke="#8d62ba" stroke-width="1.51"/><path d="M423,-327L16,-377L171,-189Z" fill="#473486" stroke="#473486" stroke-width="1.51"/><path d="M171,-189L-191,-57L91,67Z" fill="#49348c" stroke="#49348c" stroke-width="1.51"/><path d="M1793,-365L16,-377L943,-326Z" fill="#5134a0" stroke="#5134a0" stroke-width="1.51"/><path d="M2190,78L2173,-219L2108,35Z" fill="#8861ad" stroke="#8861ad" stroke-width="1.51"/><path d="M2321,269L2173,-219L2190,78Z" fill="#8b64b1" stroke="#8b64b1" stroke-width="1.51"/><path d="M16,-377L-191,-57L171,-189Z" fill="#473482" stroke="#473482" stroke-width="1.51"/><path d="M2216,449L2321,269L1970,300Z" fill="#9363c5" stroke="#9363c5" stroke-width="1.51"/><path d="M2248,855L2276,679L1982,744Z" fill="#a670d0" stroke="#a670d0" stroke-width="1.51"/><path d="M2276,679L2321,269L2216,449Z" fill="#9a67cd" stroke="#9a67cd" stroke-width="1.51"/><path d="M2300,1027L2248,855L1997,1047Z" fill="#b27dcd" stroke="#b27dcd" stroke-width="1.51"/><path d="M1997,1047L2248,855L1982,744Z" fill="#a973cf" stroke="#a973cf" stroke-width="1.51"/><path d="M-391,866L-65,1097L-42,819Z" fill="#6e4aa6" stroke="#6e4aa6" stroke-width="1.51"/><path d="M-42,819L-65,1097L114,1173Z" fill="#7650ac" stroke="#7650ac" stroke-width="1.51"/><path d="M-197,209L-351,343L-134,320Z" fill="#4d3598" stroke="#4d3598" stroke-width="1.51"/><path d="M-191,-57L-246,-46L-197,209Z" fill="#483589" stroke="#483589" stroke-width="1.51"/><path d="M-341,-253L-246,-46L-191,-57Z" fill="#46337e" stroke="#46337e" stroke-width="1.51"/><path d="M1720,1311L2051,1244L1727,1092Z" fill="#b37dcd" stroke="#b37dcd" stroke-width="1.51"/><path d="M-86,1323L199,1433L114,1173Z" fill="#865fac" stroke="#865fac" stroke-width="1.51"/><path d="M114,1173L199,1433L367,1247Z" fill="#875eb3" stroke="#875eb3" stroke-width="1.51"/><path d="M-246,-46L-351,343L-197,209Z" fill="#4a348f" stroke="#4a348f" stroke-width="1.51"/><path d="M-351,343L-359,702L-134,320Z" fill="#5035a0" stroke="#5035a0" stroke-width="1.51"/><path d="M2248,855L2300,1027L2276,679Z" fill="#af79ce" stroke="#af79ce" stroke-width="1.51"/><path d="M2276,679L2300,1027L2321,269Z" fill="#a46fd0" stroke="#a46fd0" stroke-width="1.51"/><path d="M2051,1244L2300,1027L1997,1047Z" fill="#b682cc" stroke="#b682cc" stroke-width="1.51"/><path d="M2051,1244L2133,1326L2300,1027Z" fill="#bd89ca" stroke="#bd89ca" stroke-width="1.51"/><path d="M1720,1311L2133,1326L2051,1244Z" fill="#bb86cb" stroke="#bb86cb" stroke-width="1.51"/><path d="M960,1432L2133,1326L1444,1348Z" fill="#af7ace" stroke="#af7ace" stroke-width="1.51"/><path d="M-65,1097L-86,1323L114,1173Z" fill="#7f59aa" stroke="#7f59aa" stroke-width="1.51"/><path d="M-257,1195L-86,1323L-65,1097Z" fill="#7e58a4" stroke="#7e58a4" stroke-width="1.51"/><path d="M-351,343L-391,866L-359,702Z" fill="#593aa1" stroke="#593aa1" stroke-width="1.51"/><path d="M-246,-46L-341,-253L-351,343Z" fill="#473483" stroke="#473483" stroke-width="1.51"/><path d="M16,-377L-341,-253L-191,-57Z" fill="#45337a" stroke="#45337a" stroke-width="1.51"/><path d="M-359,702L-391,866L-42,819Z" fill="#6542a4" stroke="#6542a4" stroke-width="1.51"/><path d="M-341,-253L-391,866L-351,343Z" fill="#4d3495" stroke="#4d3495" stroke-width="1.51"/><path d="M-391,866L-257,1195L-65,1097Z" fill="#7450a2" stroke="#7450a2" stroke-width="1.51"/><path d="M-86,1323L-208,1435L199,1433Z" fill="#8963a7" stroke="#8963a7" stroke-width="1.51"/><path d="M199,1433L-208,1435L960,1432Z" fill="#9067b5" stroke="#9067b5" stroke-width="1.51"/><path d="M-257,1195L-208,1435L-86,1323Z" fill="#835ea1" stroke="#835ea1" stroke-width="1.51"/><path d="M-391,866L-208,1435L-257,1195Z" fill="#7a569f" stroke="#7a569f" stroke-width="1.51"/></svg>