<svg xmlns="http://www.w3.org/2000/svg" width="1440" height="900"><path d="M694,498L699,362L568,521Z" fill="#824b83" stroke="#824b83" stroke-width="1.51"/><path d="M699,362L565,308L568,521Z" fill="#7e4a82" stroke="#7e4a82" stroke-width="1.51"/><path d="M565,308L380,347L568,521Z" fill="#7a4a82" stroke="#7a4a82" stroke-width="1.51"/><path d="M740,127L519,205L565,308Z" fill="#764a83" stroke="#764a83" stroke-width="1.51"/><path d="M519,205L380,347L565,308Z" fill="#754a82" stroke="#754a82" stroke-width="1.51"/><path d="M694,498L901,369L699,362Z" fill="#834b84" stroke="#834b84" stroke-width="1.51"/><path d="M699,362L740,127L565,308Z" fill="#7a4a82" stroke="#7a4a82" stroke-width="1.51"/><path d="M568,521L677,727L694,498Z" fill="#894e8a" stroke="#894e8a" stroke-width="1.51"/><path d="M694,498L943,552L901,369Z" fill="#8a4d89" stroke="#8a4d89" stroke-width="1.51"/><path d="M485,766L677,727L568,521Z" fill="#8d5190" stroke="#8d5190" stroke-width="1.51"/><path d="M519,205L380,217L380,347Z" fill="#724a83" stroke="#724a83" stroke-width="1.51"/><path d="M901,369L740,127L699,362Z" fill="#7f4c85" stroke="#7f4c85" stroke-width="1.51"/><path d="M519,205L476,11L380,217Z" fill="#6e4a83" stroke="#6e4a83" stroke-width="1.51"/><path d="M380,347L295,557L568,521Z" fill="#7b4b84" stroke="#7b4b84" stroke-width="1.51"/><path d="M156,368L295,557L380,347Z" fill="#744a83" stroke="#744a83" stroke-width="1.51"/><path d="M677,727L943,552L694,498Z" fill="#8f4f8e" stroke="#8f4f8e" stroke-width="1.51"/><path d="M313,686L485,766L568,521Z" fill="#885090" stroke="#885090" stroke-width="1.51"/><path d="M295,557L313,686L568,521Z" fill="#824e8b" stroke="#824e8b" stroke-width="1.51"/><path d="M1077,191L922,156L901,369Z" fill="#864f8e" stroke="#864f8e" stroke-width="1.51"/><path d="M901,369L922,156L740,127Z" fill="#804d89" stroke="#804d89" stroke-width="1.51"/><path d="M677,727L933,712L943,552Z" fill="#975396" stroke="#975396" stroke-width="1.51"/><path d="M898,866L933,712L677,727Z" fill="#9d569c" stroke="#9d569c" stroke-width="1.51"/><path d="M740,-6L476,11L740,127Z" fill="#6f497e" stroke="#6f497e" stroke-width="1.51"/><path d="M740,127L476,11L519,205Z" fill="#704a83" stroke="#704a83" stroke-width="1.51"/><path d="M943,552L1114,333L901,369Z" fill="#8e4f8e" stroke="#8e4f8e" stroke-width="1.51"/><path d="M933,712L1038,577L943,552Z" fill="#9a5498" stroke="#9a5498" stroke-width="1.51"/><path d="M934,35L740,-6L740,127Z" fill="#764b83" stroke="#764b83" stroke-width="1.51"/><path d="M170,158L156,368L380,217Z" fill="#6b4a83" stroke="#6b4a83" stroke-width="1.51"/><path d="M380,217L156,368L380,347Z" fill="#704a83" stroke="#704a83" stroke-width="1.51"/><path d="M295,557L131,549L313,686Z" fill="#7e4f8c" stroke="#7e4f8c" stroke-width="1.51"/><path d="M476,11L369,10L380,217Z" fill="#694a83" stroke="#694a83" stroke-width="1.51"/><path d="M293,-172L369,10L476,11Z" fill="#624573" stroke="#624573" stroke-width="1.51"/><path d="M156,368L131,549L295,557Z" fill="#754b84" stroke="#754b84" stroke-width="1.51"/><path d="M1077,191L934,35L922,156Z" fill="#82508f" stroke="#82508f" stroke-width="1.51"/><path d="M922,156L934,35L740,127Z" fill="#7b4d89" stroke="#7b4d89" stroke-width="1.51"/><path d="M1038,577L1114,333L943,552Z" fill="#945193" stroke="#945193" stroke-width="1.51"/><path d="M1114,333L1077,191L901,369Z" fill="#8b5191" stroke="#8b5191" stroke-width="1.51"/><path d="M156,368L-49,387L131,549Z" fill="#6e4777" stroke="#6e4777" stroke-width="1.51"/><path d="M369,10L170,158L380,217Z" fill="#684a83" stroke="#684a83" stroke-width="1.51"/><path d="M933,712L1125,781L1038,577Z" fill="#a257a1" stroke="#a257a1" stroke-width="1.51"/><path d="M756,965L898,866L677,727Z" fill="#a15b9a" stroke="#a15b9a" stroke-width="1.51"/><path d="M485,766L587,971L677,727Z" fill="#98559b" stroke="#98559b" stroke-width="1.51"/><path d="M313,686L372,903L485,766Z" fill="#8f5499" stroke="#8f5499" stroke-width="1.51"/><path d="M212,908L372,903L313,686Z" fill="#8f579a" stroke="#8f579a" stroke-width="1.51"/><path d="M372,903L587,971L485,766Z" fill="#9a5f95" stroke="#9a5f95" stroke-width="1.51"/><path d="M587,971L756,965L677,727Z" fill="#a16194" stroke="#a16194" stroke-width="1.51"/><path d="M131,549L126,746L313,686Z" fill="#80508f" stroke="#80508f" stroke-width="1.51"/><path d="M743,-196L571,-172L740,-6Z" fill="#68436a" stroke="#68436a" stroke-width="1.51"/><path d="M740,-6L571,-172L476,11Z" fill="#684572" stroke="#684572" stroke-width="1.51"/><path d="M369,10L211,-37L170,158Z" fill="#62497f" stroke="#62497f" stroke-width="1.51"/><path d="M293,-172L211,-37L369,10Z" fill="#5f4471" stroke="#5f4471" stroke-width="1.51"/><path d="M1095,879L933,712L898,866Z" fill="#a75aa6" stroke="#a75aa6" stroke-width="1.51"/><path d="M1095,879L1125,781L933,712Z" fill="#a95ba8" stroke="#a95ba8" stroke-width="1.51"/><path d="M1038,577L1298,536L1114,333Z" fill="#9a5499" stroke="#9a5499" stroke-width="1.51"/><path d="M934,35L850,-153L740,-6Z" fill="#73487a" stroke="#73487a" stroke-width="1.51"/><path d="M1086,-203L850,-153L934,35Z" fill="#754877" stroke="#754877" stroke-width="1.51"/><path d="M372,903L500,1086L587,971Z" fill="#a4718a" stroke="#a4718a" stroke-width="1.51"/><path d="M126,746L212,908L313,686Z" fill="#895498" stroke="#895498" stroke-width="1.51"/><path d="M850,-153L743,-196L740,-6Z" fill="#6c446d" stroke="#6c446d" stroke-width="1.51"/><path d="M958,1112L1095,879L898,866Z" fill="#b5729a" stroke="#b5729a" stroke-width="1.51"/><path d="M-81,202L-49,387L156,368Z" fill="#664571" stroke="#664571" stroke-width="1.51"/><path d="M131,549L-52,679L126,746Z" fill="#7b4c83" stroke="#7b4c83" stroke-width="1.51"/><path d="M-81,202L156,368L170,158Z" fill="#654778" stroke="#654778" stroke-width="1.51"/><path d="M587,971L717,1116L756,965Z" fill="#ac7786" stroke="#ac7786" stroke-width="1.51"/><path d="M756,965L958,1112L898,866Z" fill="#b17491" stroke="#b17491" stroke-width="1.51"/><path d="M399,1121L500,1086L372,903Z" fill="#a67a85" stroke="#a67a85" stroke-width="1.51"/><path d="M126,746L-62,954L212,908Z" fill="#8c5a8c" stroke="#8c5a8c" stroke-width="1.51"/><path d="M-49,387L-37,579L131,549Z" fill="#6f4675" stroke="#6f4675" stroke-width="1.51"/><path d="M1312,214L1077,191L1114,333Z" fill="#905498" stroke="#905498" stroke-width="1.51"/><path d="M1312,214L1120,-19L1077,191Z" fill="#8b5498" stroke="#8b5498" stroke-width="1.51"/><path d="M1077,191L1120,-19L934,35Z" fill="#825191" stroke="#825191" stroke-width="1.51"/><path d="M-53,-48L-81,202L170,158Z" fill="#5d4472" stroke="#5d4472" stroke-width="1.51"/><path d="M571,-172L293,-172L476,11Z" fill="#61436c" stroke="#61436c" stroke-width="1.51"/><path d="M743,-196L293,-172L571,-172Z" fill="#614163" stroke="#614163" stroke-width="1.51"/><path d="M1125,781L1298,536L1038,577Z" fill="#a458a3" stroke="#a458a3" stroke-width="1.51"/><path d="M1252,787L1298,536L1125,781Z" fill="#ac5cab" stroke="#ac5cab" stroke-width="1.51"/><path d="M1298,536L1307,353L1114,333Z" fill="#9a559a" stroke="#9a559a" stroke-width="1.51"/><path d="M500,1086L717,1116L587,971Z" fill="#ad7e81" stroke="#ad7e81" stroke-width="1.51"/><path d="M-37,579L-52,679L131,549Z" fill="#75497b" stroke="#75497b" stroke-width="1.51"/><path d="M-239,571L-52,679L-37,579Z" fill="#724670" stroke="#724670" stroke-width="1.51"/><path d="M198,1111L399,1121L372,903Z" fill="#a37b84" stroke="#a37b84" stroke-width="1.51"/><path d="M500,1086L399,1121L717,1116Z" fill="#ae867c" stroke="#ae867c" stroke-width="1.51"/><path d="M198,1111L372,903L212,908Z" fill="#9b6f8c" stroke="#9b6f8c" stroke-width="1.51"/><path d="M1307,353L1312,214L1114,333Z" fill="#96569a" stroke="#96569a" stroke-width="1.51"/><path d="M1242,918L1125,781L1095,879Z" fill="#b565ad" stroke="#b565ad" stroke-width="1.51"/><path d="M1242,918L1252,787L1125,781Z" fill="#b460b2" stroke="#b460b2" stroke-width="1.51"/><path d="M-49,387L-239,571L-37,579Z" fill="#6b446a" stroke="#6b446a" stroke-width="1.51"/><path d="M-53,-48L170,158L211,-37Z" fill="#5d4674" stroke="#5d4674" stroke-width="1.51"/><path d="M293,-172L167,-165L211,-37Z" fill="#59426a" stroke="#59426a" stroke-width="1.51"/><path d="M717,1116L958,1112L756,965Z" fill="#b58285" stroke="#b58285" stroke-width="1.51"/><path d="M1120,-19L1086,-203L934,35Z" fill="#7b4c80" stroke="#7b4c80" stroke-width="1.51"/><path d="M850,-153L1086,-203L743,-196Z" fill="#6d446a" stroke="#6d446a" stroke-width="1.51"/><path d="M1318,-179L1086,-203L1120,-19Z" fill="#7e4c7d" stroke="#7e4c7d" stroke-width="1.51"/><path d="M-81,202L-171,313L-49,387Z" fill="#614267" stroke="#614267" stroke-width="1.51"/><path d="M-231,221L-171,313L-81,202Z" fill="#5d4062" stroke="#5d4062" stroke-width="1.51"/><path d="M1239,1082L1242,918L1095,879Z" fill="#c078a3" stroke="#c078a3" stroke-width="1.51"/><path d="M1441,705L1467,528L1298,536Z" fill="#b06f97" stroke="#b06f97" stroke-width="1.51"/><path d="M-6,1103L198,1111L212,908Z" fill="#9c787e" stroke="#9c787e" stroke-width="1.51"/><path d="M167,-165L-53,-48L211,-37Z" fill="#584166" stroke="#584166" stroke-width="1.51"/><path d="M958,1112L1061,1117L1095,879Z" fill="#bf8394" stroke="#bf8394" stroke-width="1.51"/><path d="M717,1116L1061,1117L958,1112Z" fill="#be8d84" stroke="#be8d84" stroke-width="1.51"/><path d="M399,1121L1061,1117L717,1116Z" fill="#b5897b" stroke="#b5897b" stroke-width="1.51"/><path d="M1312,214L1330,-7L1120,-19Z" fill="#8c5798" stroke="#8c5798" stroke-width="1.51"/><path d="M1503,170L1330,-7L1312,214Z" fill="#986890" stroke="#986890" stroke-width="1.51"/><path d="M1501,302L1312,214L1307,353Z" fill="#9e6790" stroke="#9e6790" stroke-width="1.51"/><path d="M1298,536L1467,528L1307,353Z" fill="#a66693" stroke="#a66693" stroke-width="1.51"/><path d="M1441,705L1298,536L1252,787Z" fill="#b268a3" stroke="#b268a3" stroke-width="1.51"/><path d="M-235,763L-62,954L-52,679Z" fill="#7d4b7c" stroke="#7d4b7c" stroke-width="1.51"/><path d="M-52,679L-62,954L126,746Z" fill="#824f86" stroke="#824f86" stroke-width="1.51"/><path d="M-171,313L-239,571L-49,387Z" fill="#654062" stroke="#654062" stroke-width="1.51"/><path d="M1508,965L1252,787L1242,918Z" fill="#c37aa5" stroke="#c37aa5" stroke-width="1.51"/><path d="M1508,965L1441,705L1252,787Z" fill="#c076a7" stroke="#c076a7" stroke-width="1.51"/><path d="M-171,313L-231,221L-239,571Z" fill="#603f5d" stroke="#603f5d" stroke-width="1.51"/><path d="M-164,-2L-231,221L-81,202Z" fill="#594062" stroke="#594062" stroke-width="1.51"/><path d="M-64,-171L-164,-2L-53,-48Z" fill="#513c56" stroke="#513c56" stroke-width="1.51"/><path d="M-53,-48L-164,-2L-81,202Z" fill="#574065" stroke="#574065" stroke-width="1.51"/><path d="M1654,383L1501,302L1467,528Z" fill="#ad7c83" stroke="#ad7c83" stroke-width="1.51"/><path d="M1467,528L1501,302L1307,353Z" fill="#a66e8c" stroke="#a66e8c" stroke-width="1.51"/><path d="M1061,1117L1239,1082L1095,879Z" fill="#c38399" stroke="#c38399" stroke-width="1.51"/><path d="M167,-165L-64,-171L-53,-48Z" fill="#533c59" stroke="#533c59" stroke-width="1.51"/><path d="M-190,-253L-64,-171L167,-165Z" fill="#4d394d" stroke="#4d394d" stroke-width="1.51"/><path d="M-190,-253L167,-165L293,-172Z" fill="#523c58" stroke="#523c58" stroke-width="1.51"/><path d="M-239,571L-235,763L-52,679Z" fill="#73466e" stroke="#73466e" stroke-width="1.51"/><path d="M-62,954L-6,1103L212,908Z" fill="#946d7b" stroke="#946d7b" stroke-width="1.51"/><path d="M198,1111L-6,1103L399,1121Z" fill="#a3867b" stroke="#a3867b" stroke-width="1.51"/><path d="M-196,1059L-6,1103L-62,954Z" fill="#917169" stroke="#917169" stroke-width="1.51"/><path d="M1501,302L1503,170L1312,214Z" fill="#a06f8c" stroke="#a06f8c" stroke-width="1.51"/><path d="M1430,-42L1318,-179L1330,-7Z" fill="#8c5f7e" stroke="#8c5f7e" stroke-width="1.51"/><path d="M1330,-7L1318,-179L1120,-19Z" fill="#855387" stroke="#855387" stroke-width="1.51"/><path d="M1503,170L1430,-42L1330,-7Z" fill="#966b88" stroke="#966b88" stroke-width="1.51"/><path d="M-235,763L-273,862L-62,954Z" fill="#7f5073" stroke="#7f5073" stroke-width="1.51"/><path d="M-239,571L-273,862L-235,763Z" fill="#73466b" stroke="#73466b" stroke-width="1.51"/><path d="M-231,221L-273,862L-239,571Z" fill="#684160" stroke="#684160" stroke-width="1.51"/><path d="M1441,705L1623,534L1467,528Z" fill="#b77d8e" stroke="#b77d8e" stroke-width="1.51"/><path d="M1501,302L1618,218L1503,170Z" fill="#a67b83" stroke="#a67b83" stroke-width="1.51"/><path d="M1672,770L1623,534L1441,705Z" fill="#c1898e" stroke="#c1898e" stroke-width="1.51"/><path d="M1503,170L1702,32L1430,-42Z" fill="#9e7b80" stroke="#9e7b80" stroke-width="1.51"/><path d="M1654,383L1618,218L1501,302Z" fill="#ac827f" stroke="#ac827f" stroke-width="1.51"/><path d="M-273,862L-196,1059L-62,954Z" fill="#886169" stroke="#886169" stroke-width="1.51"/><path d="M1623,534L1654,383L1467,528Z" fill="#b38381" stroke="#b38381" stroke-width="1.51"/><path d="M1415,1102L1508,965L1242,918Z" fill="#ce9495" stroke="#ce9495" stroke-width="1.51"/><path d="M1239,1082L1415,1102L1242,918Z" fill="#cc8f97" stroke="#cc8f97" stroke-width="1.51"/><path d="M1061,1117L1415,1102L1239,1082Z" fill="#ce9395" stroke="#ce9395" stroke-width="1.51"/><path d="M-64,-171L-190,-253L-164,-2Z" fill="#4c384a" stroke="#4c384a" stroke-width="1.51"/><path d="M-164,-2L-190,-253L-231,221Z" fill="#503b55" stroke="#503b55" stroke-width="1.51"/><path d="M743,-196L-190,-253L293,-172Z" fill="#573f60" stroke="#573f60" stroke-width="1.51"/><path d="M1086,-203L-190,-253L743,-196Z" fill="#5f3f5f" stroke="#5f3f5f" stroke-width="1.51"/><path d="M1086,-203L1475,-226L-190,-253Z" fill="#674061" stroke="#674061" stroke-width="1.51"/><path d="M1318,-179L1475,-226L1086,-203Z" fill="#805273" stroke="#805273" stroke-width="1.51"/><path d="M1430,-42L1475,-226L1318,-179Z" fill="#8a6271" stroke="#8a6271" stroke-width="1.51"/><path d="M1706,-174L1475,-226L1430,-42Z" fill="#917267" stroke="#917267" stroke-width="1.51"/><path d="M1508,965L1672,770L1441,705Z" fill="#c9889b" stroke="#c9889b" stroke-width="1.51"/><path d="M1623,534L1672,770L1654,383Z" fill="#bd8e81" stroke="#bd8e81" stroke-width="1.51"/><path d="M1685,928L1672,770L1508,965Z" fill="#d39f8d" stroke="#d39f8d" stroke-width="1.51"/><path d="M1618,218L1702,32L1503,170Z" fill="#a6847e" stroke="#a6847e" stroke-width="1.51"/><path d="M1654,383L1702,32L1618,218Z" fill="#ab8a79" stroke="#ab8a79" stroke-width="1.51"/><path d="M1672,770L1702,32L1654,383Z" fill="#b38d77" stroke="#b38d77" stroke-width="1.51"/><path d="M1672,770L1685,928L1702,32Z" fill="#c0937f" stroke="#c0937f" stroke-width="1.51"/><path d="M1659,1080L1685,928L1508,965Z" fill="#d9b180" stroke="#d9b180" stroke-width="1.51"/><path d="M1415,1102L1659,1080L1508,965Z" fill="#d9af81" stroke="#d9af81" stroke-width="1.51"/><path d="M1702,32L1706,-174L1430,-42Z" fill="#9a7e6c" stroke="#9a7e6c" stroke-width="1.51"/><path d="M1685,928L1706,-174L1702,32Z" fill="#af8f76" stroke="#af8f76" stroke-width="1.51"/></svg>